<?xml version="1.0" encoding="utf-8"?>
<!-- Generator: Adobe Illustrator 16.0.0, SVG Export Plug-In . SVG Version: 6.00 Build 0)  -->
<!DOCTYPE svg PUBLIC "-//W3C//DTD SVG 1.1//EN" "http://www.w3.org/Graphics/SVG/1.1/DTD/svg11.dtd">
<svg version="1.1" id="Layer_1" xmlns="http://www.w3.org/2000/svg" xmlns:xlink="http://www.w3.org/1999/xlink" x="0px" y="0px"
	 width="48px" height="48px" viewBox="0 0 48 48" enable-background="new 0 0 48 48" xml:space="preserve">
<g>
	<path fill="#F3C816" d="M37.774,21.467l-4.928-1.056c0,0-3.476-3.312-5.199-4.721c-1.402-1.146-3.693-1.095-3.693-1.095h-8.552
		c-2.189,0-3.178,1.067-3.178,1.067l-4.826,4.953c-0.274,0.254-0.449,0.553-0.563,0.851H37.774z"/>
</g>
<g>
	<path d="M14.437,26.343c-2.128,0-3.859,1.73-3.859,3.859c0,2.127,1.731,3.857,3.859,3.857c2.128,0,3.861-1.73,3.861-3.857
		C18.298,28.073,16.566,26.343,14.437,26.343z M14.437,32.334c-1.175,0-2.13-0.956-2.13-2.132c0-1.174,0.956-2.131,2.13-2.131
		c1.175,0,2.131,0.957,2.131,2.131C16.568,31.378,15.613,32.334,14.437,32.334z"/>
	<path d="M33.582,26.343c-2.129,0-3.86,1.73-3.86,3.859c0,2.127,1.731,3.857,3.86,3.857c2.127,0,3.856-1.73,3.856-3.857
		C37.438,28.073,35.709,26.343,33.582,26.343z M33.582,32.334c-1.176,0-2.132-0.956-2.132-2.132c0-1.174,0.956-2.131,2.132-2.131
		c1.175,0,2.129,0.957,2.129,2.131C35.711,31.378,34.757,32.334,33.582,32.334z"/>
	<path d="M43.452,25.305l-0.02-0.169c-0.625-2.835-4.346-3.977-4.535-4.031l-5.452-1.169c-0.759-0.719-3.62-3.42-5.204-4.712
		c-1.563-1.279-3.883-1.35-4.417-1.35c-0.003,0-0.006,0-0.008,0h-8.796c-2.665,0-3.932,1.348-3.978,1.396l-4.916,5.05
		c-1.25,1.118-1.089,3.129-1.087,3.129v6.228c0,0.854,0.696,1.552,1.551,1.552h2.607v-1.977H7.016l-0.003-5.875
		c-0.019-0.315,0.025-1.221,0.481-1.631l4.972-5.103c0.032-0.032,0.795-0.793,2.554-0.793h8.85c0.207,0,2.046,0.025,3.125,0.904
		c1.657,1.356,5.102,4.622,5.291,4.809l0.201,0.189l5.908,1.262c0.688,0.214,2.709,1.121,3.082,2.454v3.784h-2.639v1.977h3.063
		c0.854,0,1.549-0.694,1.552-1.552L43.452,25.305z"/>
	<rect x="19.714" y="29.25" width="8.607" height="1.977"/>
</g>
</svg>
