<svg xmlns="http://www.w3.org/2000/svg" width="270" height="260" viewBox="0 0 27 26">
  <metadata><?xpacket begin="﻿" id="W5M0MpCehiHzreSzNTczkc9d"?>
<x:xmpmeta xmlns:x="adobe:ns:meta/" x:xmptk="Adobe XMP Core 5.6-c138 79.159824, 2016/09/14-01:09:01        ">
   <rdf:RDF xmlns:rdf="http://www.w3.org/1999/02/22-rdf-syntax-ns#">
      <rdf:Description rdf:about=""/>
   </rdf:RDF>
</x:xmpmeta>
                                                                                                    
                                                                                                    
                                                                                                    
                                                                                                    
                                                                                                    
                                                                                                    
                                                                                                    
                                                                                                    
                                                                                                    
                                                                                                    
                                                                                                    
                                                                                                    
                                                                                                    
                                                                                                    
                                                                                                    
                                                                                                    
                                                                                                    
                                                                                                    
                                                                                                    
                                                                                                    
                           
<?xpacket end="w"?></metadata>
<defs>
    <style>
      .cls-1 {
        fill-rule: evenodd;
      }
    </style>
  </defs>
  <path class="cls-1" d="M16.721,25.993l5.853,0a0.9,0.9,0,0,0,.987-0.953V12.971l1,0.767a0.545,0.545,0,0,0,.822-0.092l1.424-1.87a0.543,0.543,0,0,0-.142-0.913L14.031,1.188a0.9,0.9,0,0,0-1.136.017L0.252,10.886a0.631,0.631,0,0,0-.1.9l1.394,1.833a0.54,0.54,0,0,0,.815.142l1.031-.789V24.9a0.976,0.976,0,0,0,1.024,1.09l5.8,0,0-11.857a0.882,0.882,0,0,1,.881-0.883h4.75a0.881,0.881,0,0,1,.879.883Z"/>
</svg>
