<?xml version="1.0" encoding="utf-8"?>
<!-- Generator: Adobe Illustrator 16.0.0, SVG Export Plug-In . SVG Version: 6.00 Build 0)  -->
<!DOCTYPE svg PUBLIC "-//W3C//DTD SVG 1.1//EN" "http://www.w3.org/Graphics/SVG/1.1/DTD/svg11.dtd">
<svg version="1.1" id="Layer_1" xmlns="http://www.w3.org/2000/svg" xmlns:xlink="http://www.w3.org/1999/xlink" x="0px" y="0px"
	 width="48px" height="48px" viewBox="0 0 48 48" enable-background="new 0 0 48 48" xml:space="preserve">
<g>
	<g>
		<g>
			<g>
				<path fill="#C589CE" d="M7.975,21.781h31.792C34.127,16.225,23.871,6.117,23.871,6.117L7.975,21.781z"/>
			</g>
		</g>
	</g>
	<g>
		<g>
			<g>
				<polygon points="5.948,24.291 4.584,22.828 23.95,4.783 43.314,22.828 41.952,24.291 23.95,7.516 				"/>
			</g>
			<g>
				<path d="M37.829,43.361H26.04V32.738h-4.49v10.623H9.453V24.016h2v17.346h8.097v-8.799c0-1.006,0.818-1.823,1.823-1.823h4.842
					c1.006,0,1.824,0.817,1.824,1.823v8.799h7.789V24.016h2L37.829,43.361L37.829,43.361z"/>
			</g>
			<g>
				<rect x="32.223" y="8.862" width="2" height="5.992"/>
			</g>
		</g>
	</g>
</g>
</svg>
