<?xml version="1.0" encoding="utf-8"?>
<!-- Generator: Adobe Illustrator 16.0.0, SVG Export Plug-In . SVG Version: 6.00 Build 0)  -->
<!DOCTYPE svg PUBLIC "-//W3C//DTD SVG 1.1//EN" "http://www.w3.org/Graphics/SVG/1.1/DTD/svg11.dtd">
<svg version="1.1" id="Layer_1" xmlns="http://www.w3.org/2000/svg" xmlns:xlink="http://www.w3.org/1999/xlink" x="0px" y="0px"
	 width="48px" height="48px" viewBox="0 0 48 48" enable-background="new 0 0 48 48" xml:space="preserve">
<polygon fill="#CB9866" points="5.433,24.712 42.361,24.712 42.361,15.861 40.531,13.826 6.959,13.826 5.433,16.167 "/>
<path d="M40.588,12.948h-9.093V9.621c0-1.457-1.187-2.642-2.642-2.642h-9.901c-1.457,0-2.642,1.185-2.642,2.642v3.327H7.218
	c-1.457,0-2.642,1.186-2.642,2.642v22.789c0,1.456,1.185,2.643,2.642,2.643h33.37c1.455,0,2.641-1.187,2.641-2.643V15.59
	C43.229,14.134,42.043,12.948,40.588,12.948z M18.952,9.007h9.901c0.338,0,0.613,0.275,0.613,0.614v3.326H18.338V9.621
	C18.338,9.283,18.614,9.007,18.952,9.007z M6.604,22.165l0.002-6.575c0-0.164,0.063-0.316,0.178-0.433
	c0.116-0.116,0.27-0.181,0.434-0.181h33.37c0.339,0,0.614,0.275,0.614,0.614L41.2,38.379c0,0.338-0.274,0.612-0.612,0.612H7.217
	c-0.338,0-0.613-0.274-0.613-0.612V22.165z"/>
</svg>
