<?xml version="1.0" encoding="utf-8"?>
<!-- Generator: Adobe Illustrator 16.0.0, SVG Export Plug-In . SVG Version: 6.00 Build 0)  -->
<!DOCTYPE svg PUBLIC "-//W3C//DTD SVG 1.1//EN" "http://www.w3.org/Graphics/SVG/1.1/DTD/svg11.dtd">
<svg version="1.1" id="Layer_1" xmlns="http://www.w3.org/2000/svg" xmlns:xlink="http://www.w3.org/1999/xlink" x="0px" y="0px"
	 width="48px" height="48px" viewBox="0 0 48 48" enable-background="new 0 0 48 48" xml:space="preserve">
<path fill="#6799FD" d="M11.166,21.872c-0.005,0.685-0.007,1.144-0.007,1.755h5.926c0.204-1.63,0.983-3.08,2.138-4.133
	c1.172-1.139,2.769-1.844,4.532-1.844c1.943,0,3.687,0.853,4.878,2.203c0.957,1.013,1.596,2.319,1.778,3.772h6.147
	c-0.011-0.373-0.021-1.039-0.021-1.581c0.002-0.34,0.184-0.654,0.479-0.826l4.84-2.792l-4.188-7.011l-4.485,3.1
	c-0.309,0.18-0.693,0.17-0.992-0.022c-0.662-0.372-1.182-0.678-1.681-0.971c-0.64-0.378-1.25-0.737-2.168-1.239
	c-0.305-0.168-0.495-0.489-0.495-0.837V5.907l-7.656-0.064l-0.066,5.192c0,0.303-0.143,0.587-0.385,0.767
	c-1.771,1.316-3.865,2.662-3.953,2.72c-0.301,0.192-0.684,0.201-0.994,0.022l-4.541-3.209l-4.136,7.036l4.569,2.665
	C10.983,21.205,11.17,21.525,11.166,21.872z"/>
<g>
	<path d="M23.883,16.475c-4.166,0-7.555,3.39-7.555,7.555c0,4.166,3.389,7.554,7.555,7.554c4.163,0,7.549-3.39,7.549-7.554
		C31.434,19.864,28.046,16.475,23.883,16.475z M23.883,29.532c-3.035,0-5.505-2.47-5.505-5.505s2.47-5.504,5.505-5.504
		c3.034,0,5.502,2.469,5.502,5.504S26.917,29.532,23.883,29.532z"/>
	<path d="M42.01,27.805l-4.023-2.316c0.003-0.633-0.006-1.159-0.014-1.688l-0.002-0.118c-0.009-0.373-0.016-0.754-0.019-1.179
		L42,20.165c0.986-0.574,1.327-1.849,0.758-2.84l-3.615-6.253c-0.357-0.625-1.078-1.028-1.838-1.028
		c-0.359,0-0.707,0.091-1.004,0.263l-4.021,2.323c-0.396-0.228-0.733-0.427-1.062-0.621l-0.18-0.105
		c-0.419-0.246-0.838-0.492-1.358-0.784V6.503c0-1.146-0.934-2.08-2.08-2.08h-7.224c-1.147,0-2.083,0.933-2.083,2.08v4.317
		c-0.738,0.536-1.625,1.145-2.634,1.813l-3.971-2.293c-0.299-0.172-0.646-0.263-1.005-0.263c-0.758,0-1.478,0.403-1.835,1.026
		l-3.617,6.25c-0.572,0.992-0.227,2.27,0.771,2.848l3.763,2.133c-0.006,1.175-0.002,2.41,0,3.188v0.146l-3.757,2.166
		c-0.99,0.573-1.332,1.85-0.762,2.842l3.613,6.26c0.359,0.621,1.079,1.021,1.834,1.021c0.359,0,0.708-0.091,1.006-0.264l3.975-2.293
		c0.939,0.607,1.938,1.17,2.65,1.558v4.541c0,1.146,0.933,2.08,2.08,2.08h7.223c1.146,0,2.081-0.935,2.081-2.08v-4.53
		c0.537-0.285,1.505-0.83,2.646-1.592l3.961,2.287c0.3,0.173,0.646,0.266,1.006,0.266c0.755,0,1.476-0.402,1.836-1.025l3.613-6.256
		C43.343,29.659,43.003,28.385,42.01,27.805z M27.559,36.514v5.164l-7.08-0.059v-5.105c0-0.425-0.234-0.809-0.619-1.006
		c-0.349-0.182-2.154-1.134-3.559-2.09c-0.35-0.299-0.887-0.35-1.29-0.12l-4.569,2.571l-3.458-6.112l4.219-2.433
		c0.352-0.202,0.568-0.578,0.564-0.983c-0.001-0.103-0.016-2.646,0-4.683c0.004-0.409-0.215-0.788-0.569-0.988l-4.251-2.479
		l3.56-6.046l4.472,2.583c0.359,0.207,0.795,0.215,1.203-0.047c0.656-0.425,2.342-1.531,3.81-2.622
		c0.284-0.21,0.452-0.548,0.452-0.901l0.063-4.831l7.021,0.059v5.169c0,0.411,0.224,0.79,0.584,0.987
		c0.902,0.494,1.509,0.852,2.096,1.198c0.482,0.285,0.986,0.581,1.62,0.938c0.348,0.223,0.813,0.232,1.168,0.028l4.567-2.567
		l3.465,6.108l-4.514,2.606c-0.349,0.199-0.564,0.571-0.565,0.973c0,0.734,0.011,1.32,0.021,1.896
		c0.016,0.745,0.026,1.441,0.014,2.418c0,0.129,0.021,0.268,0.063,0.39c0.09,0.258,0.27,0.478,0.51,0.616l4.538,2.617l-3.591,6.098
		l-4.479-2.584c-0.373-0.219-0.856-0.195-1.205,0.052c-1.981,1.381-3.598,2.161-3.617,2.17
		C27.811,35.684,27.559,36.082,27.559,36.514z"/>
</g>
</svg>
