<?xml version='1.0' encoding='iso-8859-1'?>
<svg version="1.1" xmlns="http://www.w3.org/2000/svg" viewBox="0 0 44 44" xmlns:xlink="http://www.w3.org/1999/xlink" enable-background="new 0 0 44 44">
  <g>
    <g>
      <g>
        <path fill-rule="evenodd" d="m5,40h34c0.552,0 1-0.447 1-1v-34c0-0.553-0.448-1-1-1h-34c-0.552,0-1,0.447-1,1v34c0,0.553 0.448,1 1,1zm1-34h32v32h-32v-32zm19,15h-3.101c-0.131-0.645-0.397-1.238-0.751-1.766 0.03-0.024 0.066-0.035 0.094-0.062l1.414-1.414c0.391-0.391 0.391-1.024 0-1.415-0.391-0.391-1.023-0.391-1.414,0l-1.414,1.415c-0.029,0.028-0.04,0.066-0.064,0.097-0.534-0.355-1.133-0.621-1.785-0.751 0.004-0.036 0.021-0.067 0.021-0.104v-2c0-0.553-0.448-1-1-1s-1,0.447-1,1v2c0,0.035 0.016,0.065 0.02,0.099-0.653,0.13-1.252,0.397-1.785,0.754-0.024-0.03-0.035-0.067-0.063-0.095l-1.414-1.415c-0.391-0.391-1.024-0.391-1.414,0-0.391,0.391-0.391,1.024 0,1.415l1.414,1.414c0.029,0.029 0.066,0.04 0.097,0.065-0.356,0.534-0.621,1.133-0.751,1.784-0.036-0.004-0.067-0.021-0.104-0.021h-2c-0.552,0-1,0.447-1,1 0,0.553 0.448,1 1,1h2c0.04,0 0.073-0.018 0.112-0.023 0.134,0.648 0.386,1.253 0.742,1.786-0.031,0.024-0.068,0.036-0.097,0.064l-1.414,1.414c-0.391,0.391-0.391,1.024 0,1.415 0.39,0.39 1.023,0.39 1.414,0l1.414-1.415c0.028-0.028 0.039-0.065 0.063-0.095 0.534,0.357 1.133,0.625 1.785,0.754-0.003,0.035-0.019,0.065-0.019,0.1v2c0,0.553 0.448,1 1,1s1-0.447 1-1v-2c0-0.037-0.017-0.068-0.021-0.103 0.652-0.13 1.251-0.395 1.785-0.751 0.024,0.031 0.036,0.068 0.064,0.097l1.414,1.415c0.391,0.39 1.023,0.39 1.414,0 0.391-0.391 0.391-1.024 0-1.415l-1.414-1.414c-0.028-0.028-0.064-0.039-0.094-0.062 0.354-0.528 0.62-1.12 0.751-1.766h3.101c0.552,0 1-0.447 1-1 0-0.554-0.448-1.001-1-1.001zm-7,2h1.816c-0.413,1.163-1.512,2-2.816,2-1.657,0-3-1.343-3-3 0-1.657 1.343-3 3-3 1.304,0 2.403,0.837 2.816,2h-1.816c-0.552,0-1,0.447-1,1 0,0.553 0.448,1 1,1zm25-23h-42c-0.552,0-1,0.447-1,1v42c0,0.553 0.448,1 1,1h42c0.552,0 1-0.447 1-1v-42c0-0.553-0.448-1-1-1zm-1,42h-40v-40h40v40z"/>
      </g>
    </g>
    <g>
      <g>
        <path fill-rule="evenodd" d="m38,12v-2h-6c-0.552,0-1,0.447-1,1v6c0,0.553 0.448,1 1,1h6v-2h-5v-4h5zm-7,15v6c0,0.553 0.448,1 1,1h6v-2h-5v-4h5v-2h-6c-0.552,0-1,0.447-1,1z"/>
      </g>
    </g>
  </g>
</svg>
