<?xml version="1.0" encoding="utf-8"?>
<!-- Generator: Adobe Illustrator 21.0.2, SVG Export Plug-In . SVG Version: 6.00 Build 0)  -->
<svg version="1.1" id="Ebene_1" xmlns="http://www.w3.org/2000/svg" xmlns:xlink="http://www.w3.org/1999/xlink" x="0px" y="0px"
	 viewBox="0 0 2834.6 535.5" style="enable-background:new 0 0 2834.6 535.5;" xml:space="preserve">
<style type="text/css">
	.st0{fill:#E30613;}
	.st1{fill-rule:evenodd;clip-rule:evenodd;fill:#E30613;}
</style>
<g>
	<path class="st0" d="M427.9,421.5h47.9l-3.6,19.2h-27.1l-2.8,14.3h27.1l-3.8,19.1h-26.9l-2.8,14.7h26.9l-3.8,19.1h-47.9
		L427.9,421.5z"/>
	<path class="st0" d="M488.4,442.6H508l-12.7,65.2h-19.5L488.4,442.6z M492.5,421.5H512l-2.7,14h-19.5L492.5,421.5z"/>
	<path class="st0" d="M536.8,450.2c4.5-6,10.4-8.7,18-8.7c12.6,0,19.7,7.2,19.7,20.8c0,3.4-0.5,8.9-1.8,16l-5.7,29.6h-19.2l6.4-34.5
		c0.5-2.7,0.8-4.9,0.8-6.8c0-5.6-2.3-8.4-6.9-8.4c-7.4,0-13,5.8-15,16.9l-6.1,32.8h-18.7l12.5-65.2h17.4L536.8,450.2z"/>
	<path class="st0" d="M593.3,456.7h-9.3l2.9-14.1h9.1c3.3-16.1,11.5-22.6,28-22.6c2.3,0,5.3,0.1,9.2,0.4l-2.8,14.1
		c-1.6-0.2-3-0.2-4.4-0.2c-7.4,0-11.7,2.8-12.6,8.4h11.9l-2.8,14.1h-10l-10,51.1h-19.3L593.3,456.7z"/>
	<path class="st0" d="M703.2,442.6l-12.6,65.2h-19.2l1.1-5.7c-4.5,5.1-9.8,7.4-16.6,7.4c-17.2,0-28.8-12.3-28.8-30.3
		c0-22.1,15.3-38.4,36.5-38.4c8.1,0,14.3,2.7,19.2,8.3l1.2-6.4H703.2z M648,476.4c0,8.7,5.3,14.6,13,14.6c9.6,0,16.5-8,16.5-18.8
		c0-8.6-5.3-14.3-13.2-14.3C655.3,457.8,648,465.9,648,476.4z"/>
	<path class="st0" d="M753.3,466.8c-2.3-5.1-6.6-7.8-12.5-7.8c-8.9,0-16,7.4-16,18.3c0,8.3,5.5,14.2,13.4,14.2
		c5.9,0,11.2-3.2,14.4-9.1h19.5c-5.1,17.1-18.1,27.2-34.7,27.2c-18.6,0-31.6-13.1-31.6-31.6c0-11,4.5-21.2,12.6-28.5
		c6.3-5.6,14.3-8.6,23.3-8.6c16.4,0,27.8,9.3,31.2,25.9H753.3z"/>
	<path class="st0" d="M806,449.4c4-5.3,9.7-8,17.1-8c12.6,0,19.7,7.2,19.7,20.8c0,3.4-0.5,8.9-1.8,16l-5.7,29.6H816l6.4-34.5
		c0.5-2.7,0.8-4.9,0.8-6.8c0-5.6-2.3-8.4-6.9-8.4c-7.4,0-13,5.8-15,16.9l-6.1,32.8h-18.7l16.9-86.3h18.4L806,449.4z"/>
	<path class="st0" d="M963.7,442.6L951,507.8c-3.5,17.8-16.1,27.6-35.2,27.6c-18.6,0-28.6-7.6-28.6-20.6c0-0.1,0-0.4,0-0.5h19.9
		c2.2,3.9,5.5,5.8,9.6,5.8c9.7,0,14.3-5.6,16.1-18c-4.5,5.1-9.7,7.4-16.5,7.4c-17.2,0-28.8-12.3-28.8-30.3
		c0-22.1,15.3-38.4,36.5-38.4c8.1,0,14.2,2.7,19.1,8.3l1.2-6.4H963.7z M908.3,476.4c0,8.7,5.5,14.6,13.1,14.6
		c9.6,0,16.5-8,16.5-18.8c0-8.6-5.5-14.3-13.4-14.3C915.6,457.8,908.3,465.9,908.3,476.4z"/>
	<path class="st0" d="M997.1,509.5c-18.3,0-31.3-13.1-31.3-31.4c0-11,4.5-21.2,12.6-28.5c6.3-5.6,14.3-8.6,23.4-8.6
		c18.4,0,31.6,13.1,31.6,31c0,2.4-0.4,5.3-1,8.7H985c1.6,6.8,6.6,10.9,12.9,10.9c4.4,0,8.1-1.7,11.5-5.1h21.4
		C1023.9,501.7,1012.6,509.5,997.1,509.5z M1000.7,458.3c-5.6,0-10.2,3-13.7,9.1h26.7C1011.5,461.6,1006.8,458.3,1000.7,458.3z"/>
	<path class="st0" d="M1055.1,488.1c0,0.1,0,0.2,0,0.4c0,3.9,2.2,5.8,6.2,5.8c4.2,0,6.6-1.7,6.6-4.7c0-3.8-4-5.1-10.3-7.8
		c-10.1-4.2-15.2-9-15.2-18.5c0-12.6,10.2-22.6,25.4-22.6c14.1,0,22.1,7.3,22.1,19.5c0,0.7,0,1.3,0,1.9h-16.3c0-0.4,0-0.7,0-1.1
		c0-3.9-2.4-6.3-6.2-6.3c-3.3,0-5.8,2.3-5.8,5.2c0,4,3.5,5.3,9.3,7.9c10.8,4.7,16.5,8.4,16.5,18.3c0,12.9-11,23.1-27.9,23.1
		c-13.7,0-22.8-7.9-22.8-19.3c0-0.6,0.1-1.3,0.1-1.9H1055.1z"/>
	<path class="st0" d="M1134.5,500.3c-4.5,6-10.4,8.7-18,8.7c-12.6,0-19.7-7.2-19.7-20.8c0-3.4,0.5-9,1.8-16.1l5.7-29.5h19.2
		l-6.4,34.5c-0.5,2.7-0.8,4.9-0.8,6.8c0,5.6,2.3,8.4,6.9,8.4c7.4,0,13-5.8,15-16.9l6.1-32.8h18.6l-12.4,65.2h-17.4L1134.5,500.3z"/>
	<path class="st0" d="M1192.9,450.2c4.5-6,10.4-8.7,18-8.7c12.6,0,19.7,7.2,19.7,20.8c0,3.4-0.5,8.9-1.8,16l-5.7,29.6h-19.2
		l6.4-34.5c0.5-2.7,0.9-4.9,0.9-6.8c0-5.6-2.3-8.4-6.9-8.4c-7.4,0-13,5.8-15,16.9l-6.1,32.8h-18.7l12.5-65.2h17.4L1192.9,450.2z"/>
	<path class="st0" d="M1283.1,507.8l1.1-4.4c-5.9,3.8-11.3,5.7-17.1,5.7c-15.9,0-28-13-28-31.2c0-9.7,3.5-18.9,10.1-26.2
		c6.4-7.2,14.7-10.8,24.8-10.8c7.8,0,14.2,1.9,19.9,6.6l5.7-26h18.2l-16.6,86.3H1283.1z M1275.3,458.9c-9.2,0-16.5,7.9-16.5,18.2
		c0,8.5,5.7,14.3,13.6,14.3c9.1,0,16.3-7.5,16.3-18.4C1288.7,464.7,1283.1,458.9,1275.3,458.9z"/>
	<path class="st0" d="M1369.1,488.1c0,0.1,0,0.2,0,0.4c0,3.9,2.2,5.8,6.2,5.8c4.2,0,6.6-1.7,6.6-4.7c0-3.8-4-5.1-10.3-7.8
		c-10.1-4.2-15.2-9-15.2-18.5c0-12.6,10.2-22.6,25.4-22.6c14.1,0,22.1,7.3,22.1,19.5c0,0.7,0,1.3,0,1.9h-16.3c0-0.4,0-0.7,0-1.1
		c0-3.9-2.4-6.3-6.2-6.3c-3.3,0-5.8,2.3-5.8,5.2c0,4,3.5,5.3,9.3,7.9c10.8,4.7,16.5,8.4,16.5,18.3c0,12.9-11,23.1-27.9,23.1
		c-13.7,0-22.8-7.9-22.8-19.3c0-0.6,0.1-1.3,0.1-1.9H1369.1z"/>
	<path class="st0" d="M1441.1,509.5c-18.3,0-31.3-13.1-31.3-31.4c0-11,4.5-21.2,12.6-28.5c6.3-5.6,14.3-8.6,23.4-8.6
		c18.5,0,31.6,13.1,31.6,31c0,2.4-0.4,5.3-1,8.7H1429c1.6,6.8,6.6,10.9,12.9,10.9c4.4,0,8.1-1.7,11.5-5.1h21.4
		C1467.9,501.7,1456.6,509.5,1441.1,509.5z M1444.7,458.3c-5.6,0-10.2,3-13.7,9.1h26.7C1455.5,461.6,1450.8,458.3,1444.7,458.3z"/>
	<path class="st0" d="M1493.7,442.6h19.7l-12.7,65.2h-19.5L1493.7,442.6z M1497.9,421.5h19.5l-2.7,14h-19.5L1497.9,421.5z"/>
	<path class="st0" d="M1542.2,450.2c4.5-6,10.4-8.7,18-8.7c12.6,0,19.7,7.2,19.7,20.8c0,3.4-0.5,8.9-1.8,16l-5.7,29.6h-19.2
		l6.4-34.5c0.5-2.7,0.9-4.9,0.9-6.8c0-5.6-2.3-8.4-6.9-8.4c-7.4,0-13,5.8-15,16.9l-6.1,32.8h-18.7l12.5-65.2h17.4L1542.2,450.2z"/>
	<path class="st0" d="M1591,487.9h19.8l-3.9,19.9h-19.8L1591,487.9z"/>
</g>
<path class="st1" d="M979.1,187.5c23.9,0,41.6,11.5,51.2,33.5h48.9c-10-49.2-48.1-78.5-99.3-78.5c-28.1,0-53.5,9.2-73.1,26.9
	c-14.9,13.4-25.9,29.8-32.6,48.1l26.6-137h-4.4h-65.4h-4.4L676.9,280.9l20.2-200.3h-4.4h-62.9h-4.4L437.6,354.1h4.4h49.1h4.4
	l143.9-213.3l-25.2,213.3h4.4h53.7h4.4l159.1-213.2l-42.5,213.2h4.4h45.6h4.4l19.2-99c-0.1,1.6-0.1,3.2-0.1,4.8
	c0,58.5,41.2,99.6,100,99.6c51.6,0,91.2-28.5,107.7-77.7h-51.2c-12.7,21.5-31.2,32.7-54.2,32.7c-32.3,0-54.6-22.7-54.6-55.4
	C914.4,216.4,941.8,187.5,979.1,187.5z"/>
<path class="st1" d="M1475.3,141.4c-0.4,0-1.2,0-1.5,0c-30.8,0-53.1,10.4-70.8,33.5l5.4-27.3h-43.9l-40,206.6h50l20.4-104.3
	c8.5-42.7,24.2-59.3,71.2-60L1475.3,141.4z"/>
<path class="st1" d="M2219.9,141.4c-0.4,0-1.2,0-1.5,0c-30.8,0-53.1,10.4-70.8,33.5l5.4-27.3h-43.9l-40,206.6h50l20.4-104.3
	c8.5-42.7,24.2-59.3,71.2-60L2219.9,141.4z"/>
<polygon class="st1" points="2287,80.6 2239.2,80.6 2230.4,125.6 2278.1,125.6 "/>
<path class="st1" d="M2355.6,314.5c-28.5,0-46.9-15.8-53.1-46.2H2466c1.5-10.8,2.3-19.6,2.3-26.9c0-58.5-41.2-99.3-100-99.3
	c-28.9,0-54.2,9.6-73.9,27.3c-17.5,15.6-29.8,35.5-35.9,57.6l15.4-79.5h-47.7l-40,206.6h47.7l20.9-108c-0.5,4.5-0.8,9.1-0.8,13.7
	c0,58.1,41.6,100,99.6,100c48.9,0,86.6-25,105.4-70.8H2406C2392.5,306.4,2376,314.5,2355.6,314.5z M2364.4,187.1
	c28.5,0,48.5,15,55.4,40.8h-112.3C2317.5,202.1,2339,187.1,2364.4,187.1z"/>
<path class="st1" d="M2023.1,289.1c-13.5,17.3-30,25.4-50.4,25.4c-28.5,0-46.9-15.8-53.1-46.2h163.5c1.5-10.8,2.3-19.6,2.3-26.9
	c0-58.5-41.2-99.3-100-99.3c-28.9,0-54.2,9.6-73.9,27.3c-16.8,15.1-28.8,34-35.2,55.1l15.4-77.1h-49.2l-5,26.5
	c-17.7-20.4-41.6-31.2-68.9-31.2c-36.6,0-67.7,15.8-88.5,44.6c-7.7,10.7-13.4,21.9-17.3,33.5c-8.3-47.4-46.4-79.7-98.3-79.7
	c-28.9,0-54.2,9.2-74.3,26.9c-26.5,23.5-40.8,55.8-40.8,91.6c0,57.7,41.2,99.6,99.6,99.6c32.3,0,61.2-11.5,81.6-32.7
	c13.1-13.5,22.5-29.8,28-47.6c8.1,49,44.8,79.9,94.5,79.9c21.5,0,38.9-6.2,53.1-19.2c-5.8,38.9-21.2,54.2-55.8,54.2
	c-25.4,0-42.3-8.8-51.2-26.5h-49.6c6.2,39.6,45,66.9,98.1,66.9c59.3,0,91.2-25,102-77.7l21.9-109.5c-0.4,4.1-0.6,8.3-0.6,12.5
	c0,58.1,41.6,100,99.6,100c48.9,0,86.6-25,105.4-70.8H2023.1z M1981.6,187.1c28.5,0,48.5,15,55.4,40.8h-112.3
	C1934.7,202.1,1956.2,187.1,1981.6,187.1z M1551.2,314.1c-31.5,0-53.5-22.7-53.5-55c0-43.1,28.5-72.7,63.9-72.7
	c33.5,0,55.8,22.7,55.8,56.6C1617.4,283.7,1587.7,314.1,1551.2,314.1z M1759.1,314.5c-32.7,0-54.2-23.1-54.2-57.3
	c0-40,30.8-70.8,65.8-70.8c30.4,0,53.5,22.7,53.5,56.2C1824.1,284.1,1794.5,314.5,1759.1,314.5z"/>
<path class="st1" d="M1214.7,80.6h-80l-52.7,273.6h102.7c94.6,0,156.2-61.6,156.2-154.7C1340.9,124.8,1295.5,80.6,1214.7,80.6z
	 M1173.1,311h-29.2l36.6-186.6h22.7c52.3,0,81.9,29.2,81.9,79.6C1285.1,266.8,1238.5,311,1173.1,311z"/>
<polygon class="st1" points="2464.5,359.9 2501.9,359.9 2509.7,319.7 2472.2,319.7 "/>
<path class="st1" d="M2777.1,196.2c-13.8,0-26.4,4.5-38.1,14.1l12.6-63.6h-37.5l-30.4,156.8H2648c-9.9,16.8-24.3,25.5-42.3,25.5
	c-25.2,0-42.6-17.7-42.6-43.2c0-33.3,21.3-55.8,50.4-55.8c18.6,0,32.4,9,39.9,26.1h38.1c-7.8-38.4-37.5-61.2-77.4-61.2
	c-21.9,0-41.7,7.2-57,21c-20.1,18-31.2,43.2-31.2,70.5c0,45.6,32.1,77.7,78,77.7c33.8,0,60.9-15.7,76.4-43.5l-7.6,39.3h37.5l15.6-81
	c6.6-33.3,19.8-49.8,44.1-49.8c16.5,0,25.2,9,25.2,26.1c0,5.7-0.6,12.3-2.1,19.5l-16.5,85.2h38.7l14.1-73.2
	c3.9-20.1,5.4-32.7,5.4-38.1C2834.6,214.5,2814.9,196.2,2777.1,196.2z"/>
<path class="st1" d="M199.7,0.1C89.4,0.1,0,89.5,0,199.9c0,110.3,89.4,199.7,199.7,199.7c110.3,0,199.7-89.4,199.7-199.7
	C399.5,89.5,310.1,0.1,199.7,0.1z M320.4,236.5h-83.9v83.9H163v-83.9H79.1v-73.4H163V79.3h73.4v83.9h83.9V236.5z"/>
</svg>
