<?xml version="1.0" encoding="utf-8"?>
<!-- Generator: Adobe Illustrator 22.0.0, SVG Export Plug-In . SVG Version: 6.00 Build 0)  -->
<svg version="1.1" id="Layer_1" xmlns="http://www.w3.org/2000/svg" xmlns:xlink="http://www.w3.org/1999/xlink" x="0px" y="0px"
	 viewBox="0 0 209.8 128" style="enable-background:new 0 0 209.8 128;" xml:space="preserve">
<style type="text/css">
	.st0{fill:none;stroke:#5C6783;stroke-width:3;stroke-linecap:round;stroke-linejoin:round;}
	.st1{fill:#87DEE8;}
	.st2{fill:#A08AC9;}
	.st3{fill:#D7F4F7;}
</style>
<g id="bridge" transform="translate(265.000000, 371.000000)">
	<path id="Line-3" class="st0" d="M-200-318.3v42.4"/>
	<path id="Line-3_1_" class="st0" d="M-211.4-326.9v51"/>
	<path id="Line-3_2_" class="st0" d="M-188.6-312.9v37"/>
	<path id="Line-3_3_" class="st0" d="M-177.2-310.2v34.3"/>
	<path id="Line-3_4_" class="st0" d="M-165.8-307.8v31.9"/>
	<path id="Line-3_5_" class="st0" d="M-154.5-309.1l0.1,33.2"/>
	<path id="Line-3_6_" class="st0" d="M-143-310.7v34.8"/>
	<path id="Line-3_7_" class="st0" d="M-131.6-312.9v37"/>
	<path id="Line-3_8_" class="st0" d="M-120.2-318.3v42.4"/>
	<path id="Line-3_9_" class="st0" d="M-108.8-326.9v51"/>
	<polygon id="Rectangle-16" class="st1" points="-233.6,-368 -223.6,-368 -223.6,-246 -261.6,-246 	"/>
	<polygon id="Rectangle-16_1_" class="st2" points="-228.6,-368 -223.6,-368 -223.6,-246 -242.6,-246 	"/>
	<path id="Rectangle-16_2_" class="st0" d="M-234.8-369.5h12.7v125h-41.4L-234.8-369.5z"/>
	<g id="Rectangle-16_3_">
		<g>
			<rect id="path-18" x="-260.6" y="-273" class="st3" width="42" height="5"/>
		</g>
		<rect x="-262.1" y="-274.5" class="st0" width="45" height="8"/>
	</g>
	<polygon id="Rectangle-16_4_" class="st1" points="-96.6,-368 -86.6,-368 -58.6,-246 -96.6,-246 	"/>
	<polygon id="Rectangle-16_5_" class="st2" points="-91.6,-368 -86.6,-368 -58.6,-246 -77.6,-246 	"/>
	<path id="Rectangle-16_6_" class="st0" d="M-98.1-369.5h12.7l28.7,125h-41.4V-369.5L-98.1-369.5z"/>
	<g id="Rectangle-16_7_">
		<g>
			<rect id="path-19" x="-101.6" y="-273" class="st3" width="42" height="5"/>
		</g>
		<rect x="-103.1" y="-274.5" class="st0" width="45" height="8"/>
	</g>
	<path id="Oval_4_" class="st0" d="M-222-351.6c0,24.1,27.5,42,61.5,42c33.9,0,62.5-17.9,62.5-42"/>
</g>
</svg>
