<?xml version="1.0" encoding="utf-8"?>
<!-- Generator: Adobe Illustrator 22.0.0, SVG Export Plug-In . SVG Version: 6.00 Build 0)  -->
<svg version="1.1" id="Layer_1" xmlns="http://www.w3.org/2000/svg" xmlns:xlink="http://www.w3.org/1999/xlink" x="0px" y="0px"
	 viewBox="0 0 223.8 160.5" style="enable-background:new 0 0 223.8 160.5;" xml:space="preserve">
<style type="text/css">
	.st0{fill:#87DEE8;}
	.st1{fill:#A08AC9;}
	.st2{fill:none;stroke:#5C6783;stroke-width:3;stroke-linecap:round;stroke-linejoin:round;}
	.st3{fill:#FFFFFF;stroke:#5C6783;stroke-width:3;stroke-linecap:round;stroke-linejoin:round;}
	.st4{fill:#FFDB03;stroke:#5C6783;stroke-width:3;}
	.st5{fill:none;stroke:#5C6783;stroke-width:3;}
</style>
<g>
	<g>
		<rect x="1.5" y="1.5" class="st0" width="38.9" height="157.5"/>
	</g>
	<g>
		<rect x="26.7" y="1.5" class="st1" width="13.6" height="157.5"/>
	</g>
	<g>
		<rect x="1.5" y="1.5" class="st2" width="38.9" height="157.5"/>
	</g>
	<line class="st3" x1="15.1" y1="25.6" x2="15.1" y2="78.1"/>
	<line class="st3" x1="26.7" y1="25.6" x2="26.7" y2="78.1"/>
	<g>
		<rect x="183.5" y="1.5" class="st0" width="38.9" height="157.5"/>
	</g>
	<g>
		<rect x="208.7" y="1.5" class="st1" width="13.6" height="157.5"/>
	</g>
	<g>
		<rect x="183.5" y="1.5" class="st2" width="38.9" height="157.5"/>
	</g>
	<line class="st3" x1="197.1" y1="25.6" x2="197.1" y2="78.1"/>
	<line class="st3" x1="208.7" y1="25.6" x2="208.7" y2="78.1"/>
	<line class="st3" x1="40.4" y1="11.8" x2="1.5" y2="11.8"/>
	<line class="st3" x1="222.1" y1="11.8" x2="184.3" y2="11.8"/>
	<g>
		<rect x="40.4" y="17.4" class="st2" width="143.1" height="126.2"/>
	</g>
	<line class="st3" x1="54" y1="41.4" x2="54" y2="84.4"/>
	<line class="st3" x1="77.1" y1="41.4" x2="77.1" y2="88.5"/>
	<line class="st3" x1="65.6" y1="41.4" x2="65.6" y2="84.4"/>
	<line class="st3" x1="88.7" y1="41.4" x2="88.7" y2="93.9"/>
	<line class="st3" x1="123.5" y1="41.4" x2="123.5" y2="84.4"/>
	<line class="st3" x1="146.6" y1="41.4" x2="146.6" y2="88.5"/>
	<line class="st3" x1="169.8" y1="41.4" x2="169.8" y2="84.4"/>
	<line class="st3" x1="135.1" y1="41.4" x2="135.1" y2="93.9"/>
	<line class="st3" x1="158.2" y1="41.4" x2="158.2" y2="84.4"/>
	<line class="st3" x1="111.9" y1="41.4" x2="111.9" y2="79.2"/>
	<line class="st3" x1="100.3" y1="41.4" x2="100.3" y2="84.4"/>
	<line class="st3" x1="183.5" y1="27.7" x2="40.4" y2="27.7"/>
	<path class="st3" d="M190,103.6l-26-15.1l-26,15.1l-26-15.1l-26,15.1l-26-15.1l-26,15.1H23.2c-1.3,0-2.3,1-2.3,2.3V159h12.9h26h26
		h26h26h26h26h12.9v-53.1c0-1.3-1-2.3-2.3-2.3H190z"/>
	<circle class="st2" cx="59.9" cy="107.4" r="4.7"/>
	<circle class="st4" cx="111.9" cy="107.4" r="4.7"/>
	<circle class="st2" cx="164.2" cy="107.4" r="4.7"/>
	<line class="st2" x1="85.9" y1="159" x2="85.9" y2="136.5"/>
	<line class="st2" x1="137.9" y1="159" x2="137.9" y2="136.5"/>
	<g id="entrance_1_" transform="translate(579.000000, 411.000000)">
		<g id="Rectangle-15_3_">
			<g>
				<path id="path-25_1_" class="st0" d="M-519.1-286.4L-519.1-286.4L-519.1-286.4c7.4,0,13.4,6,13.4,13.4v21.8h-26.9V-273l0,0
					C-532.6-280.4-526.5-286.4-519.1-286.4z"/>
			</g>
			<path class="st5" d="M-531.6-252.2h25V-273c0-6.9-5.6-12.5-12.5-12.5s-12.5,5.6-12.5,12.5V-252.2z"/>
		</g>
		<g id="Rectangle-15_2_">
			<g>
				<path id="path-26_1_" class="st1" d="M-514-280.7L-514-280.7L-514-280.7c4.6,0,8.3,3.7,8.3,8.3v21.1h-16.6v-21.1l0,0
					C-522.3-276.9-518.6-280.7-514-280.7z"/>
			</g>
			<path class="st5" d="M-521.4-252.2h14.7v-20.2c0-4.1-3.3-7.4-7.4-7.4c-4.1,0-7.4,3.3-7.4,7.4V-252.2z"/>
		</g>
	</g>
	<g id="entrance_2_" transform="translate(579.000000, 411.000000)">
		<g id="Rectangle-15_5_">
			<g>
				<path id="path-25_2_" class="st0" d="M-467.1-286.4L-467.1-286.4L-467.1-286.4c7.4,0,13.4,6,13.4,13.4v21.8h-26.9V-273l0,0
					C-480.5-280.4-474.5-286.4-467.1-286.4z"/>
			</g>
			<path class="st5" d="M-479.6-252.2h25V-273c0-6.9-5.6-12.5-12.5-12.5c-6.9,0-12.5,5.6-12.5,12.5V-252.2z"/>
		</g>
		<g id="Rectangle-15_4_">
			<g>
				<path id="path-26_2_" class="st1" d="M-462-280.7L-462-280.7L-462-280.7c4.6,0,8.3,3.7,8.3,8.3v21.1h-16.6v-21.1l0,0
					C-470.3-276.9-466.6-280.7-462-280.7z"/>
			</g>
			<path class="st5" d="M-469.3-252.2h14.7v-20.2c0-4.1-3.3-7.4-7.4-7.4s-7.4,3.3-7.4,7.4V-252.2z"/>
		</g>
	</g>
	<g id="entrance_3_" transform="translate(579.000000, 411.000000)">
		<g id="Rectangle-15_7_">
			<g>
				<path id="path-25_3_" class="st0" d="M-414.8-286.4L-414.8-286.4L-414.8-286.4c7.4,0,13.4,6,13.4,13.4v21.8h-26.9V-273l0,0
					C-428.2-280.4-422.2-286.4-414.8-286.4z"/>
			</g>
			<path class="st5" d="M-427.3-252.2h25V-273c0-6.9-5.6-12.5-12.5-12.5c-6.9,0-12.5,5.6-12.5,12.5V-252.2z"/>
		</g>
		<g id="Rectangle-15_6_">
			<g>
				<path id="path-26_3_" class="st1" d="M-409.7-280.7L-409.7-280.7L-409.7-280.7c4.6,0,8.3,3.7,8.3,8.3v21.1H-418v-21.1l0,0
					C-418-276.9-414.3-280.7-409.7-280.7z"/>
			</g>
			<path class="st5" d="M-417-252.2h14.7v-20.2c0-4.1-3.3-7.4-7.4-7.4c-4.1,0-7.4,3.3-7.4,7.4V-252.2z"/>
		</g>
	</g>
</g>
</svg>
