<?xml version="1.0" encoding="utf-8"?>
<!-- Generator: Adobe Illustrator 22.0.0, SVG Export Plug-In . SVG Version: 6.00 Build 0)  -->
<svg version="1.1" id="Layer_1" xmlns="http://www.w3.org/2000/svg" xmlns:xlink="http://www.w3.org/1999/xlink" x="0px" y="0px"
	 viewBox="0 0 107.3 84.7" style="enable-background:new 0 0 107.3 84.7;" xml:space="preserve">
<style type="text/css">
	.st0{fill:#FFDB03;stroke:#5C6783;stroke-width:2;}
	.st1{fill:none;stroke:#5C6783;stroke-width:2;stroke-linecap:round;stroke-linejoin:round;}
	.st2{fill:#87DEE8;}
	.st3{fill:#A08AC9;}
	.st4{fill:#FFFFFF;stroke:#5C6783;stroke-width:2;stroke-linecap:round;stroke-linejoin:round;}
	.st5{fill:#D7F4F7;}
	.st6{fill:none;stroke:#5C6783;stroke-width:2;}
	.st7{fill:#FFFFFF;stroke:#5C6783;stroke-width:2;}
	.st8{fill:#D7F4F7;stroke:#5C6783;stroke-width:2;}
</style>
<path id="Rectangle-13_17_" class="st0" d="M82.6,6.3V4.1c0-1.7-1.4-3.1-3.1-3.1h-5.2c-1.7,0-3.1,1.4-3.1,3.1v2.4"/>
<line class="st1" x1="3.9" y1="46.5" x2="106.3" y2="46.5"/>
<polygon id="Path-3_8_" class="st2" points="65.5,15.4 65.5,6.7 86.9,6.7 86.9,54.8 65.5,54.8 "/>
<polygon id="Path-3_7_" class="st3" points="76.9,6.7 88.3,6.7 88.3,54.8 76.9,54.8 76.9,10.6 "/>
<polygon id="Path-2_10_" class="st4" points="86.6,55.1 1,55.1 1,83.7 106.3,83.7 106.3,55.1 "/>
<polygon id="Path-2_11_" class="st1" points="84.2,6.7 65.3,6.7 65.3,55.1 88.5,55.1 88.5,6.7 "/>
<polygon id="Path-2_12_" class="st4" points="78.8,15.4 73.9,15.4 73.9,46.5 79.9,46.5 79.9,15.4 "/>
<g id="window_2_" transform="translate(14.000000, 14.000000)">
	<g id="Rectangle-9_17_">
		<g>
			<rect id="path-2_2_" x="42.1" y="47.7" class="st5" width="9.2" height="15.4"/>
		</g>
		<rect x="43" y="48.6" class="st6" width="7.4" height="13.5"/>
	</g>
	<g id="Rectangle-9_18_">
		<g>
			<rect id="path-2_3_" x="26.6" y="47.7" class="st5" width="9.2" height="15.4"/>
		</g>
		<rect x="27.5" y="48.6" class="st6" width="7.4" height="13.5"/>
	</g>
	<g id="Rectangle-9_8_">
		<g>
			<rect id="path-3_2_" x="57.6" y="47.7" class="st5" width="9.2" height="15.4"/>
		</g>
		<rect x="58.5" y="48.6" class="st6" width="7.4" height="13.5"/>
	</g>
	<g id="Rectangle-9_21_">
		<g>
			<rect id="path-3_3_" x="73.1" y="47.7" class="st5" width="9.2" height="15.4"/>
		</g>
		<rect x="74" y="48.6" class="st6" width="7.4" height="13.5"/>
	</g>
	<g id="Rectangle-11_8_">
		<rect x="-6.2" y="48.6" class="st7" width="27" height="5.2"/>
	</g>
	<g id="Rectangle-11_9_">
		<rect x="-6.2" y="53.9" class="st7" width="27" height="5.2"/>
	</g>
	<g id="Rectangle-11_10_">
		<rect x="-6.2" y="59.2" class="st7" width="27" height="5.2"/>
	</g>
	<g id="Rectangle-11_11_">
		<rect x="-6.2" y="64.4" class="st7" width="27" height="5.2"/>
	</g>
</g>
<path id="Rectangle-13_12_" class="st8" d="M19.4,54.5v-14c0-2.9-2.3-5.2-5.2-5.2h0c-2.9,0-5.2,2.3-5.2,5.2v14.3h10.4V54.5z"/>
<g>
	<path id="Line-8_26_" class="st1" d="M13.6,50.4H8.9"/>
</g>
<g>
	<path id="Line-8_23_" class="st1" d="M13.6,42.8H8.9"/>
</g>
<path id="Rectangle-13_7_" class="st8" d="M34.8,54.5v-14c0-2.9-2.3-5.2-5.2-5.2h0c-2.9,0-5.2,2.3-5.2,5.2v14.3h10.4V54.5z"/>
<g>
	<path id="Line-8_25_" class="st1" d="M29,50.4h-4.6"/>
</g>
<g>
	<path id="Line-8_24_" class="st1" d="M29,42.8h-4.6"/>
</g>
<path id="Rectangle-13_16_" class="st8" d="M50.2,54.5v-14c0-2.9-2.3-5.2-5.2-5.2h0c-2.9,0-5.2,2.3-5.2,5.2v14.3h10.4V54.5z"/>
<path class="st1" d="M14.1,35.3v-4.7c0-2.8,2.3-5.1,5.1-5.1h46.1"/>
<line class="st1" x1="29.6" y1="35.3" x2="29.6" y2="25.5"/>
<g>
	<path id="Line-8_28_" class="st1" d="M44.4,50.4h-4.6"/>
</g>
<g>
	<path id="Line-8_27_" class="st1" d="M44.4,42.8h-4.6"/>
</g>
<line class="st1" x1="45" y1="35.3" x2="45" y2="25.5"/>
<line class="st1" x1="3.9" y1="46.5" x2="1" y2="46.5"/>
<line class="st1" x1="102" y1="46.5" x2="102" y2="54.8"/>
<line class="st1" x1="4.6" y1="46.5" x2="4.6" y2="54.8"/>
</svg>
