<?xml version="1.0" encoding="utf-8"?>
<!-- Generator: Adobe Illustrator 22.0.0, SVG Export Plug-In . SVG Version: 6.00 Build 0)  -->
<svg version="1.1" id="Layer_1" xmlns="http://www.w3.org/2000/svg" xmlns:xlink="http://www.w3.org/1999/xlink" x="0px" y="0px"
	 viewBox="0 0 651 505" style="enable-background:new 0 0 651 505;" xml:space="preserve">
<style type="text/css">
	.st0{fill:none;stroke:#5C6783;stroke-width:3;stroke-linecap:round;stroke-linejoin:round;}
	.st1{fill:#87DEE8;}
	.st2{fill:#A08AC9;}
	.st3{fill:none;stroke:#5C6783;stroke-width:3;stroke-linecap:round;}
	.st4{fill:#FFFFFF;}
	.st5{fill:none;stroke:#5C6783;stroke-width:3;}
	.st6{fill:#D7F4F7;}
	.st7{fill:#87DEE8;stroke:#5C6783;stroke-width:3;stroke-linecap:round;stroke-linejoin:round;}
	.st8{fill:#FFFFFF;stroke:#5C6783;stroke-width:3;}
	.st9{fill:#D7F4F7;stroke:#5C6783;stroke-width:3;stroke-linecap:square;}
	.st10{fill:#FFFFFF;stroke:#5C6783;stroke-width:3;stroke-linecap:round;stroke-linejoin:round;}
	.st11{fill:#A08AC9;stroke:#5C6783;stroke-width:3;stroke-linecap:round;stroke-linejoin:round;}
	.st12{fill:#D7F4F7;stroke:#5C6783;stroke-width:3;stroke-linecap:round;stroke-linejoin:round;}
	.st13{fill:#FFFFFF;stroke:#5C6783;stroke-width:3;stroke-linejoin:round;}
</style>
<g id="illustation" transform="translate(80.000000, 92.000000)">
	<path id="Rectangle" class="st0" d="M-12.5,80.5h475c33.1,0,60-26.9,60-60s-26.9-60-60-60h-346"/>
	<g id="plant" transform="translate(151.000000, 71.000000)">
		<path id="Rectangle-5" class="st1" d="M-136,8.4c28.3-34.5,41.3-85.1,39.3-151.9c23.6,0,38.5,0,62,0c-0.8,24.1,0.5,46.2,3.7,66.1
			c3.8,23.3,2.5,51.9-3.7,85.8C-34.7,8.4-136,8.4-136,8.4z"/>
		<path id="Rectangle-5_1_" class="st2" d="M5.5,8.4C-22.8-26-35.8-76.7-33.8-143.5c-23.6,0-2.7,0-26.3,0c0.4,12.6,0,107,0,151.9
			C-49.4,8.4-27.5,8.4,5.5,8.4z"/>
		<path id="Line-6" class="st0" d="M-94.4-134.9h58"/>
		<path id="Line-6_1_" class="st3" d="M-96-111.1h60.4"/>
		<path id="Rectangle-5_2_" class="st0" d="M-136,8.4c28.3-34.5,41.3-85.1,39.3-151.9c23.6,0,38.5,0,62,0
			c-0.8,24.1,0.5,46.2,3.7,66.1"/>
	</g>
	<g id="plant_1_" transform="translate(87.000000, 104.000000)">
		<path id="Rectangle-5_3_" class="st0" d="M-136-37.5c19.7-24,28.9-59.4,27.4-106c16.4,0,26.8,0,43.3,0
			c-1.1,34.3,3.7,62.6,14.2,84.9"/>
		<path id="Line-6_2_" class="st3" d="M-108.3-117.3h42.1"/>
		<path id="Line-6_3_" class="st3" d="M-108.3-135.3h42.1"/>
	</g>
	<g id="building" transform="translate(210.000000, 173.000000)">
		<g id="Rectangle-6">
			<g>
				<polygon id="path-1" class="st4" points="-136.5,-143.5 31.5,-143.5 31.5,-91.5 -136.5,-91.5 				"/>
			</g>
			<path class="st5" d="M-135-142v49H30v-49H-135z"/>
		</g>
		<g id="window" transform="translate(14.000000, 14.000000)">
			<rect id="Rectangle-9" x="-136.5" y="-143.5" class="st1" width="65" height="38"/>
			<polygon id="Rectangle-9_1_" class="st2" points="-136.5,-141.5 -71.5,-141.5 -71.5,-105.5 			"/>
			<rect id="Rectangle-9_2_" x="-135" y="-131" class="st5" width="62" height="12"/>
			<rect id="Rectangle-9_3_" x="-135" y="-119" class="st5" width="62" height="12"/>
			<rect id="Rectangle-9_4_" x="-135" y="-142" class="st5" width="62" height="11"/>
			<g id="Rectangle-9_5_">
				<g>
					<rect id="path-2" x="-61.5" y="-143.5" class="st6" width="15" height="25"/>
				</g>
				<rect x="-60" y="-142" class="st5" width="12" height="22"/>
			</g>
			<g id="Rectangle-9_6_">
				<g>
					<rect id="path-3" x="-36.5" y="-143.5" class="st6" width="15" height="25"/>
				</g>
				<rect x="-35" y="-142" class="st5" width="12" height="22"/>
			</g>
			<g id="Rectangle-9_7_">
				<g>
					<rect id="path-4" x="-11.5" y="-143.5" class="st6" width="15" height="25"/>
				</g>
				<rect x="-10" y="-142" class="st5" width="12" height="22"/>
			</g>
		</g>
	</g>
	<g id="generator" transform="translate(297.000000, 112.000000)">
		<g id="Rectangle-7">
			<g>
				<path id="path-5" class="st6" d="M-113.5-143.5h25l0,0c8.8,0,16,7.2,16,16v48h-57v-48l0,0C-129.5-136.3-122.3-143.5-113.5-143.5
					z"/>
			</g>
			<path class="st5" d="M-128-81h54v-46.5c0-8-6.5-14.5-14.5-14.5h-25c-8,0-14.5,6.5-14.5,14.5V-81z"/>
		</g>
		<g id="Rectangle-8">
			<g>
				<path id="path-6" class="st4" d="M-131.7-129.5h61.4c2.7,0,4.8,2.1,4.8,4.8v2.4c0,2.7-2.1,4.8-4.8,4.8h-61.4
					c-2.7,0-4.8-2.1-4.8-4.8v-2.4C-136.5-127.4-134.4-129.5-131.7-129.5z"/>
			</g>
			<path class="st5" d="M-130.5-128h59c2.5,0,4.5,2,4.5,4.5l0,0c0,2.5-2,4.5-4.5,4.5h-59c-2.5,0-4.5-2-4.5-4.5l0,0
				C-135-126-133-128-130.5-128z"/>
		</g>
		<g id="Rectangle-8_1_">
			<g>
				<path id="path-7" class="st4" d="M-131.7-105.5h61.4c2.7,0,4.8,2.1,4.8,4.8v2.4c0,2.7-2.1,4.8-4.8,4.8h-61.4
					c-2.7,0-4.8-2.1-4.8-4.8v-2.4C-136.5-103.4-134.4-105.5-131.7-105.5z"/>
			</g>
			<path class="st5" d="M-130.5-104h59c2.5,0,4.5,2,4.5,4.5l0,0c0,2.5-2,4.5-4.5,4.5h-59c-2.5,0-4.5-2-4.5-4.5l0,0
				C-135-102-133-104-130.5-104z"/>
		</g>
	</g>
	<g id="generator_1_" transform="translate(220.000000, 135.000000)">
		<g id="Rectangle-7_1_">
			<g>
				<path id="path-8" class="st6" d="M-113.5-143.5h25l0,0c8.8,0,16,7.2,16,16v25h-57v-25l0,0C-129.5-136.3-122.3-143.5-113.5-143.5
					z"/>
			</g>
			<path class="st5" d="M-128-104h54v-23.5c0-8-6.5-14.5-14.5-14.5h-25c-8,0-14.5,6.5-14.5,14.5V-104z"/>
		</g>
		<g id="Rectangle-8_2_">
			<g>
				<path id="path-9" class="st4" d="M-131.7-128.5h61.4l0,0c2.7,0,4.8,2.1,4.8,4.8v2.4l0,0c0,2.7-2.1,4.8-4.8,4.8h-61.4l0,0
					c-2.7,0-4.8-2.1-4.8-4.8v-2.4l0,0C-136.5-126.4-134.4-128.5-131.7-128.5z"/>
			</g>
			<path class="st5" d="M-131.7-127c-1.8,0-3.3,1.5-3.3,3.3v2.4c0,1.8,1.5,3.3,3.3,3.3h61.4c1.8,0,3.3-1.5,3.3-3.3v-2.4
				c0-1.8-1.5-3.3-3.3-3.3H-131.7z"/>
		</g>
	</g>
	<g id="plant_2_" transform="translate(358.000000, 0.000000)">
		<path id="Rectangle-5_4_" class="st7" d="M-108.5,80.5c20.8-35.2,22.5-102.8,21-171c17.4,0-9.3,0,8.1,0
			c-1.5,67.6,0.1,135.3,21,171H-108.5z"/>
		<path id="Rectangle-5_5_" class="st2" d="M-83.5-90.5c4,0,4,0,4,0c-1.5,67.6,0.1,135.3,21,171c-11.3,0-19.6,0-25,0
			C-83.3,70.5-83.5-70.5-83.5-90.5z"/>
		<path id="Rectangle-5_6_" class="st0" d="M-108.5,80.5c20.8-35.2,22.5-102.8,21-171c17.4,0-9.3,0,8.1,0
			c-1.5,67.6,0.1,135.3,21,171H-108.5z"/>
	</g>
	<g id="tree" transform="translate(386.000000, 174.000000)">
		<path id="Triangle" class="st8" d="M-116.1-138.7l7.4,21.6l0,0c1.2,3.3-0.6,7-4,8.1c-0.7,0.2-1.4,0.3-2.1,0.3h-14.9l0,0
			c-3.5,0-6.4-2.9-6.4-6.4c0-0.7,0.1-1.4,0.3-2.1l7.4-21.6l0,0c1.2-3.3,4.8-5.1,8.1-4C-118.2-142.1-116.7-140.6-116.1-138.7z"/>
		<path id="Line-5" class="st3" d="M-122.5-127.9v33.6"/>
	</g>
	<polygon id="Line-7" class="st9" points="30.5,140.5 361.5,140.5 361.5,200.5 30.5,200.5 	"/>
	<g id="arc" transform="translate(201.000000, 302.000000)">
		<path id="Oval" class="st10" d="M-136.5-101.5c0-23.2,19-42,42.5-42s42.5,18.8,42.5,42H-136.5z"/>
		<path id="Oval_1_" class="st11" d="M-86.5-142.5c-18.4,4.5-32,21.1-32,41h-18c0-23.2,19-42,42.5-42
			C-92.1-143.5-89.6-143.2-86.5-142.5z"/>
	</g>
	<g id="arc_1_" transform="translate(450.000000, 302.000000)">
		<path id="Oval_2_" class="st10" d="M-136.5-101.5c0-23.2,19-42,42.5-42s42.5,18.8,42.5,42H-136.5z"/>
		<path id="Oval_3_" class="st11" d="M-86.5-142.5c-18.4,4.5-32,21.1-32,41h-18c0-23.2,19-42,42.5-42
			C-92.1-143.5-89.6-143.2-86.5-142.5z"/>
	</g>
	<path id="Rectangle_1_" class="st0" d="M-12.5,320.5h510c33.1,0,60-26.9,60-60s-26.9-60-60-60h-510"/>
	<path id="Rectangle_2_" class="st0" d="M198.5,351.5h151.1c16.5,0,29.9-13.4,29.9-30"/>
	<path id="Rectangle_3_" class="st0" d="M309.5,411.5H127.4c-16.5,0-29.9-13.4-29.9-30s13.4-30,29.9-30h182.1"/>
	<g id="sea" transform="translate(162.000000, 476.000000)">
		<path id="vawe" class="st3" d="M46.5-81.5c3.6,0,3.6-5,7.2-5c3.6,0,3.6,5,7.2,5c3.6,0,3.6-5,7.2-5s3.6,5,7.2,5s3.6-5,7.2-5
			s3.6,5,7.2,5"/>
		<path id="vawe_1_" class="st3" d="M-40.5-101.5c3.6,0,3.6-5,7.2-5s3.6,5,7.2,5s3.6-5,7.2-5s3.6,5,7.2,5s3.6-5,7.2-5s3.6,5,7.2,5"
			/>
		<path id="vawe_2_" class="st3" d="M136.5-101.5c3.6,0,3.6-5,7.2-5c3.6,0,3.6,5,7.2,5c3.6,0,3.6-5,7.2-5s3.6,5,7.2,5
			c3.6,0,3.6-5,7.2-5c3.6,0,3.6,5,7.2,5"/>
		<path id="vawe_3_" class="st3" d="M240.5-124.5c3.6,0,3.6-5,7.2-5c3.6,0,3.6,5,7.2,5c3.6,0,3.6-5,7.2-5s3.6,5,7.2,5s3.6-5,7.2-5
			s3.6,5,7.2,5"/>
		<path id="vawe_4_" class="st3" d="M-136.5-124.5c3.6,0,3.6-5,7.2-5c3.6,0,3.6,5,7.2,5s3.6-5,7.2-5s3.6,5,7.2,5s3.6-5,7.2-5
			s3.6,5,7.2,5"/>
	</g>
	<g id="building_1_" transform="translate(607.000000, 255.000000)">
		<polygon id="Path-2" class="st1" points="-136.5,-83.5 -92.5,-83.5 -92.5,-115.5 -115.1,-143.5 -136.5,-143.5 		"/>
		<path id="Path-2_1_" class="st2" d="M-114.5-83.5h22v-32l-22.6-28h-21.4c14.7,16.9,22,26.9,22,30S-114.5-100.4-114.5-83.5z"/>
		<polygon id="Path-2_2_" class="st0" points="-136.5,-83.5 -92.5,-83.5 -92.5,-115.5 -115.1,-143.5 -136.5,-143.5 		"/>
		<path id="Line-8" class="st0" d="M-134.4-83.3h49.6"/>
		<path id="Line-8_1_" class="st0" d="M-134.4-95h29.6"/>
		<path id="Line-8_2_" class="st0" d="M-134.4-107.2h29.6"/>
		<path id="Line-8_3_" class="st0" d="M-134.4-119.4h22.5"/>
		<path id="Line-8_4_" class="st0" d="M-134.4-131.6h12.6"/>
	</g>
	<g id="building_2_" transform="translate(446.000000, 69.000000)">
		<path id="Rectangle-13" class="st8" d="M-17.2-47.1v-67.1c0-6.2,5-11.2,11.2-11.2h0.3c6.2,0,11.2,5,11.2,11.2v65.5"/>
		<path id="Rectangle-13_1_" class="st5" d="M-51.2-89.7h0.4c6.2,0,11.2,5,11.2,11.2V-58"/>
		<path id="Rectangle-13_2_" class="st1" d="M-100.3-64.2v-68.1c0-6.2,5-11.2,11.2-11.2h25.7c6.2,0,11.2,5,11.2,11.2v67.7"/>
		<path id="Rectangle-13_3_" class="st2" d="M-68.5-65.6c0-35.2,0-57.2,0-65.9c0-10.8-14-11-14-11s6.3,0,19,0
			c6.2,0,11.2,5,11.2,11.2l0.1,65.7C-67.2-65.6-72.6-65.6-68.5-65.6z"/>
		<path id="Rectangle-13_4_" class="st5" d="M-124.4-47.6v-49.7c0-6.2,5-11.2,11.2-11.2h18.7c6.2,0,11.2,5,11.2,11.2v27.1"/>
		<path id="Rectangle-13_5_" class="st5" d="M-100.3-64.2v-68.1c0-6.2,5-11.2,11.2-11.2h25.7c6.2,0,11.2,5,11.2,11.2v67.7"/>
		<path id="Oval-5" class="st1" d="M-50.5,11.6c11.5,0,52.5,0,75.1,0c5.7-0.7,9.3-2.5,12.9-3.9c0-1.4,0-4.8,0-12.8
			c0-24.3-19.7-44-44-44c-8,0-15.5,2.1-21.9,5.8"/>
		<path id="Oval-5_1_" class="st2" d="M15.5,11.6c14.4,0,22-3.4,22-3.5c0-0.5,0-1.7,0-13.2c0-24.3-22-50.4-57-42.4
			C7.8-44.8,19.5-25.1,15.5,11.6z"/>
		<path id="Oval-5_2_" class="st5" d="M-50.5,11.6c11.4,0,51.9,0,74.7,0c4.1,0,13.4-3.7,13.4-3.9c0-0.5,0-3.8,0-12.8
			c0-24.3-19.7-44-44-44c-8,0-15.5,2.1-21.9,5.8"/>
		<path id="Oval-5_3_" class="st8" d="M-17,11.5c0-14,0,10.3,0-22.7s-26.7-59.7-59.7-59.7s-59.7,26.7-59.7,59.7c0,12,0,14.3,0,22.7
			C-116.9,11.5-34.5,11.5-17,11.5z"/>
		<g id="generator_2_" transform="translate(24.000000, 92.000000)">
			<g id="Rectangle-7_2_">
				<g>
					<path id="path-14" class="st6" d="M-113.5-143.5h25l0,0c8.8,0,16,7.2,16,16v48h-57v-48l0,0
						C-129.5-136.3-122.3-143.5-113.5-143.5z"/>
				</g>
				<path class="st5" d="M-128-81h54v-46.5c0-8-6.5-14.5-14.5-14.5h-25c-8,0-14.5,6.5-14.5,14.5V-81z"/>
			</g>
			<g id="Rectangle-8_3_">
				<g>
					<path id="path-15" class="st4" d="M-131.7-129.5h61.4c2.7,0,4.8,2.1,4.8,4.8v2.4c0,2.7-2.1,4.8-4.8,4.8h-61.4
						c-2.7,0-4.8-2.1-4.8-4.8v-2.4C-136.5-127.4-134.4-129.5-131.7-129.5z"/>
				</g>
				<path class="st5" d="M-130.5-128h59c2.5,0,4.5,2,4.5,4.5l0,0c0,2.5-2,4.5-4.5,4.5h-59c-2.5,0-4.5-2-4.5-4.5l0,0
					C-135-126-133-128-130.5-128z"/>
			</g>
			<g id="Rectangle-8_4_">
				<g>
					<path id="path-16" class="st4" d="M-131.7-105.5h61.4c2.7,0,4.8,2.1,4.8,4.8v2.4c0,2.7-2.1,4.8-4.8,4.8h-61.4
						c-2.7,0-4.8-2.1-4.8-4.8v-2.4C-136.5-103.4-134.4-105.5-131.7-105.5z"/>
				</g>
				<path class="st5" d="M-130.5-104h59c2.5,0,4.5,2,4.5,4.5l0,0c0,2.5-2,4.5-4.5,4.5h-59c-2.5,0-4.5-2-4.5-4.5l0,0
					C-135-102-133-104-130.5-104z"/>
			</g>
		</g>
	</g>
	<g id="building_3_" transform="translate(498.000000, 191.000000)">
		<polyline id="Path-3" class="st12" points="-87.5,8.5 -87.5,-137.5 -27.5,-137.5 -27.5,8.5 		"/>
		<g id="Rectangle-10">
			<g>
				<polygon id="path-17" class="st4" points="-66.5,9.5 -66.5,-143.5 -49.5,-143.5 -49.5,9.5 				"/>
			</g>
			<path class="st0" d="M-68.5,9.5L-68-142h20L-48.1,9.5H-68.5z"/>
		</g>
		
			<g id="Group-4" transform="translate(34.000000, 93.000000) scale(-1, 1) translate(-34.000000, -93.000000) translate(0.000000, 33.000000)">
			<polygon id="Path-2_3_" class="st10" points="172.5,-143.5 136.5,-143.5 136.5,-23.5 204.5,-23.5 204.5,-103.5 			"/>
			<polygon id="Path-2_4_" class="st7" points="164.2,-127.5 153.5,-127.5 153.5,-23.5 188.5,-23.5 188.5,-98.5 			"/>
			<polygon id="Path-2_5_" class="st2" points="165.2,-127.5 153.5,-127.5 153.5,-23.5 165.2,-23.5 			"/>
			<polygon id="Path-2_6_" class="st0" points="164.2,-127.5 153.5,-127.5 153.5,-23.5 188.5,-23.5 188.5,-98.5 			"/>
			<path id="Line-8_5_" class="st0" d="M137.5-61.5h49"/>
			<path id="Line-8_6_" class="st0" d="M137.5-44.5h49"/>
			<path id="Line-8_7_" class="st0" d="M137.5-78.5h49"/>
			<path id="Line-8_8_" class="st0" d="M137.5-94.5h49"/>
			<path id="Line-8_9_" class="st0" d="M137.5-110.5h40"/>
		</g>
	</g>
	<g id="mountain" transform="translate(456.000000, 315.000000)">
		<path id="Triangle-2" class="st6" d="M-81.5,5.5c16-24.5,27.7-42.8,35-55C-34.8-69-17.2-98.3,6.2-137.3c3.4-5.7,10.8-7.5,16.5-4.1
			c1.7,1,3.1,2.4,4.1,4.1L113.5,6.5"/>
		<path id="Triangle-2_1_" class="st1" d="M17.5,7v-149.5c5.5,2.3,8.6,4,9.3,5.1L114.5,7H17.5z"/>
		<path id="Triangle-2_2_" class="st0" d="M-81.5,4.5c16-24.3,27.7-42.5,35-54.7c11.7-19.4,29.3-48.4,52.7-87.2
			c3.4-5.6,10.8-7.5,16.5-4.1c1.7,1,3.1,2.4,4.1,4.1L113.5,5.5h-195"/>
		<path id="Triangle-2_3_" class="st1" d="M-65.2-77.4l49.7,82.9h-120l49.7-82.9l0,0c3.4-5.7,10.8-7.5,16.5-4.1
			C-67.6-80.5-66.2-79-65.2-77.4z"/>
		<path id="Triangle-2_4_" class="st2" d="M-68-80.6l50.5,85.1h-58v-83.1l0,0c0-2.2,1.8-4,4-4C-70.1-82.6-68.8-81.9-68-80.6z"/>
		<path id="Triangle-2_5_" class="st5" d="M-65.2-77.4l49.7,82.9h-120l49.7-82.9l0,0c3.4-5.7,10.8-7.5,16.5-4.1
			C-67.6-80.5-66.2-79-65.2-77.4z"/>
		<path id="Path-7" class="st8" d="M-96.3-59.7c2.5-3.6,7.8-4.1,12.7,1c4.8,5.1,10.5,4.4,13.7,2.2s10.4-6.7,16.9-0.2l-12.5-21.7
			c-2.7-3.3-5.8-5-9.5-5s-6.5,1.3-8.6,4C-93.7-63.9-97.9-57.3-96.3-59.7z"/>
		<path id="Path-6" class="st8" d="M-136.5-143.5"/>
		<path id="Path-7_1_" class="st13" d="M-17.5-97.5c4.2-6.7,12.6-7.4,20.6,2c8.1,9.4,17.5,8.1,22.9,4s16.5-13.8,27.3-1.8l-25.8-43.2
			c-2.7-4.7-6.3-7-11-7s-8.3,2.3-11,7C-12.6-106-20.3-93-17.5-97.5z"/>
		<path class="st2" d="M-61.3,5.5"/>
	</g>
	<g id="building_4_" transform="translate(58.000000, 209.000000)">
		<polyline id="Path-3_1_" class="st7" points="-87.5,-119.2 -87.5,-143.5 -27.5,-143.5 -27.5,-8.5 -68.5,-8.5 		"/>
		<polygon id="Path-3_2_" class="st2" points="-52.5,-143.5 -27.5,-143.5 -27.5,-8.5 -52.5,-8.5 -52.5,-132.5 		"/>
		<polyline id="Path-3_3_" class="st0" points="-87.5,-119.2 -87.5,-143.5 -27.5,-143.5 -27.5,-8.5 -68.5,-8.5 		"/>
		<path id="Line-8_10_" class="st0" d="M-73.5-45.5h45"/>
		<path id="Line-8_11_" class="st0" d="M-73.5-28.5h25"/>
		<path id="Line-8_12_" class="st0" d="M-73.5-62.5h25"/>
		<path id="Line-8_13_" class="st0" d="M-73.5-78.5h44"/>
		<path id="Line-8_14_" class="st0" d="M-73.5-110.5h45"/>
		<path id="Line-8_15_" class="st0" d="M-73.5-93.5h25"/>
		<path id="Line-8_16_" class="st0" d="M-73.5-127.5h25"/>
		
			<g id="Group-4_1_" transform="translate(34.000000, 75.000000) scale(-1, 1) translate(-34.000000, -75.000000) translate(0.000000, 15.000000)">
			<polygon id="Path-2_7_" class="st10" points="172.5,-142.5 136.5,-142.5 136.5,-23.5 204.5,-23.5 204.5,-103.5 			"/>
			<path id="Line-8_17_" class="st0" d="M159.5-61.5h45"/>
			<path id="Line-8_18_" class="st0" d="M159.5-44.5h45"/>
			<path id="Line-8_19_" class="st0" d="M159.5-78.5h45"/>
			<path id="Line-8_20_" class="st0" d="M159.5-94.5h44"/>
			<path id="Line-8_21_" class="st0" d="M159.5-110.5h39"/>
			<path id="Line-8_22_" class="st0" d="M159.5-126.5h25"/>
		</g>
	</g>
	<g id="building_5_" transform="translate(326.000000, 257.000000)">
		<rect id="Rectangle-11" x="-136.5" y="-143.5" class="st1" width="87" height="88"/>
		<rect id="Rectangle-11_1_" x="-92.5" y="-143.5" class="st2" width="42" height="88"/>
		<rect id="Rectangle-11_2_" x="-135" y="-142" class="st0" width="84" height="85"/>
		<g id="Rectangle-11_3_">
			<g>
				<rect id="path-20" x="-124.5" y="-107.5" class="st4" width="64" height="16"/>
			</g>
			<rect x="-123" y="-106" class="st5" width="61" height="13"/>
		</g>
		<g id="Rectangle-11_4_">
			<g>
				<rect id="path-21" x="-124.5" y="-119.5" class="st4" width="64" height="16"/>
			</g>
			<rect x="-123" y="-118" class="st5" width="61" height="13"/>
		</g>
		<g id="Rectangle-11_5_">
			<g>
				<rect id="path-22" x="-124.5" y="-131.5" class="st4" width="64" height="16"/>
			</g>
			<rect x="-123" y="-130" class="st5" width="61" height="13"/>
		</g>
		<g id="Rectangle-11_6_">
			<g>
				<rect id="path-23" x="-124.5" y="-83.5" class="st4" width="64" height="16"/>
			</g>
			<rect x="-123" y="-82" class="st5" width="61" height="13"/>
		</g>
		<g id="Rectangle-11_7_">
			<g>
				<rect id="path-24" x="-124.5" y="-95.5" class="st4" width="64" height="16"/>
			</g>
			<rect x="-123" y="-94" class="st5" width="61" height="13"/>
		</g>
	</g>
	<g id="trees" transform="translate(123.000000, 174.000000)">
		<g id="tree_1_" transform="translate(379.000000, 240.000000)">
			<path id="Triangle_1_" class="st8" d="M-116.1-135.7l7.4,21.6l0,0c1.2,3.3-0.6,7-4,8.1c-0.7,0.2-1.4,0.3-2.1,0.3h-14.9l0,0
				c-3.5,0-6.4-2.9-6.4-6.4c0-0.7,0.1-1.4,0.3-2.1l7.4-21.6l0,0c1.2-3.3,4.8-5.1,8.1-4C-118.2-139.1-116.7-137.6-116.1-135.7z"/>
			<path id="Line-5_1_" class="st3" d="M-122.5-124.9v33.6"/>
		</g>
		<g id="tree_2_" transform="translate(519.000000, 239.000000)">
			<path id="Triangle_2_" class="st8" d="M-116.1-134.7l7.4,21.6l0,0c1.2,3.3-0.6,7-4,8.1c-0.7,0.2-1.4,0.3-2.1,0.3h-14.9l0,0
				c-3.5,0-6.4-2.9-6.4-6.4c0-0.7,0.1-1.4,0.3-2.1l7.4-21.6l0,0c1.2-3.3,4.8-5.1,8.1-4C-118.2-138.1-116.7-136.6-116.1-134.7z"/>
			<path id="Line-5_2_" class="st3" d="M-122.5-123.9v33.6"/>
		</g>
		<g id="tree_3_">
			<path id="Line-5_3_" class="st3" d="M-122.5-127.9v19.6"/>
			<path id="Triangle_3_" class="st5" d="M-116.1-138.7l7.4,21.6l0,0c1.2,3.3-0.6,7-4,8.1c-0.7,0.2-1.4,0.3-2.1,0.3h-14.9l0,0
				c-3.5,0-6.4-2.9-6.4-6.4c0-0.7,0.1-1.4,0.3-2.1l7.4-21.6l0,0c1.2-3.3,4.8-5.1,8.1-4C-118.2-142.1-116.7-140.6-116.1-138.7z"/>
		</g>
		<g id="tree_4_" transform="translate(149.000000, 120.000000)">
			<path id="Triangle_4_" class="st8" d="M-116.1-138.7l7.4,21.6l0,0c1.2,3.3-0.6,7-4,8.1c-0.7,0.2-1.4,0.3-2.1,0.3h-14.9l0,0
				c-3.5,0-6.4-2.9-6.4-6.4c0-0.7,0.1-1.4,0.3-2.1l7.4-21.6l0,0c1.2-3.3,4.8-5.1,8.1-4C-118.2-142.1-116.7-140.6-116.1-138.7z"/>
			<path id="Line-5_4_" class="st3" d="M-122.5-127.9v33.6"/>
		</g>
		<g id="tree_5_" transform="translate(313.000000, 120.000000)">
			<path id="Triangle_5_" class="st8" d="M-116.1-138.7l7.4,21.6l0,0c1.2,3.3-0.6,7-4,8.1c-0.7,0.2-1.4,0.3-2.1,0.3h-14.9l0,0
				c-3.5,0-6.4-2.9-6.4-6.4c0-0.7,0.1-1.4,0.3-2.1l7.4-21.6l0,0c1.2-3.3,4.8-5.1,8.1-4C-118.2-142.1-116.7-140.6-116.1-138.7z"/>
			<path id="Line-5_5_" class="st3" d="M-122.5-127.9v33.6"/>
		</g>
	</g>
	<g id="entrance" transform="translate(579.000000, 411.000000)">
		<g id="Rectangle-15">
			<g>
				<path id="path-25" class="st1" d="M-115.5-144L-115.5-144L-115.5-144c11.6,0,21,9.4,21,21v34h-42v-34l0,0
					C-136.5-134.6-127.1-144-115.5-144z"/>
			</g>
			<path class="st5" d="M-135-90.5h39V-123c0-10.8-8.7-19.5-19.5-19.5S-135-133.8-135-123V-90.5z"/>
		</g>
		<g id="Rectangle-15_1_">
			<g>
				<path id="path-26" class="st2" d="M-107.5-135L-107.5-135L-107.5-135c7.2,0,13,5.8,13,13v33h-26v-33l0,0
					C-120.5-129.2-114.7-135-107.5-135z"/>
			</g>
			<path class="st5" d="M-119-90.5h23V-122c0-6.4-5.1-11.5-11.5-11.5S-119-128.4-119-122V-90.5z"/>
		</g>
	</g>
	<g id="windmill" transform="translate(103.000000, 361.000000)">
		<path id="Oval-2" class="st5" d="M-89.1-88.2c0-7.8,6.4-14.3,16.4-14.3s16.4,6.5,16.4,14.3c0,10,2.4,25.9,7.1,47.7h-47
			C-91.5-63.3-89.1-79.2-89.1-88.2z"/>
	</g>
</g>
</svg>
