<?xml version="1.0" encoding="utf-8"?>
<!-- Generator: Adobe Illustrator 22.0.0, SVG Export Plug-In . SVG Version: 6.00 Build 0)  -->
<svg version="1.1" id="Layer_1" xmlns="http://www.w3.org/2000/svg" xmlns:xlink="http://www.w3.org/1999/xlink" x="0px" y="0px"
	 viewBox="0 0 321 84.9" style="enable-background:new 0 0 321 84.9;" xml:space="preserve">
<style type="text/css">
	.st0{fill:#FFDB03;}
	.st1{fill:#FFDB03;stroke:#5C6783;stroke-width:3;}
</style>
<g id="illustation" transform="translate(80.000000, 92.000000)">
	<g id="generator" transform="translate(297.000000, 112.000000)">
		<g id="Rectangle-8">
			<g>
				<path id="path-6" class="st0" d="M-295.2-204h61.4c2.7,0,4.8,2.1,4.8,4.8v2.4c0,2.7-2.1,4.8-4.8,4.8h-61.4
					c-2.7,0-4.8-2.1-4.8-4.8v-2.4C-300-201.9-297.9-204-295.2-204z"/>
			</g>
			<path class="st1" d="M-294-202.5h59c2.5,0,4.5,2,4.5,4.5l0,0c0,2.5-2,4.5-4.5,4.5h-59c-2.5,0-4.5-2-4.5-4.5l0,0
				C-298.5-200.5-296.5-202.5-294-202.5z"/>
		</g>
		<g id="Rectangle-8_1_">
			<g>
				<path id="path-7" class="st0" d="M-295.2-179.8h61.4c2.7,0,4.8,2.1,4.8,4.8v2.4c0,2.7-2.1,4.8-4.8,4.8h-61.4
					c-2.7,0-4.8-2.1-4.8-4.8v-2.4C-300-177.7-297.9-179.8-295.2-179.8z"/>
			</g>
			<path class="st1" d="M-294-178.3h59c2.5,0,4.5,2,4.5,4.5l0,0c0,2.5-2,4.5-4.5,4.5h-59c-2.5,0-4.5-2-4.5-4.5l0,0
				C-298.5-176.3-296.5-178.3-294-178.3z"/>
		</g>
	</g>
	<g id="generator_1_" transform="translate(220.000000, 135.000000)">
		<g id="Rectangle-8_2_">
			<g>
				<path id="path-9" class="st0" d="M-295.2-203.1h61.4l0,0c2.7,0,4.8,2.1,4.8,4.8v2.4l0,0c0,2.7-2.1,4.8-4.8,4.8h-61.4l0,0
					c-2.7,0-4.8-2.1-4.8-4.8v-2.4l0,0C-300-201-297.9-203.1-295.2-203.1z"/>
			</g>
			<path class="st1" d="M-295.2-201.6c-1.8,0-3.3,1.5-3.3,3.3v2.4c0,1.8,1.5,3.3,3.3,3.3h61.4c1.8,0,3.3-1.5,3.3-3.3v-2.4
				c0-1.8-1.5-3.3-3.3-3.3H-295.2z"/>
		</g>
	</g>
	<g id="building_2_" transform="translate(446.000000, 69.000000)">
		<g id="generator_2_" transform="translate(24.000000, 92.000000)">
			<g id="Rectangle-8_3_">
				<g>
					<path id="path-15" class="st0" d="M-295.2-204.1h61.4c2.7,0,4.8,2.1,4.8,4.8v2.4c0,2.7-2.1,4.8-4.8,4.8h-61.4
						c-2.7,0-4.8-2.1-4.8-4.8v-2.4C-300-202-297.9-204.1-295.2-204.1z"/>
				</g>
				<path class="st1" d="M-294-202.6h59c2.5,0,4.5,2,4.5,4.5l0,0c0,2.5-2,4.5-4.5,4.5h-59c-2.5,0-4.5-2-4.5-4.5l0,0
					C-298.5-200.6-296.5-202.6-294-202.6z"/>
			</g>
			<g id="Rectangle-8_4_">
				<g>
					<path id="path-16" class="st0" d="M-295.2-180.1h61.4c2.7,0,4.8,2.1,4.8,4.8v2.4c0,2.7-2.1,4.8-4.8,4.8h-61.4
						c-2.7,0-4.8-2.1-4.8-4.8v-2.4C-300-178-297.9-180.1-295.2-180.1z"/>
				</g>
				<path class="st1" d="M-294-178.6h59c2.5,0,4.5,2,4.5,4.5l0,0c0,2.5-2,4.5-4.5,4.5h-59c-2.5,0-4.5-2-4.5-4.5l0,0
					C-298.5-176.6-296.5-178.6-294-178.6z"/>
			</g>
		</g>
	</g>
</g>
</svg>
