<?xml version="1.0" encoding="utf-8"?>
<!-- Generator: Adobe Illustrator 22.0.0, SVG Export Plug-In . SVG Version: 6.00 Build 0)  -->
<svg version="1.1" xmlns="http://www.w3.org/2000/svg" xmlns:xlink="http://www.w3.org/1999/xlink" x="0px" y="0px"
	 viewBox="0 0 82.8 28" style="enable-background:new 0 0 82.8 28;" xml:space="preserve">
<style type="text/css">
	.st0{fill:#FFFFFF;stroke:#5C6783;stroke-width:3;stroke-linecap:round;stroke-linejoin:round;}
</style>
<g id="Layer_1">
	<g>
		
			<g id="cloud_10_" transform="translate(223.000000, 395.500000) scale(-1, 1) translate(-223.000000, -395.500000) translate(214.000000, 391.000000)">
			<path id="Oval-3_19_" class="st0" d="M230.5-364.5c0-5-4-9-9-9s-9,4-9,9C218.7-364.5,224-364.5,230.5-364.5z"/>
		</g>
		<g id="cloud_9_" transform="translate(225.000000, 375.000000)">
			<path id="Oval-3_18_" class="st0" d="M-166.2-362.7c-4.6-6.5-12.2-10.8-20.9-10.8c-14,0-25.4,11.2-25.4,25c11.7,0,24,0,36.9,0"/>
			<path id="Oval-3_17_" class="st0" d="M-143.7-348.6c0-8.8-7.3-16-16.2-16c-9,0-16.2,7.2-16.2,16
				C-165-348.6-155.6-348.6-143.7-348.6z"/>
		</g>
	</g>
</g>
<g id="Layer_2">
</g>
</svg>
