<?xml version="1.0" encoding="utf-8"?>
<!-- Generator: Adobe Illustrator 22.0.0, SVG Export Plug-In . SVG Version: 6.00 Build 0)  -->
<svg version="1.1" id="Layer_1" xmlns="http://www.w3.org/2000/svg" xmlns:xlink="http://www.w3.org/1999/xlink" x="0px" y="0px"
	 viewBox="0 0 156 34.1" style="enable-background:new 0 0 156 34.1;" xml:space="preserve">
<style type="text/css">
	.st0{fill:#FFFFFF;}
	.st1{fill:#FFDB03;}
	.st2{fill:none;stroke:#5C6783;stroke-width:3;}
	.st3{fill:none;stroke:#5C6783;stroke-width:3;stroke-linecap:square;}
	.st4{fill:#FFDB03;stroke:#5C6783;stroke-width:3;stroke-linecap:round;stroke-linejoin:round;}
</style>
<g>
	<path id="Rectangle-12_3_" class="st0" d="M156,25.4v4c0,2.2-1.8,4-4,4H4c-2.2,0-4-1.8-4-4l0-4"/>
	<g>
		<line id="Rectangle-12_4_" class="st1" x1="152" y1="25.9" x2="4" y2="25.9"/>
		<path id="Rectangle-12_1_" class="st2" d="M1.5,24.6v5.5c0,1.4,1.1,2.5,2.5,2.5h148c1.4,0,2.5-1.1,2.5-2.5v-4.5"/>
		<path id="Line-9_4_" class="st3" d="M2,26.1h152.5"/>
	</g>
</g>
<g>
	<path class="st4" d="M106.2,25.9h23.4c2.2,0,4-1.8,4-4v0c0-2.2-1.8-4-4-4h-3.4h-20c-2.2,0-4,1.8-4,4v0
		C102.2,24.1,104,25.9,106.2,25.9z"/>
	<line class="st4" x1="126.3" y1="25.9" x2="126.3" y2="18"/>
	<line class="st4" x1="119" y1="25.9" x2="119" y2="18"/>
	<line class="st4" x1="111.1" y1="25.9" x2="111.1" y2="18"/>
</g>
<g>
	<path class="st4" d="M66.8,25.9h23.4c2.2,0,4-1.8,4-4v0c0-2.2-1.8-4-4-4h-3.4h-20c-2.2,0-4,1.8-4,4v0
		C62.9,24.1,64.7,25.9,66.8,25.9z"/>
	<line class="st4" x1="87" y1="25.9" x2="87" y2="18"/>
	<line class="st4" x1="79.7" y1="25.9" x2="79.7" y2="18"/>
	<line class="st4" x1="71.8" y1="25.9" x2="71.8" y2="18"/>
</g>
<g>
	<path class="st4" d="M66.8,17.3h23.4c2.2,0,4-1.8,4-4v0c0-2.2-1.8-4-4-4h-3.4h-20c-2.2,0-4,1.8-4,4v0
		C62.9,15.5,64.7,17.3,66.8,17.3z"/>
	<line class="st4" x1="87" y1="17.3" x2="87" y2="9.4"/>
	<line class="st4" x1="79.7" y1="17.3" x2="79.7" y2="9.4"/>
	<line class="st4" x1="71.8" y1="17.3" x2="71.8" y2="9.4"/>
</g>
<g>
	<path class="st4" d="M64,9.4h23.4c2.2,0,4-1.8,4-4v0c0-2.2-1.8-4-4-4H84H64c-2.2,0-4,1.8-4,4v0C60.1,7.6,61.9,9.4,64,9.4z"/>
	<line class="st4" x1="84.2" y1="9.4" x2="84.2" y2="1.5"/>
	<line class="st4" x1="76.9" y1="9.4" x2="76.9" y2="1.5"/>
	<line class="st4" x1="69" y1="9.4" x2="69" y2="1.5"/>
</g>
<g>
	<path class="st4" d="M27.5,25.9h23.4c2.2,0,4-1.8,4-4v0c0-2.2-1.8-4-4-4h-3.4h-20c-2.2,0-4,1.8-4,4v0
		C23.6,24.1,25.3,25.9,27.5,25.9z"/>
	<line class="st4" x1="47.7" y1="25.9" x2="47.7" y2="18"/>
	<line class="st4" x1="40.4" y1="25.9" x2="40.4" y2="18"/>
	<line class="st4" x1="32.4" y1="25.9" x2="32.4" y2="18"/>
</g>
<g>
	<path class="st4" d="M21.9,18h23.4c2.2,0,4-1.8,4-4v0c0-2.2-1.8-4-4-4h-3.4h-20c-2.2,0-4,1.8-4,4v0C17.9,16.2,19.7,18,21.9,18z"/>
	<line class="st4" x1="42" y1="18" x2="42" y2="10"/>
	<line class="st4" x1="34.7" y1="18" x2="34.7" y2="10"/>
	<line class="st4" x1="26.8" y1="18" x2="26.8" y2="10"/>
</g>
<g>
	<path class="st4" d="M26.1,10h23.4c2.2,0,4-1.8,4-4v0c0-2.2-1.8-4-4-4h-3.4h-20c-2.2,0-4,1.8-4,4v0C22.2,8.3,23.9,10,26.1,10z"/>
	<line class="st4" x1="46.3" y1="10" x2="46.3" y2="2.1"/>
	<line class="st4" x1="39" y1="10" x2="39" y2="2.1"/>
	<line class="st4" x1="31" y1="10" x2="31" y2="2.1"/>
</g>
<g>
	<path class="st4" d="M110.7,17.3h23.4c2.2,0,4-1.8,4-4v0c0-2.2-1.8-4-4-4h-3.4h-20c-2.2,0-4,1.8-4,4v0
		C106.7,15.5,108.5,17.3,110.7,17.3z"/>
	<line class="st4" x1="130.8" y1="17.3" x2="130.8" y2="9.4"/>
	<line class="st4" x1="123.5" y1="17.3" x2="123.5" y2="9.4"/>
	<line class="st4" x1="115.6" y1="17.3" x2="115.6" y2="9.4"/>
</g>
<g>
	<path class="st4" d="M103.9,9.4h23.4c2.2,0,4-1.8,4-4v0c0-2.2-1.8-4-4-4h-3.4h-20c-2.2,0-4,1.8-4,4v0C99.9,7.6,101.7,9.4,103.9,9.4
		z"/>
	<line class="st4" x1="124" y1="9.4" x2="124" y2="1.5"/>
	<line class="st4" x1="116.7" y1="9.4" x2="116.7" y2="1.5"/>
	<line class="st4" x1="108.8" y1="9.4" x2="108.8" y2="1.5"/>
</g>
</svg>
