<?xml version="1.0" encoding="utf-8"?>
<!-- Generator: Adobe Illustrator 22.0.0, SVG Export Plug-In . SVG Version: 6.00 Build 0)  -->
<svg version="1.1" id="Layer_1" xmlns="http://www.w3.org/2000/svg" xmlns:xlink="http://www.w3.org/1999/xlink" x="0px" y="0px"
	 viewBox="0 0 38 38" style="enable-background:new 0 0 38 38;" xml:space="preserve">
<style type="text/css">
	.st0{fill:#87DEE8;stroke:#5C6783;stroke-width:3;}
	.st1{fill:#FFDB03;stroke:#5C6783;stroke-width:3;}
	.st2{fill:none;stroke:#5C6783;stroke-width:3;stroke-linecap:round;}
</style>
<title>footer-illustation@2x</title>
<desc>Created with Sketch.</desc>
<g id="Web">
	<g id="Landing" transform="translate(-148.000000, -9583.000000)">
		<g id="footer" transform="translate(0.000000, 9462.000000)">
			<g id="footer-illustation" transform="translate(150.000000, 123.000000)">
				<g id="coin" transform="translate(134.000000, 11.000000)">
					<path id="Oval-4" class="st0" d="M-112.5-11.5c-1.7,0-7.5,0-9,0c-7.2,0-13,7.8-13,17.5s5.8,17.5,13,17.5h2.1c2.4,0,4.3,0,6.9,0
						"/>
					<ellipse id="Oval-4_1_" class="st1" cx="-112.5" cy="6" rx="13" ry="17.5"/>
					<path id="Oval-4_2_" class="st2" d="M-108.4,1.2c-0.9-2.2-2.3-3.6-3.9-3.6c-2.6,0-4.8,3.8-4.8,8.4s2.1,8.4,4.8,8.4l0,0
						c1.7,0,3.1-1.5,4-3.8"/>
				</g>
			</g>
		</g>
	</g>
</g>
</svg>
