<?xml version="1.0" encoding="utf-8"?>
<!-- Generator: Adobe Illustrator 22.0.0, SVG Export Plug-In . SVG Version: 6.00 Build 0)  -->
<svg version="1.1" id="Layer_1" xmlns="http://www.w3.org/2000/svg" xmlns:xlink="http://www.w3.org/1999/xlink" x="0px" y="0px"
	 viewBox="0 0 656.8 41.4" style="enable-background:new 0 0 656.8 41.4;" xml:space="preserve">
<style type="text/css">
	.st0{fill:none;stroke:#5C6783;stroke-width:3;stroke-linejoin:round;}
	.st1{fill:#87DEE8;}
	.st2{fill:none;stroke:#5C6783;stroke-width:3;}
	.st3{fill:#FFDB03;}
	.st4{fill:#FFFFFF;stroke:#5C6783;stroke-width:3;}
	.st5{fill:none;stroke:#5C6783;stroke-width:3;stroke-linecap:round;}
	.st6{fill:#FFFFFF;stroke:#5C6783;stroke-width:3;stroke-linecap:round;stroke-linejoin:round;}
	.st7{fill:#FFFFFF;}
	.st8{fill:none;stroke:#5C6783;stroke-width:3;stroke-linecap:square;}
	.st9{fill:#FFDB03;stroke:#5C6783;stroke-width:3;stroke-linecap:round;stroke-linejoin:round;}
</style>
<g id="cloud_2_" transform="translate(534.000000, 29.000000)">
	<path id="Oval-3_4_" class="st0" d="M9.4,8.7c0-5-4-9-9-9s-9,4-9,9C-2.4,8.7,2.8,8.7,9.4,8.7z"/>
	<path id="Oval-3_3_" class="st0" d="M-3.6,0.8c-2.5-3.7-6.6-6.1-11.3-6.1c-7.6,0-13.7,6.3-13.7,14c6.3,0,13,0,19.9,0"/>
</g>
<g>
	<g id="train_5_" transform="translate(69.000000, 428.000000)">
		<g id="wagon_3_" transform="translate(166.000000, 0.000000)">
			<g id="Rectangle-3_5_">
				<g>
					<path id="path-12_6_" class="st1" d="M-75.4-423.6h-122.5l0,0c-4.6,0-9.2,1-13.4,2.9c-5,2.3-9.3,5.3-13,9.1
						c-4.6,4.7-8.1,11.2-10.5,19.5h0c-0.6,2.3,0.7,4.7,3,5.3c0.4,0.1,0.8,0.2,1.2,0.2h155.5l0,0c2.4,0,4.3-1.9,4.3-4.3c0,0,0,0,0,0
						l-0.2-28.4l0,0C-71.1-421.7-73-423.6-75.4-423.6z"/>
				</g>
				<path class="st2" d="M-75.4-422.1c1.5,0,2.8,1.2,2.8,2.8l0.2,28.4c0,0,0,0,0,0c0,1.5-1.3,2.8-2.8,2.8h-155.5
					c-0.3,0-0.5,0-0.8-0.1c-1.5-0.4-2.4-2-1.9-3.5c2.3-8.1,5.7-14.4,10.1-18.9c3.6-3.6,7.8-6.5,12.6-8.7c4-1.8,8.4-2.8,12.8-2.8
					H-75.4z"/>
			</g>
			<path id="Rectangle-3_4_" class="st3" d="M-75.2-407.6c-45.5,0-91.1,0-136.6,0c-5.3,1.3-10.3,8.3-15,21h151.6l0,0
				c2.4,0,4.3-1.9,4.3-4.3v-12.4l0,0C-70.9-405.7-72.8-407.6-75.2-407.6z"/>
			<path id="Rectangle-3_3_" class="st2" d="M-75.4-422.1c1.5,0,2.8,1.2,2.8,2.8l0.2,28.4c0,0,0,0,0,0c0,1.5-1.3,2.8-2.8,2.8h-155.5
				c-0.3,0-0.5,0-0.8-0.1c-1.5-0.4-2.4-2-1.9-3.5c2.3-8.1,5.7-14.4,10.1-18.9c3.6-3.6,7.8-6.5,12.6-8.7c4-1.8,8.4-2.8,12.8-2.8
				H-75.4z"/>
			<path id="Rectangle-4_17_" class="st4" d="M-167.7-412.5h-21.7l0,0c-0.6,0-1,0.4-1,1v5.9l0,0c0,0.6,0.4,1,1,1h21.7l0,0
				c0.6,0,1-0.4,1-1v-5.9l0,0C-166.7-412.1-167.2-412.5-167.7-412.5z"/>
			<path id="Line-9_7_" class="st5" d="M-73.7-395.1h-70"/>
			<path id="Line-9_8_" class="st5" d="M-155.7-395.1h-75"/>
			<path id="Rectangle-4_16_" class="st4" d="M-109.7-412.5h-21.7l0,0c-0.6,0-1,0.4-1,1v5.9l0,0c0,0.6,0.4,1,1,1h21.7l0,0
				c0.6,0,1-0.4,1-1v-5.9l0,0C-108.7-412.1-109.2-412.5-109.7-412.5z"/>
			<path id="Rectangle-4_15_" class="st4" d="M-85.7-412.5h-21.7l0,0c-0.6,0-1,0.4-1,1v5.9l0,0c0,0.6,0.4,1,1,1h21.7l0,0
				c0.6,0,1-0.4,1-1v-5.9l0,0C-84.7-412.1-85.2-412.5-85.7-412.5z"/>
			<path id="Rectangle-4_14_" class="st4" d="M-144.2-389.6v-21.7l0,0c0-0.6-0.4-1-1-1h-8.9l0,0c-0.6,0-1,0.4-1,1v21.7l0,0
				c0,0.6,0.4,1,1,1h8.9l0,0C-144.6-388.6-144.2-389.1-144.2-389.6z"/>
			<path id="Path-5_1_" class="st6" d="M-214.2-404.6h24v-7.9c0,0-1.1,0-3.2,0c-4.1,0-10.4,0.1-13.8,1.9
				C-209.8-409.3-212.2-407.3-214.2-404.6z"/>
		</g>
	</g>
	<g id="train_1_" transform="translate(69.000000, 428.000000)">
		<g id="wagon_4_" transform="translate(166.000000, 0.000000)">
			<g id="Rectangle-3_8_">
				<g>
					<path id="path-12_1_" class="st1" d="M262.3-423.6h122.5l0,0c4.6,0,9.2,1,13.4,2.9c5,2.3,9.3,5.3,13,9.1
						c4.6,4.7,8.1,11.2,10.5,19.5l0,0c0.6,2.3-0.7,4.7-3,5.3c-0.4,0.1-0.8,0.2-1.2,0.2H262l0,0c-2.4,0-4.3-1.9-4.3-4.3c0,0,0,0,0,0
						l0.2-28.4l0,0C258-421.7,259.9-423.6,262.3-423.6z"/>
				</g>
				<path class="st2" d="M262.3-422.1c-1.5,0-2.8,1.2-2.8,2.8l-0.2,28.4c0,0,0,0,0,0c0,1.5,1.3,2.8,2.8,2.8h155.5
					c0.3,0,0.5,0,0.8-0.1c1.5-0.4,2.4-2,1.9-3.5c-2.3-8.1-5.7-14.4-10.1-18.9c-3.6-3.6-7.8-6.5-12.6-8.7c-4-1.8-8.4-2.8-12.8-2.8
					H262.3z"/>
			</g>
			<path id="Rectangle-3_7_" class="st3" d="M262-407.6c45.5,0,91.1,0,136.6,0c5.3,1.3,10.3,8.3,15,21H262l0,0
				c-2.4,0-4.3-1.9-4.3-4.3v-12.4l0,0C257.7-405.7,259.6-407.6,262-407.6z"/>
			<path id="Rectangle-3_6_" class="st2" d="M262.3-422.1c-1.5,0-2.8,1.2-2.8,2.8l-0.2,28.4c0,0,0,0,0,0c0,1.5,1.3,2.8,2.8,2.8
				h155.5c0.3,0,0.5,0,0.8-0.1c1.5-0.4,2.4-2,1.9-3.5c-2.3-8.1-5.7-14.4-10.1-18.9c-3.6-3.6-7.8-6.5-12.6-8.7
				c-4-1.8-8.4-2.8-12.8-2.8H262.3z"/>
			<path id="Rectangle-4_21_" class="st4" d="M354.6-412.5h21.7l0,0c0.6,0,1,0.4,1,1v5.9l0,0c0,0.6-0.4,1-1,1h-21.7l0,0
				c-0.6,0-1-0.4-1-1v-5.9l0,0C353.6-412.1,354-412.5,354.6-412.5z"/>
			<path id="Line-9_6_" class="st5" d="M260.5-395.1h70"/>
			<path id="Line-9_9_" class="st5" d="M342.5-395.1h75"/>
			<path id="Rectangle-4_20_" class="st4" d="M296.6-412.5h21.7l0,0c0.6,0,1,0.4,1,1v5.9l0,0c0,0.6-0.4,1-1,1h-21.7l0,0
				c-0.6,0-1-0.4-1-1v-5.9l0,0C295.6-412.1,296-412.5,296.6-412.5z"/>
			<path id="Rectangle-4_19_" class="st4" d="M272.6-412.5h21.7l0,0c0.6,0,1,0.4,1,1v5.9l0,0c0,0.6-0.4,1-1,1h-21.7l0,0
				c-0.6,0-1-0.4-1-1v-5.9l0,0C271.6-412.1,272-412.5,272.6-412.5z"/>
			<path id="Rectangle-4_18_" class="st4" d="M331-389.6v-21.7l0,0c0-0.6,0.4-1,1-1h8.9l0,0c0.6,0,1,0.4,1,1v21.7l0,0
				c0,0.6-0.4,1-1,1H332l0,0C331.4-388.6,331-389.1,331-389.6z"/>
			<path id="Path-5_2_" class="st6" d="M401-404.6h-24v-7.9c0,0,1.1,0,3.2,0c4.1,0,10.4,0.1,13.8,1.9
				C396.7-409.3,399-407.3,401-404.6z"/>
		</g>
	</g>
	<g>
		<path id="Rectangle-12_4_" class="st7" d="M172,32.6v4c0,2.2,1.8,4,4,4h148c2.2,0,4-1.8,4-4v-4"/>
		<g>
			<line id="Rectangle-12_5_" class="st3" x1="176" y1="33.1" x2="324" y2="33.1"/>
			<path id="Rectangle-12_3_" class="st2" d="M326.5,31.9v5.5c0,1.4-1.1,2.5-2.5,2.5H176c-1.4,0-2.5-1.1-2.5-2.5v-4.5"/>
			<path id="Line-9_4_" class="st8" d="M326,33.4H173.5"/>
		</g>
	</g>
	<g>
		<path class="st9" d="M224.8,33.1h-23.4c-2.2,0-4-1.8-4-4v0c0-2.2,1.8-4,4-4h3.4h20c2.2,0,4,1.8,4,4v0
			C228.8,31.3,227,33.1,224.8,33.1z"/>
		<line class="st9" x1="204.7" y1="33.1" x2="204.7" y2="25.2"/>
		<line class="st9" x1="212" y1="33.1" x2="212" y2="25.2"/>
		<line class="st9" x1="219.9" y1="33.1" x2="219.9" y2="25.2"/>
	</g>
	<g>
		<path class="st9" d="M264.2,33.1h-23.4c-2.2,0-4-1.8-4-4v0c0-2.2,1.8-4,4-4h3.4h20c2.2,0,4,1.8,4,4v0
			C268.1,31.3,266.4,33.1,264.2,33.1z"/>
		<line class="st9" x1="244" y1="33.1" x2="244" y2="25.2"/>
		<line class="st9" x1="251.3" y1="33.1" x2="251.3" y2="25.2"/>
		<line class="st9" x1="259.3" y1="33.1" x2="259.3" y2="25.2"/>
	</g>
	<g>
		<path class="st9" d="M267.2,24.6h-23.4c-2.2,0-4-1.8-4-4v0c0-2.2,1.8-4,4-4h3.4h20c2.2,0,4,1.8,4,4v0
			C271.1,22.8,269.4,24.6,267.2,24.6z"/>
		<line class="st9" x1="247" y1="24.6" x2="247" y2="16.7"/>
		<line class="st9" x1="254.4" y1="24.6" x2="254.4" y2="16.7"/>
		<line class="st9" x1="262.3" y1="24.6" x2="262.3" y2="16.7"/>
	</g>
	<g>
		<path class="st9" d="M308,9.4h-23.4c-2.2,0-4-1.8-4-4v0c0-2.2,1.8-4,4-4h3.4h20c2.2,0,4,1.8,4,4v0C312,7.6,310.2,9.4,308,9.4z"/>
		<line class="st9" x1="287.9" y1="9.4" x2="287.9" y2="1.5"/>
		<line class="st9" x1="295.2" y1="9.4" x2="295.2" y2="1.5"/>
		<line class="st9" x1="303.1" y1="9.4" x2="303.1" y2="1.5"/>
	</g>
	<g>
		<path class="st9" d="M303.5,33.1h-23.4c-2.2,0-4-1.8-4-4v0c0-2.2,1.8-4,4-4h3.4h20c2.2,0,4,1.8,4,4v0
			C307.5,31.3,305.7,33.1,303.5,33.1z"/>
		<line class="st9" x1="283.4" y1="33.1" x2="283.4" y2="25.2"/>
		<line class="st9" x1="290.7" y1="33.1" x2="290.7" y2="25.2"/>
		<line class="st9" x1="298.6" y1="33.1" x2="298.6" y2="25.2"/>
	</g>
	<g>
		<path class="st9" d="M309.1,25.2h-23.4c-2.2,0-4-1.8-4-4v0c0-2.2,1.8-4,4-4h3.4h20c2.2,0,4,1.8,4,4v0
			C313.1,23.4,311.3,25.2,309.1,25.2z"/>
		<line class="st9" x1="289" y1="25.2" x2="289" y2="17.3"/>
		<line class="st9" x1="296.3" y1="25.2" x2="296.3" y2="17.3"/>
		<line class="st9" x1="304.2" y1="25.2" x2="304.2" y2="17.3"/>
	</g>
	<g>
		<path class="st9" d="M304.9,17.3h-23.4c-2.2,0-4-1.8-4-4v0c0-2.2,1.8-4,4-4h3.4h20c2.2,0,4,1.8,4,4v0
			C308.9,15.5,307.1,17.3,304.9,17.3z"/>
		<line class="st9" x1="284.8" y1="17.3" x2="284.8" y2="9.4"/>
		<line class="st9" x1="292.1" y1="17.3" x2="292.1" y2="9.4"/>
		<line class="st9" x1="300" y1="17.3" x2="300" y2="9.4"/>
	</g>
	<g>
		<path class="st9" d="M229.4,24.6h-23.4c-2.2,0-4-1.8-4-4v0c0-2.2,1.8-4,4-4h3.4h20c2.2,0,4,1.8,4,4v0
			C233.3,22.8,231.5,24.6,229.4,24.6z"/>
		<line class="st9" x1="209.2" y1="24.6" x2="209.2" y2="16.7"/>
		<line class="st9" x1="216.5" y1="24.6" x2="216.5" y2="16.7"/>
		<line class="st9" x1="224.4" y1="24.6" x2="224.4" y2="16.7"/>
	</g>
	<g>
		<path class="st9" d="M219.9,16.7h-23.4c-2.2,0-4-1.8-4-4v0c0-2.2,1.8-4,4-4h3.4h20c2.2,0,4,1.8,4,4v0
			C223.8,14.9,222,16.7,219.9,16.7z"/>
		<line class="st9" x1="199.7" y1="16.7" x2="199.7" y2="8.8"/>
		<line class="st9" x1="207" y1="16.7" x2="207" y2="8.8"/>
		<line class="st9" x1="214.9" y1="16.7" x2="214.9" y2="8.8"/>
	</g>
</g>
</svg>
