<?xml version="1.0" encoding="utf-8"?>
<!-- Generator: Adobe Illustrator 22.0.0, SVG Export Plug-In . SVG Version: 6.00 Build 0)  -->
<svg version="1.1" id="Layer_1" xmlns="http://www.w3.org/2000/svg" xmlns:xlink="http://www.w3.org/1999/xlink" x="0px" y="0px"
	 viewBox="0 0 693 452" style="enable-background:new 0 0 693 452;" xml:space="preserve">
<style type="text/css">
	.st0{fill:#F3FDFE;}
</style>
<g id="illustration-bg" transform="translate(0.000000, 104.000000)">
	<path id="Rectangle-14" class="st0" d="M166.5,134h466c33.4,0,60.5,27.1,60.5,60.5l0,0c0,33.4-27.1,60.5-60.5,60.5h-466
		c-33.4,0-60.5-27.1-60.5-60.5l0,0C106,161.1,133.1,134,166.5,134z"/>
	<path id="Rectangle-14_1_" class="st0" d="M266.5,285h210c17.4,0,31.5,14.1,31.5,31.5l0,0c0,17.4-14.1,31.5-31.5,31.5h-210
		c-17.4,0-31.5-14.1-31.5-31.5l0,0C235,299.1,249.1,285,266.5,285z"/>
	<path id="Rectangle-14_2_" class="st0" d="M60.5,13h483c33.4,0,60.5,27.1,60.5,60.5l0,0c0,33.4-27.1,60.5-60.5,60.5h-483
		C27.1,134,0,106.9,0,73.5l0,0C0,40.1,27.1,13,60.5,13z"/>
	<path id="Rectangle-14_3_" class="st0" d="M193.5-104h406c33.4,0,60.5,27.1,60.5,60.5l0,0c0,33.4-27.1,60.5-60.5,60.5h-406
		C160.1,17,133-10.1,133-43.5l0,0C133-76.9,160.1-104,193.5-104z"/>
</g>
</svg>
