<?xml version="1.0" encoding="utf-8"?>
<!-- Generator: Adobe Illustrator 22.0.0, SVG Export Plug-In . SVG Version: 6.00 Build 0)  -->
<svg version="1.1" id="Layer_1" xmlns="http://www.w3.org/2000/svg" xmlns:xlink="http://www.w3.org/1999/xlink" x="0px" y="0px"
	 viewBox="0 0 156 196.2" style="enable-background:new 0 0 156 196.2;" xml:space="preserve">
<style type="text/css">
	.st0{fill:#FFFFFF;}
	.st1{fill:#FFDB03;}
	.st2{fill:none;stroke:#5C6783;stroke-width:3;}
	.st3{fill:none;stroke:#5C6783;stroke-width:3;stroke-linecap:square;}
	.st4{fill:#FFDB03;stroke:#5C6783;stroke-width:3;stroke-linecap:round;stroke-linejoin:round;}
	.st5{fill:#87DEE8;stroke:#5C6783;stroke-width:3;stroke-linecap:square;}
	.st6{fill:none;stroke:#5C6783;stroke-width:3;stroke-linecap:round;stroke-linejoin:round;}
	.st7{fill:#FFFFFF;stroke:#5C6783;stroke-width:3;stroke-linecap:square;}
</style>
<g>
	<path id="Rectangle-12_3_" class="st0" d="M156,187.4v4c0,2.2-1.8,4-4,4H4c-2.2,0-4-1.8-4-4l0-4"/>
	<g>
		<line id="Rectangle-12_4_" class="st1" x1="152" y1="187.9" x2="4" y2="187.9"/>
		<path id="Rectangle-12_1_" class="st2" d="M1.5,186.7v5.5c0,1.4,1.1,2.5,2.5,2.5h148c1.4,0,2.5-1.1,2.5-2.5v-4.5"/>
		<path id="Line-9_4_" class="st3" d="M2,188.2h152.5"/>
	</g>
</g>
<g>
	<path class="st4" d="M106.2,187.9h23.4c2.2,0,4-1.8,4-4l0,0c0-2.2-1.8-4-4-4h-3.4h-20c-2.2,0-4,1.8-4,4l0,0
		C102.2,186.2,104,187.9,106.2,187.9z"/>
	<line class="st4" x1="126.3" y1="187.9" x2="126.3" y2="180"/>
	<line class="st4" x1="119" y1="187.9" x2="119" y2="180"/>
	<line class="st4" x1="111.1" y1="187.9" x2="111.1" y2="180"/>
</g>
<g>
	<path class="st4" d="M66.8,187.9h23.4c2.2,0,4-1.8,4-4l0,0c0-2.2-1.8-4-4-4h-3.4h-20c-2.2,0-4,1.8-4,4l0,0
		C62.9,186.2,64.7,187.9,66.8,187.9z"/>
	<line class="st4" x1="87" y1="187.9" x2="87" y2="180"/>
	<line class="st4" x1="79.7" y1="187.9" x2="79.7" y2="180"/>
	<line class="st4" x1="71.8" y1="187.9" x2="71.8" y2="180"/>
</g>
<g>
	<path class="st4" d="M66.8,179.4h23.4c2.2,0,4-1.8,4-4l0,0c0-2.2-1.8-4-4-4h-3.4h-20c-2.2,0-4,1.8-4,4l0,0
		C62.9,177.6,64.7,179.4,66.8,179.4z"/>
	<line class="st4" x1="87" y1="179.4" x2="87" y2="171.5"/>
	<line class="st4" x1="79.7" y1="179.4" x2="79.7" y2="171.5"/>
	<line class="st4" x1="71.8" y1="179.4" x2="71.8" y2="171.5"/>
</g>
<g>
	<path class="st4" d="M64,171.5h23.4c2.2,0,4-1.8,4-4v0c0-2.2-1.8-4-4-4H84H64c-2.2,0-4,1.8-4,4v0C60.1,169.7,61.9,171.5,64,171.5z"
		/>
	<line class="st4" x1="84.2" y1="171.5" x2="84.2" y2="163.6"/>
	<line class="st4" x1="76.9" y1="171.5" x2="76.9" y2="163.6"/>
	<line class="st4" x1="69" y1="171.5" x2="69" y2="163.6"/>
</g>
<g>
	<path class="st4" d="M27.5,187.9h23.4c2.2,0,4-1.8,4-4l0,0c0-2.2-1.8-4-4-4h-3.4h-20c-2.2,0-4,1.8-4,4l0,0
		C23.6,186.2,25.3,187.9,27.5,187.9z"/>
	<line class="st4" x1="47.7" y1="187.9" x2="47.7" y2="180"/>
	<line class="st4" x1="40.4" y1="187.9" x2="40.4" y2="180"/>
	<line class="st4" x1="32.4" y1="187.9" x2="32.4" y2="180"/>
</g>
<g>
	<path class="st4" d="M21.9,180h23.4c2.2,0,4-1.8,4-4v0c0-2.2-1.8-4-4-4h-3.4h-20c-2.2,0-4,1.8-4,4v0C17.9,178.3,19.7,180,21.9,180z
		"/>
	<line class="st4" x1="42" y1="180" x2="42" y2="172.1"/>
	<line class="st4" x1="34.7" y1="180" x2="34.7" y2="172.1"/>
	<line class="st4" x1="26.8" y1="180" x2="26.8" y2="172.1"/>
</g>
<g>
	<path class="st4" d="M26.1,172.1h23.4c2.2,0,4-1.8,4-4l0,0c0-2.2-1.8-4-4-4h-3.4h-20c-2.2,0-4,1.8-4,4l0,0
		C22.2,170.4,23.9,172.1,26.1,172.1z"/>
	<line class="st4" x1="46.3" y1="172.1" x2="46.3" y2="164.2"/>
	<line class="st4" x1="39" y1="172.1" x2="39" y2="164.2"/>
	<line class="st4" x1="31" y1="172.1" x2="31" y2="164.2"/>
</g>
<g>
	<path class="st4" d="M110.7,179.4h23.4c2.2,0,4-1.8,4-4l0,0c0-2.2-1.8-4-4-4h-3.4h-20c-2.2,0-4,1.8-4,4l0,0
		C106.7,177.6,108.5,179.4,110.7,179.4z"/>
	<line class="st4" x1="130.8" y1="179.4" x2="130.8" y2="171.5"/>
	<line class="st4" x1="123.5" y1="179.4" x2="123.5" y2="171.5"/>
	<line class="st4" x1="115.6" y1="179.4" x2="115.6" y2="171.5"/>
</g>
<g>
	<path class="st4" d="M103.9,171.5h23.4c2.2,0,4-1.8,4-4v0c0-2.2-1.8-4-4-4h-3.4h-20c-2.2,0-4,1.8-4,4v0
		C99.9,169.7,101.7,171.5,103.9,171.5z"/>
	<line class="st4" x1="124" y1="171.5" x2="124" y2="163.6"/>
	<line class="st4" x1="116.7" y1="171.5" x2="116.7" y2="163.6"/>
	<line class="st4" x1="108.8" y1="171.5" x2="108.8" y2="163.6"/>
</g>
<line class="st5" x1="73.9" y1="1.5" x2="73.9" y2="77.6"/>
<polyline class="st6" points="152,187.9 73.9,82.8 4,187.9 "/>
<circle class="st7" cx="73.9" cy="82.8" r="5.1"/>
</svg>
