<?xml version="1.0" encoding="utf-8"?>
<!-- Generator: Adobe Illustrator 22.0.0, SVG Export Plug-In . SVG Version: 6.00 Build 0)  -->
<svg version="1.1" xmlns="http://www.w3.org/2000/svg" xmlns:xlink="http://www.w3.org/1999/xlink" x="0px" y="0px"
	 viewBox="0 0 505.1 37" style="enable-background:new 0 0 505.1 37;" xml:space="preserve">
<style type="text/css">
	.st0{fill:#87DEE8;}
	.st1{fill:none;stroke:#5C6783;stroke-width:3;}
	.st2{fill:#FFDB03;}
	.st3{fill:#FFFFFF;stroke:#5C6783;stroke-width:3;}
	.st4{fill:none;stroke:#5C6783;stroke-width:3;stroke-linecap:round;}
	.st5{fill:#FFFFFF;stroke:#5C6783;stroke-width:3;stroke-linecap:round;stroke-linejoin:round;}
	.st6{fill:none;stroke:#5C6783;stroke-width:3;stroke-linecap:square;}
</style>
<g id="Layer_1">
	<g id="train_1_" transform="translate(69.000000, 428.000000)">
		<g id="wagon_2_" transform="translate(166.000000, 0.000000)">
			<g id="Rectangle-3_3_">
				<g>
					<path id="path-12" class="st0" d="M110.5-428H233l0,0c4.6,0,9.2,1,13.4,2.9c5,2.3,9.3,5.3,13,9.1c4.6,4.7,8.1,11.2,10.5,19.5
						l0,0c0.6,2.3-0.7,4.7-3,5.3c-0.4,0.1-0.8,0.2-1.2,0.2H110.3l0,0c-2.4,0-4.3-1.9-4.3-4.3c0,0,0,0,0,0l0.2-28.4l0,0
						C106.2-426.1,108.1-428,110.5-428z"/>
				</g>
				<path class="st1" d="M110.5-426.5c-1.5,0-2.8,1.2-2.8,2.8l-0.2,28.4c0,0,0,0,0,0c0,1.5,1.3,2.8,2.8,2.8h155.5
					c0.3,0,0.5,0,0.8-0.1c1.5-0.4,2.4-2,1.9-3.5c-2.3-8.1-5.7-14.4-10.1-18.9c-3.6-3.6-7.8-6.5-12.6-8.7c-4-1.8-8.4-2.8-12.8-2.8
					H110.5z"/>
			</g>
			<path id="Rectangle-3_4_" class="st2" d="M110.2-412c45.5,0,91.1,0,136.6,0c5.3,1.3,10.3,8.3,15,21H110.2l0,0
				c-2.4,0-4.3-1.9-4.3-4.3v-12.4l0,0C105.9-410.1,107.9-412,110.2-412z"/>
			<path id="Rectangle-3_5_" class="st1" d="M110.5-426.5c-1.5,0-2.8,1.2-2.8,2.8l-0.2,28.4c0,0,0,0,0,0c0,1.5,1.3,2.8,2.8,2.8
				h155.5c0.3,0,0.5,0,0.8-0.1c1.5-0.4,2.4-2,1.9-3.5c-2.3-8.1-5.7-14.4-10.1-18.9c-3.6-3.6-7.8-6.5-12.6-8.7
				c-4-1.8-8.4-2.8-12.8-2.8H110.5z"/>
			<path id="Rectangle-4_9_" class="st3" d="M202.8-416.9h21.7l0,0c0.6,0,1,0.4,1,1v5.9l0,0c0,0.6-0.4,1-1,1h-21.7l0,0
				c-0.6,0-1-0.4-1-1v-5.9l0,0C201.8-416.5,202.3-416.9,202.8-416.9z"/>
			<path id="Line-9_4_" class="st4" d="M108.8-399.5h70"/>
			<path id="Line-9_5_" class="st4" d="M190.8-399.5h75"/>
			<path id="Rectangle-4_10_" class="st3" d="M144.8-416.9h21.7l0,0c0.6,0,1,0.4,1,1v5.9l0,0c0,0.6-0.4,1-1,1h-21.7l0,0
				c-0.6,0-1-0.4-1-1v-5.9l0,0C143.8-416.5,144.3-416.9,144.8-416.9z"/>
			<path id="Rectangle-4_11_" class="st3" d="M120.8-416.9h21.7l0,0c0.6,0,1,0.4,1,1v5.9l0,0c0,0.6-0.4,1-1,1h-21.7l0,0
				c-0.6,0-1-0.4-1-1v-5.9l0,0C119.8-416.5,120.3-416.9,120.8-416.9z"/>
			<path id="Rectangle-4_12_" class="st3" d="M179.2-394v-21.7l0,0c0-0.6,0.4-1,1-1h8.9l0,0c0.6,0,1,0.4,1,1v21.7l0,0
				c0,0.6-0.4,1-1,1h-8.9l0,0C179.7-393,179.2-393.4,179.2-394z"/>
			<path id="Path-5_1_" class="st5" d="M249.3-409h-24v-7.9c0,0,1.1,0,3.2,0c4.1,0,10.4,0.1,13.8,1.9
				C244.9-413.6,247.3-411.6,249.3-409z"/>
		</g>
		<g id="wagon_4_" transform="translate(166.000000, 0.000000)">
			<g id="Rectangle-3_8_">
				<g>
					<path id="path-12_1_" class="st0" d="M-75.4-428h-122.5l0,0c-4.6,0-9.2,1-13.4,2.9c-5,2.3-9.3,5.3-13,9.1
						c-4.6,4.7-8.1,11.2-10.5,19.5h0c-0.6,2.3,0.7,4.7,3,5.3c0.4,0.1,0.8,0.2,1.2,0.2h155.5l0,0c2.4,0,4.3-1.9,4.3-4.3c0,0,0,0,0,0
						l-0.2-28.4l0,0C-71.1-426.1-73-428-75.4-428z"/>
				</g>
				<path class="st1" d="M-75.4-426.5c1.5,0,2.8,1.2,2.8,2.8l0.2,28.4c0,0,0,0,0,0c0,1.5-1.3,2.8-2.8,2.8h-155.5
					c-0.3,0-0.5,0-0.8-0.1c-1.5-0.4-2.4-2-1.9-3.5c2.3-8.1,5.7-14.4,10.1-18.9c3.6-3.6,7.8-6.5,12.6-8.7c4-1.8,8.4-2.8,12.8-2.8
					H-75.4z"/>
			</g>
			<path id="Rectangle-3_7_" class="st2" d="M-75.2-412c-45.5,0-91.1,0-136.6,0c-5.3,1.3-10.3,8.3-15,21h151.6l0,0
				c2.4,0,4.3-1.9,4.3-4.3v-12.4l0,0C-70.9-410.1-72.8-412-75.2-412z"/>
			<path id="Rectangle-3_6_" class="st1" d="M-75.4-426.5c1.5,0,2.8,1.2,2.8,2.8l0.2,28.4c0,0,0,0,0,0c0,1.5-1.3,2.8-2.8,2.8h-155.5
				c-0.3,0-0.5,0-0.8-0.1c-1.5-0.4-2.4-2-1.9-3.5c2.3-8.1,5.7-14.4,10.1-18.9c3.6-3.6,7.8-6.5,12.6-8.7c4-1.8,8.4-2.8,12.8-2.8
				H-75.4z"/>
			<path id="Rectangle-4_21_" class="st3" d="M-167.7-416.9h-21.7l0,0c-0.6,0-1,0.4-1,1v5.9l0,0c0,0.6,0.4,1,1,1h21.7l0,0
				c0.6,0,1-0.4,1-1v-5.9l0,0C-166.7-416.5-167.2-416.9-167.7-416.9z"/>
			<path id="Line-9_9_" class="st4" d="M-73.7-399.5h-70"/>
			<path id="Line-9_8_" class="st4" d="M-155.7-399.5h-75"/>
			<path id="Rectangle-4_20_" class="st3" d="M-109.7-416.9h-21.7l0,0c-0.6,0-1,0.4-1,1v5.9l0,0c0,0.6,0.4,1,1,1h21.7l0,0
				c0.6,0,1-0.4,1-1v-5.9l0,0C-108.7-416.5-109.2-416.9-109.7-416.9z"/>
			<path id="Rectangle-4_19_" class="st3" d="M-85.7-416.9h-21.7l0,0c-0.6,0-1,0.4-1,1v5.9l0,0c0,0.6,0.4,1,1,1h21.7l0,0
				c0.6,0,1-0.4,1-1v-5.9l0,0C-84.7-416.5-85.2-416.9-85.7-416.9z"/>
			<path id="Rectangle-4_18_" class="st3" d="M-144.2-394v-21.7l0,0c0-0.6-0.4-1-1-1h-8.9l0,0c-0.6,0-1,0.4-1,1v21.7l0,0
				c0,0.6,0.4,1,1,1h8.9l0,0C-144.6-393-144.2-393.4-144.2-394z"/>
			<path id="Path-5_2_" class="st5" d="M-214.2-409h24v-7.9c0,0-1.1,0-3.2,0c-4.1,0-10.4,0.1-13.8,1.9
				C-209.8-413.6-212.2-411.6-214.2-409z"/>
		</g>
		<g id="wagon_3_">
			<g id="Rectangle-12_3_">
				<g>
					<path id="path-13" class="st0" d="M109.8-428h148l0,0c2.2,0,4,1.8,4,4v29l0,0c0,2.2-1.8,4-4,4h-148l0,0c-2.2,0-4-1.8-4-4v-29
						l0,0C105.8-426.2,107.6-428,109.8-428z"/>
				</g>
				<path class="st1" d="M109.8-426.5c-1.4,0-2.5,1.1-2.5,2.5v29c0,1.4,1.1,2.5,2.5,2.5h148c1.4,0,2.5-1.1,2.5-2.5v-29
					c0-1.4-1.1-2.5-2.5-2.5H109.8z"/>
			</g>
			<path id="Rectangle-12_4_" class="st2" d="M109.8-413h148c2.2,0,4,1.8,4,4v14c0,2.2-1.8,4-4,4h-148c-2.2,0-4-1.8-4-4v-14
				C105.8-411.2,107.6-413,109.8-413z"/>
			<path id="Rectangle-12_5_" class="st1" d="M109.8-426.5c-1.4,0-2.5,1.1-2.5,2.5v29c0,1.4,1.1,2.5,2.5,2.5h148
				c1.4,0,2.5-1.1,2.5-2.5v-29c0-1.4-1.1-2.5-2.5-2.5H109.8z"/>
			<path id="Line-9_6_" class="st6" d="M108.8-399h70"/>
			<path id="Line-9_7_" class="st6" d="M189.8-399h70"/>
			<path id="Rectangle-4_13_" class="st3" d="M178.3-393.5v-22l0,0c0-0.6,0.4-1,1-1h9l0,0c0.6,0,1,0.4,1,1v22l0,0c0,0.6-0.4,1-1,1
				h-9l0,0C178.8-392.5,178.3-392.9,178.3-393.5z"/>
			<path id="Rectangle-4_14_" class="st3" d="M225.8-417h22l0,0c0.6,0,1,0.4,1,1v6l0,0c0,0.6-0.4,1-1,1h-22l0,0c-0.6,0-1-0.4-1-1v-6
				l0,0C224.8-416.6,225.3-417,225.8-417z"/>
			<path id="Rectangle-4_15_" class="st3" d="M201.8-417h22l0,0c0.6,0,1,0.4,1,1v6l0,0c0,0.6-0.4,1-1,1h-22l0,0c-0.6,0-1-0.4-1-1v-6
				l0,0C200.8-416.6,201.3-417,201.8-417z"/>
			<path id="Rectangle-4_16_" class="st3" d="M143.8-417h22l0,0c0.6,0,1,0.4,1,1v6l0,0c0,0.6-0.4,1-1,1h-22l0,0c-0.6,0-1-0.4-1-1v-6
				l0,0C142.8-416.6,143.3-417,143.8-417z"/>
			<path id="Rectangle-4_17_" class="st3" d="M119.8-417h22l0,0c0.6,0,1,0.4,1,1v6l0,0c0,0.6-0.4,1-1,1h-22l0,0c-0.6,0-1-0.4-1-1v-6
				l0,0C118.8-416.6,119.3-417,119.8-417z"/>
		</g>
	</g>
</g>
<g id="Layer_2">
</g>
</svg>
