<?xml version="1.0" encoding="utf-8"?>
<!-- Generator: Adobe Illustrator 22.0.0, SVG Export Plug-In . SVG Version: 6.00 Build 0)  -->
<svg version="1.1" xmlns="http://www.w3.org/2000/svg" xmlns:xlink="http://www.w3.org/1999/xlink" x="0px" y="0px"
	 viewBox="0 0 53 174" style="enable-background:new 0 0 53 174;" xml:space="preserve">
<style type="text/css">
	.st0{fill:#87DEE8;stroke:#5C6783;stroke-width:3;stroke-linecap:round;stroke-linejoin:round;}
	.st1{fill:#A08AC9;}
	.st2{fill:none;stroke:#5C6783;stroke-width:3;stroke-linecap:round;stroke-linejoin:round;}
</style>
<g id="Layer_1">
	<g id="plant_2_" transform="translate(358.000000, 0.000000)">
		<path id="Rectangle-5_4_" class="st0" d="M-356.5,172.5c20.8-35.2,22.5-102.8,21-171c17.4,0-9.3,0,8.1,0
			c-1.5,67.6,0.1,135.3,21,171H-356.5z"/>
		<path id="Rectangle-5_5_" class="st1" d="M-331.5,1.5c4,0,4,0,4,0c-1.5,67.6,0.1,135.3,21,171c-11.3,0-19.6,0-25,0
			C-331.3,162.5-331.5,21.5-331.5,1.5z"/>
		<path id="Rectangle-5_6_" class="st2" d="M-356.5,172.5c20.8-35.2,22.5-102.8,21-171c17.4,0-9.3,0,8.1,0
			c-1.5,67.6,0.1,135.3,21,171H-356.5z"/>
	</g>
</g>
<g id="Layer_2">
</g>
</svg>
