<?xml version="1.0" encoding="utf-8"?>
<!-- Generator: Adobe Illustrator 22.0.0, SVG Export Plug-In . SVG Version: 6.00 Build 0)  -->
<svg version="1.1" id="Layer_1" xmlns="http://www.w3.org/2000/svg" xmlns:xlink="http://www.w3.org/1999/xlink" x="0px" y="0px"
	 viewBox="0 0 69.7 90" style="enable-background:new 0 0 69.7 90;" xml:space="preserve">
<style type="text/css">
	.st0{fill:#87DEE8;stroke:#5C6783;stroke-width:3;}
	.st1{fill:#A08AC9;}
	.st2{fill:none;stroke:#5C6783;stroke-width:3;}
</style>
<path id="Oval-2_1_" class="st0" d="M11.8,21.5c0-11,9-20,23-20s23,9.1,23,20c0,14,3.3,36.3,10,67h-66C8.5,56.5,11.8,34.2,11.8,21.5
	z"/>
<path id="Oval-2_2_" class="st1" d="M23.8,5.5c17-8,34,3.3,34,16c0,14,3.3,36.3,10,67c-6,0-12,0-18,0c-1-20-3-44-4.5-64
	C44.3,11.5,37.8,2.5,23.8,5.5z"/>
<path id="Oval-2_3_" class="st2" d="M11.8,21.5c0-11,9-20,23-20s23,9.1,23,20c0,14,3.3,36.3,10,67h-66C8.5,56.5,11.8,34.2,11.8,21.5
	z"/>
<g id="Rectangle-17">
	<g>
		<path id="path-27" class="st1" d="M35.3,62.5L35.3,62.5L35.3,62.5c4.1,0,7.5,3.4,7.5,7.5v19.5h-15V70l0,0
			C27.8,65.9,31.2,62.5,35.3,62.5z"/>
	</g>
	<path class="st2" d="M29.3,88h12V70c0-3.3-2.7-6-6-6s-6,2.7-6,6V88z"/>
</g>
</svg>
