<?xml version="1.0" encoding="utf-8" ?>
<svg xmlns="http://www.w3.org/2000/svg" xmlns:xlink="http://www.w3.org/1999/xlink" width="574" height="347">
	<defs>
		<clipPath id="clip_0">
			<rect x="-147.2525" y="-1184.2625" width="1436.3999" height="8495.708" clip-rule="evenodd"/>
		</clipPath>
		<linearGradient id="gradient_0" gradientUnits="userSpaceOnUse" x1="413.07037" y1="232.25987" x2="0" y2="29.116377">
			<stop offset="0" stop-color="rgb(255,255,255)"/>
			<stop offset="0.93611145" stop-color="rgb(222,238,254)"/>
			<stop offset="1" stop-color="rgb(191,221,253)"/>
		</linearGradient>
	</defs>
	<g clip-path="url(#clip_0)">
		<path fill="url(#gradient_0)" stroke="none" transform="matrix(0.9975 0 0 0.9975 32.3093 31.9717)" d="M14.1038 232.26C14.1038 232.26 -33.1724 44.0608 78.0219 6.61575C189.216 -30.8293 241.178 103.392 288.786 92.2483C336.394 81.1044 394.539 17.1886 461.607 67.8321C528.816 118.196 485.26 232.26 485.26 232.26L14.1038 232.26Z"/>
	</g>
	<defs>
		<clipPath id="clip_1">
			<rect x="-147.2525" y="-1184.2625" width="1436.3999" height="8495.708" clip-rule="evenodd"/>
		</clipPath>
	</defs>
	<g clip-path="url(#clip_1)">
		<path fill="rgb(196,226,255)" stroke="none" transform="matrix(0.9975 0 0 0.9975 38.7668 252.234)" d="M5.72254 8.67437e-14L481.838 0C484.999 4.33718e-14 487.561 2.56207 487.561 5.72254C487.561 8.88301 484.999 11.4451 481.838 11.4451L5.72254 11.4451C2.56207 11.4451 0 8.88301 0 5.72254C0 2.56207 2.56207 8.67437e-14 5.72254 8.67437e-14Z"/>
	</g>
	<defs>
		<clipPath id="clip_2">
			<rect x="-147.2525" y="-1184.2625" width="1436.3999" height="8495.708" clip-rule="evenodd"/>
		</clipPath>
		<linearGradient id="gradient_1" gradientUnits="userSpaceOnUse" x1="0.00011475536" y1="126.26212" x2="115.79178" y2="126.26212">
			<stop offset="0" stop-color="rgb(11,207,158)"/>
			<stop offset="1" stop-color="rgb(117,216,142)"/>
		</linearGradient>
	</defs>
	<g clip-path="url(#clip_2)">
		<path fill="url(#gradient_1)" stroke="none" transform="matrix(0.9975 0 0 0.9975 364.517 0.310791)" d="M28.1324 59.0404L1.14451 59.0404C0.512414 59.0404 0 58.528 0 57.8959C0 57.5917 0.121087 57.3 0.336519 57.0853L57.2704 0.333921C57.718 -0.11232 58.4427 -0.111156 58.8889 0.336519L58.889 0.336523L58.8889 0.336527L115.458 57.0879C115.904 57.5356 115.903 58.2602 115.455 58.7065C115.241 58.9203 114.95 59.0404 114.647 59.0404L87.6468 59.0404L87.6468 252.462L28.1324 252.462L28.1324 59.0404Z"/>
	</g>
	<defs>
		<clipPath id="clip_3">
			<rect x="-147.2525" y="-1184.2625" width="1436.3999" height="8495.708" clip-rule="evenodd"/>
		</clipPath>
		<linearGradient id="gradient_2" gradientUnits="userSpaceOnUse" x1="0.00011475535" y1="97.642387" x2="115.79177" y2="97.642387">
			<stop offset="0" stop-color="rgb(11,207,158)"/>
			<stop offset="1" stop-color="rgb(117,216,142)"/>
		</linearGradient>
	</defs>
	<g clip-path="url(#clip_3)">
		<path fill="url(#gradient_2)" stroke="none" transform="matrix(0.9975 0 0 0.9975 75.2996 57.3931)" d="M28.1324 59.0404L1.14451 59.0404C0.512414 59.0404 0 58.528 0 57.8959C0 57.5917 0.121087 57.3 0.336519 57.0853L57.2704 0.333921C57.718 -0.11232 58.4427 -0.111156 58.8889 0.336519L58.8889 0.336523L58.8889 0.336527L115.458 57.0879C115.904 57.5356 115.903 58.2602 115.455 58.7065C115.241 58.9203 114.95 59.0404 114.647 59.0404L87.6468 59.0404L87.6468 195.237L28.1324 195.237L28.1324 59.0404Z"/>
	</g>
	<defs>
		<clipPath id="clip_4">
			<rect x="-147.2525" y="-1184.2625" width="1436.3999" height="8495.708" clip-rule="evenodd"/>
		</clipPath>
		<linearGradient id="gradient_3" gradientUnits="userSpaceOnUse" x1="70.037186" y1="141.12247" x2="16.932966" y2="-3.0903835">
			<stop offset="0" stop-color="rgb(35,86,217)"/>
			<stop offset="1" stop-color="rgb(58,112,250)"/>
		</linearGradient>
	</defs>
	<g clip-path="url(#clip_4)">
		<path fill="url(#gradient_3)" stroke="none" transform="matrix(0.9975 0 0 0.9975 449.785 85.9954)" d="M27.8779 0.671756C11.2242 4.53238 -7.01137 18.9955 2.68702 60.458C12.4533 101.705 85.6489 134.687 85.6489 134.687L63.8168 19.145C63.8168 19.145 44.8635 -3.35046 27.8779 0.671756Z"/>
	</g>
	<defs>
		<clipPath id="clip_5">
			<rect x="-147.2525" y="-1184.2625" width="1436.3999" height="8495.708" clip-rule="evenodd"/>
		</clipPath>
	</defs>
	<g clip-path="url(#clip_5)">
		<path fill="rgb(255,215,178)" stroke="none" transform="matrix(0.9975 0 0 0.9975 335.863 258.651)" d="M-0.925126 -8.67632C-7.22382 -16.7523 19.1126 -13.6657 30.8157 -23.8468C42.5188 -34.0279 50.6047 -39.8227 50.6047 -39.8227L69.8841 -32.7917C69.8841 -32.7917 45.7034 -24.2643 45.6283 -17.2222C45.5532 -10.1801 40.503 -5.12829 30.6295 -6.38684C20.756 -7.64538 5.37357 -0.600299 -0.925126 -8.67632Z"/>
	</g>
	<defs>
		<clipPath id="clip_6">
			<rect x="-147.2525" y="-1184.2625" width="1436.3999" height="8495.708" clip-rule="evenodd"/>
		</clipPath>
		<linearGradient id="gradient_4" gradientUnits="userSpaceOnUse" x1="35.884308" y1="0" x2="35.884308" y2="35.088108">
			<stop offset="0" stop-color="rgb(167,167,238)" stop-opacity="0"/>
			<stop offset="1" stop-color="rgb(76,85,160)" stop-opacity="0.2"/>
		</linearGradient>
	</defs>
	<g clip-path="url(#clip_6)">
		<path fill="url(#gradient_4)" stroke="none" transform="matrix(0.9975 0 0 0.9975 335.863 258.651)" d="M-0.925126 -8.67632C-7.22382 -16.7523 19.1126 -13.6657 30.8157 -23.8468C42.5188 -34.0279 50.6047 -39.8227 50.6047 -39.8227L69.8841 -32.7917C69.8841 -32.7917 45.7034 -24.2643 45.6283 -17.2222C45.5532 -10.1801 40.503 -5.12829 30.6295 -6.38684C20.756 -7.64538 5.37357 -0.600299 -0.925126 -8.67632Z"/>
	</g>
	<defs>
		<clipPath id="clip_7">
			<rect x="-147.2525" y="-1184.2625" width="1436.3999" height="8495.708" clip-rule="evenodd"/>
		</clipPath>
		<linearGradient id="gradient_5" gradientUnits="userSpaceOnUse" x1="167.04221" y1="36.507679" x2="-0.00026217819" y2="36.507679">
			<stop offset="0" stop-color="rgb(255,255,255)"/>
			<stop offset="1" stop-color="rgb(191,221,253)"/>
		</linearGradient>
	</defs>
	<g clip-path="url(#clip_7)">
		<path fill="url(#gradient_5)" stroke="none" transform="matrix(0.9975 0 0 0.9975 370.55 176.456)" d="M166.261 59.5362C160.608 77.0529 132.938 72.4757 114.777 72.4757C109.143 72.4757 75.4985 34.1193 73.3888 34.1193C71.2792 34.1193 17.5966 65.6755 17.5966 65.6755C17.5966 65.6755 9.20227 65.8255 3.92298 59.5362C-1.35631 53.2468 0.468924 47.0817 0.468924 47.0817C0.468924 47.0817 58.7404 8.23294e-16 73.3888 0C88.0373 0 125.226 38.8054 132.311 38.8054C151.062 38.8054 171.913 42.0194 166.261 59.5362Z"/>
	</g>
	<defs>
		<clipPath id="clip_8">
			<rect x="-147.2525" y="-1184.2625" width="1436.3999" height="8495.708" clip-rule="evenodd"/>
		</clipPath>
		<linearGradient id="gradient_6" gradientUnits="userSpaceOnUse" x1="33.987186" y1="63.776146" x2="3.146394" y2="7.7176657">
			<stop offset="0" stop-color="rgb(255,255,255)"/>
			<stop offset="1" stop-color="rgb(191,221,253)"/>
		</linearGradient>
	</defs>
	<g clip-path="url(#clip_8)">
		<path fill="url(#gradient_6)" stroke="none" transform="matrix(0.9975 0 0 0.9975 484.509 164.075)" d="M12.1172 0C2.59122 -1.78041e-14 1.07092e-12 45.2372 0 48.4018C-1.10471e-12 51.5664 12.516 54.6074 13.9998 53.0209C15.4835 51.4344 27.1192 30.4416 28.2402 21.1907C29.3612 11.9398 21.6432 1.92414e-14 12.1172 0Z"/>
	</g>
	<defs>
		<clipPath id="clip_9">
			<rect x="-147.2525" y="-1184.2625" width="1436.3999" height="8495.708" clip-rule="evenodd"/>
		</clipPath>
	</defs>
	<g clip-path="url(#clip_9)">
		<path fill="rgb(255,217,180)" stroke="none" transform="matrix(0.9975 0 0 0.9975 432.762 227.248)" d="M15.9663 0.59417C9.74838 3.07717 3.96767 5.79681 2.32176 7.4595C0.675852 9.12219 0.000465994 12.6799 0.000465994 15.8708C0.000465994 19.0617 -0.171486 24.8687 6.09081 23.6113C12.3531 22.3539 22.5586 10.9235 22.5586 7.4595C22.5586 3.99549 22.1841 -1.88883 15.9663 0.59417Z"/>
	</g>
	<defs>
		<clipPath id="clip_10">
			<rect x="-147.2525" y="-1184.2625" width="1436.3999" height="8495.708" clip-rule="evenodd"/>
		</clipPath>
		<linearGradient id="gradient_7" gradientUnits="userSpaceOnUse" x1="11.279301" y1="0" x2="11.279301" y2="23.786728">
			<stop offset="0" stop-color="rgb(255,198,44)" stop-opacity="0"/>
			<stop offset="1" stop-color="rgb(255,102,99)" stop-opacity="0.10196079"/>
		</linearGradient>
	</defs>
	<g clip-path="url(#clip_10)">
		<path fill="url(#gradient_7)" stroke="none" transform="matrix(0.9975 0 0 0.9975 432.762 227.248)" d="M15.9663 0.59417C9.74838 3.07717 3.96767 5.79681 2.32176 7.4595C0.675852 9.12219 0.000465994 12.6799 0.000465994 15.8708C0.000465994 19.0617 -0.171486 24.8687 6.09081 23.6113C12.3531 22.3539 22.5586 10.9235 22.5586 7.4595C22.5586 3.99549 22.1841 -1.88883 15.9663 0.59417Z"/>
	</g>
	<defs>
		<clipPath id="clip_11">
			<rect x="-147.2525" y="-1184.2625" width="1436.3999" height="8495.708" clip-rule="evenodd"/>
		</clipPath>
	</defs>
	<g clip-path="url(#clip_11)">
		<path fill="rgb(212,246,255)" stroke="none" transform="matrix(0.9975 0 0 0.9975 358.655 201.249)" d="M4.17811 2.70616e-15L59.0106 0L71.542 51.3893L12.3754 51.3893C11.7977 51.3893 11.2948 50.9943 11.1579 50.4329L0.119933 5.16799C-0.426718 2.92627 0.947042 0.66575 3.18831 0.118988C3.51231 0.039947 3.84461 3.77208e-15 4.17811 2.70616e-15Z"/>
	</g>
	<defs>
		<clipPath id="clip_12">
			<rect x="-147.2525" y="-1184.2625" width="1436.3999" height="8495.708" clip-rule="evenodd"/>
		</clipPath>
	</defs>
	<g clip-path="url(#clip_12)">
		<path fill="rgb(52,106,243)" stroke="none" transform="matrix(0.9975 0 0 0.9975 388.809 223.361)" d="M3.69466 7.38931C5.73516 7.38931 7.38931 5.73516 7.38931 3.69466C7.38931 1.65415 5.73516 0 3.69466 0C1.65415 0 0 1.65415 0 3.69466C0 5.73516 1.65415 7.38931 3.69466 7.38931Z"/>
	</g>
	<defs>
		<clipPath id="clip_13">
			<rect x="-147.2525" y="-1184.2625" width="1436.3999" height="8495.708" clip-rule="evenodd"/>
		</clipPath>
	</defs>
	<g clip-path="url(#clip_13)">
		<path fill="rgb(202,235,244)" stroke="none" transform="matrix(0.9975 0 0 0.9975 415.612 201.249)" d="M14.7481 45.1223L51.6119 45.1223C53.344 45.1223 54.7481 46.5252 54.7481 48.2558C54.7481 49.9864 53.344 51.3893 51.6119 51.3893L11.26 51.3893L11.26 47.9634L0.0471481 2.0295C-0.167751 1.14916 0.372301 0.261444 1.25339 0.0467272C1.38076 0.0156874 1.51139 2.40632e-17 1.6425 0C2.86971 -2.25244e-16 3.93789 0.838251 4.22869 2.0295L14.7481 45.1223Z"/>
	</g>
	<defs>
		<clipPath id="clip_14">
			<rect x="-147.2525" y="-1184.2625" width="1436.3999" height="8495.708" clip-rule="evenodd"/>
		</clipPath>
		<linearGradient id="gradient_8" gradientUnits="userSpaceOnUse" x1="5.785573" y1="14.55566" x2="62.495468" y2="120.28298">
			<stop offset="0" stop-color="rgb(255,255,255)"/>
			<stop offset="1" stop-color="rgb(191,221,253)"/>
		</linearGradient>
	</defs>
	<g clip-path="url(#clip_14)">
		<path fill="url(#gradient_8)" stroke="none" transform="matrix(0.9975 0 0 0.9975 490.666 153.26)" d="M0.915234 16.9156C0.915234 -19.1285 49.3577 4.53264 52.0553 67.9249C54.6 131.555 -11.1597 85.3552 7.38356 73.6348C17.0778 67.4262 12.992 50.562 5.76024 43.5448C-3.12143 34.9267 0.915234 33.3996 0.915234 16.9156Z"/>
	</g>
	<defs>
		<clipPath id="clip_15">
			<rect x="-147.2525" y="-1184.2625" width="1436.3999" height="8495.708" clip-rule="evenodd"/>
		</clipPath>
		<linearGradient id="gradient_9" gradientUnits="userSpaceOnUse" x1="0" y1="0" x2="42.812477" y2="56.252747">
			<stop offset="0" stop-color="rgb(70,77,137)" stop-opacity="0.29803923"/>
			<stop offset="1" stop-color="rgb(167,167,238)" stop-opacity="0"/>
		</linearGradient>
	</defs>
	<g clip-path="url(#clip_15)">
		<path fill="url(#gradient_9)" stroke="none" transform="matrix(0.9975 0 0 0.9975 499.844 195.218)" d="M11.5575 55.7325C7.15334 53.6538 3.11373 50.7007 0.113804 47.5115C2.15546 33.4848 8.86029 0 26.3438 0C31.8967 0 36.7807 2.99836 40.6724 7.58465C41.8153 13.2425 42.5767 19.3424 42.8542 25.8626C43.4799 41.509 39.9756 50.5145 34.6102 55.0248C26.2728 56.641 17.9946 56.4209 11.5575 55.7325L11.5575 55.7325Z" fill-rule="evenodd"/>
	</g>
	<defs>
		<clipPath id="clip_16">
			<rect x="-147.2525" y="-1184.2625" width="1436.3999" height="8495.708" clip-rule="evenodd"/>
		</clipPath>
	</defs>
	<g clip-path="url(#clip_16)">
		<path fill="rgb(255,255,255)" stroke="none" transform="matrix(0.9975 0 0 0.9975 478.433 143.957)" d="M11.084 24.5191C17.2055 24.5191 22.1679 19.0303 22.1679 12.2595C22.1679 5.48878 17.2055 0 11.084 0C4.96246 0 0 5.48878 0 12.2595C0 19.0303 4.96246 24.5191 11.084 24.5191Z"/>
	</g>
	<defs>
		<clipPath id="clip_17">
			<rect x="-147.2525" y="-1184.2625" width="1436.3999" height="8495.708" clip-rule="evenodd"/>
		</clipPath>
	</defs>
	<g clip-path="url(#clip_17)">
		<path fill="rgb(255,255,255)" stroke="none" transform="matrix(0.9975 0 0 0.9975 494.849 149.318)" d="M11.084 24.5191C17.2055 24.5191 22.1679 19.0303 22.1679 12.2595C22.1679 5.48878 17.2055 0 11.084 0C4.96246 0 0 5.48878 0 12.2595C0 19.0303 4.96246 24.5191 11.084 24.5191Z"/>
	</g>
	<defs>
		<clipPath id="clip_18">
			<rect x="-147.2525" y="-1184.2625" width="1436.3999" height="8495.708" clip-rule="evenodd"/>
		</clipPath>
	</defs>
	<g clip-path="url(#clip_18)">
		<path fill="rgb(241,199,158)" stroke="none" transform="matrix(0.9975 0 0 0.9975 484.92 132.293)" d="M0 11.851L18.1869 0L24.4419 10.6883C27.7172 16.285 26.9916 23.3583 22.6483 28.1736C19.6005 31.5526 14.3905 31.8211 11.0115 28.7732C10.449 28.2659 9.95919 27.6834 9.55585 27.0421L0 11.851Z"/>
	</g>
	<defs>
		<clipPath id="clip_19">
			<rect x="-147.2525" y="-1184.2625" width="1436.3999" height="8495.708" clip-rule="evenodd"/>
		</clipPath>
		<linearGradient id="gradient_10" gradientUnits="userSpaceOnUse" x1="13.239982" y1="0" x2="13.239982" y2="30.894472">
			<stop offset="0" stop-color="rgb(255,198,44)" stop-opacity="0"/>
			<stop offset="1" stop-color="rgb(255,102,99)" stop-opacity="0.10196079"/>
		</linearGradient>
	</defs>
	<g clip-path="url(#clip_19)">
		<path fill="url(#gradient_10)" stroke="none" transform="matrix(0.9975 0 0 0.9975 484.92 132.293)" d="M0 11.851L18.1869 0L24.4419 10.6883C27.7172 16.285 26.9916 23.3583 22.6483 28.1736C19.6005 31.5526 14.3905 31.8211 11.0115 28.7732C10.449 28.2659 9.95919 27.6834 9.55585 27.0421L0 11.851Z"/>
	</g>
	<defs>
		<clipPath id="clip_20">
			<rect x="-147.2525" y="-1184.2625" width="1436.3999" height="8495.708" clip-rule="evenodd"/>
		</clipPath>
		<linearGradient id="gradient_11" gradientUnits="userSpaceOnUse" x1="16.311579" y1="6.4411759" x2="0" y2="28.046804">
			<stop offset="0" stop-color="rgb(0,0,0)" stop-opacity="0.10196079"/>
			<stop offset="1" stop-color="rgb(255,102,99)" stop-opacity="0"/>
		</linearGradient>
	</defs>
	<g clip-path="url(#clip_20)">
		<path fill="url(#gradient_11)" stroke="none" transform="matrix(0.9975 0 0 0.9975 484.92 132.293)" d="M25.4804 12.8414C22.9703 19.9153 17.3685 25.5255 10.2999 28.0468C10.0271 27.7316 9.77831 27.3958 9.55585 27.0421L0 11.851L18.1869 0L24.4419 10.6883C24.8499 11.3855 25.1958 12.1056 25.4804 12.8414L25.4804 12.8414Z"/>
	</g>
	<defs>
		<clipPath id="clip_21">
			<rect x="-147.2525" y="-1184.2625" width="1436.3999" height="8495.708" clip-rule="evenodd"/>
		</clipPath>
		<linearGradient id="gradient_12" gradientUnits="userSpaceOnUse" x1="9.9225054" y1="12.05824" x2="107.1824" y2="99.645164">
			<stop offset="0" stop-color="rgb(255,255,255)"/>
			<stop offset="1" stop-color="rgb(191,221,253)"/>
		</linearGradient>
	</defs>
	<g clip-path="url(#clip_21)">
		<path fill="url(#gradient_12)" stroke="none" transform="matrix(0.9975 0 0 0.9975 443.48 156.657)" d="M75.764 0C64.7113 2.08631e-14 55.1936 39.133 55.1936 43.1128C55.1936 47.0927 0 73.555 0 73.555C0 73.555 3.37041 74.2865 5.44449 78.6979C7.51857 83.1092 10.2098 83.5191 10.2098 83.5191C10.2098 83.5191 72.3162 62.1012 75.764 57.7565C79.2119 53.4117 89.0116 39.4841 89.3718 22.3359C89.732 5.1877 86.8168 -1.91245e-14 75.764 0Z"/>
	</g>
	<defs>
		<clipPath id="clip_22">
			<rect x="-147.2525" y="-1184.2625" width="1436.3999" height="8495.708" clip-rule="evenodd"/>
		</clipPath>
	</defs>
	<g clip-path="url(#clip_22)">
		<path fill="rgb(255,255,255)" stroke="none" transform="matrix(0.9975 0 0 0.9975 443.802 155.82)" d="M75.4411 0C75.7193 0 75.9449 0.225566 75.9449 0.503817C75.9449 0.782067 75.7193 1.00763 75.4411 1.00763C70.8712 1.00763 65.9678 8.48514 61.4842 20.7409C58.2802 29.4991 55.3744 41.036 55.3744 43.6166C55.3744 45.2476 51.1846 48.2194 42.4075 53.0703C35.4911 56.8928 15.1342 67.7037 2.57641 73.7604C2.49883 73.7978 2.42114 73.8353 2.34334 73.8728C-0.429509 75.2095 -0.914998 74.3251 1.82621 73.0038C1.91054 72.9632 1.99474 72.9226 2.07882 72.882C14.6442 66.8222 35.0092 56.0079 41.9201 52.1884C50.0854 47.6756 54.3668 44.6389 54.3668 43.6166C54.3668 40.8865 57.296 29.2564 60.5379 20.3947C65.1825 7.69876 70.231 9.54622e-15 75.4411 0Z"/>
	</g>
	<defs>
		<clipPath id="clip_23">
			<rect x="-147.2525" y="-1184.2625" width="1436.3999" height="8495.708" clip-rule="evenodd"/>
		</clipPath>
		<linearGradient id="gradient_13" gradientUnits="userSpaceOnUse" x1="72.011536" y1="141.02193" x2="17.410307" y2="-3.088182">
			<stop offset="0" stop-color="rgb(35,86,217)"/>
			<stop offset="1" stop-color="rgb(58,112,250)"/>
		</linearGradient>
	</defs>
	<g clip-path="url(#clip_23)">
		<path fill="url(#gradient_13)" stroke="none" transform="matrix(0.9975 0 0 0.9975 466.822 83.2593)" d="M40.6918 55.4756C33.9321 71.6133 34.1075 92.4599 42.707 111.903C51.4197 131.398 99.9648 152.93 85.3635 107.201C70.2636 61.3008 75.6194 45.2769 63.8673 23.9031C52.0907 2.78126 32.8166 -6.34788 6.09635 4.75802C-20.1156 15.9411 47.0756 39.3567 40.6918 55.4756Z"/>
	</g>
	<defs>
		<clipPath id="clip_24">
			<rect x="-147.2525" y="-1184.2625" width="1436.3999" height="8495.708" clip-rule="evenodd"/>
		</clipPath>
	</defs>
	<g clip-path="url(#clip_24)">
		<path fill="rgb(255,219,184)" stroke="none" transform="matrix(0.9975 0 0 0.9975 462.841 111.793)" d="M7.73635 0C8.29665 1.90588e-14 23.2865 9.23656 43.3394 10.4122C45.4719 8.77071 50.6913 8.77071 51.0646 15.7863C51.3476 20.7658 49.6447 26.0496 45.3547 26.5343C42.6303 35.8967 38.3121 43.5352 26.8814 45.3435C15.4507 47.1518 8.21949 39.3124 5.72108 34.2595C2.60167 29.278 -0.199413 9.44582 0.0111602 7.38931C3.36636 5.76298 6.96778 -1.91361e-14 7.73635 0Z"/>
	</g>
	<defs>
		<clipPath id="clip_25">
			<rect x="-147.2525" y="-1184.2625" width="1436.3999" height="8495.708" clip-rule="evenodd"/>
		</clipPath>
		<linearGradient id="gradient_14" gradientUnits="userSpaceOnUse" x1="25.547318" y1="0" x2="25.547318" y2="45.609001">
			<stop offset="0" stop-color="rgb(255,198,44)" stop-opacity="0"/>
			<stop offset="1" stop-color="rgb(255,102,99)" stop-opacity="0.10196079"/>
		</linearGradient>
	</defs>
	<g clip-path="url(#clip_25)">
		<path fill="url(#gradient_14)" stroke="none" transform="matrix(0.9975 0 0 0.9975 462.841 111.793)" d="M7.73635 0C8.29665 1.90588e-14 23.2865 9.23656 43.3394 10.4122C45.4719 8.77071 50.6913 8.77071 51.0646 15.7863C51.3476 20.7658 49.6447 26.0496 45.3547 26.5343C42.6303 35.8967 38.3121 43.5352 26.8814 45.3435C15.4507 47.1518 8.21949 39.3124 5.72108 34.2595C2.60167 29.278 -0.199413 9.44582 0.0111602 7.38931C3.36636 5.76298 6.96778 -1.91361e-14 7.73635 0Z"/>
	</g>
	<defs>
		<clipPath id="clip_26">
			<rect x="-147.2525" y="-1184.2625" width="1436.3999" height="8495.708" clip-rule="evenodd"/>
		</clipPath>
	</defs>
	<g clip-path="url(#clip_26)">
		<path fill="rgb(255,215,178)" stroke="none" transform="matrix(0.9975 0 0 0.9975 410.162 300.445)" d="M1.04312 42.7363C-5.80012 32.5534 23.2357 22.9546 24.058 12.9211C24.6062 6.23207 25.3776 2.42921 26.372 1.51251L39.0448 0C39.0686 8.96107 40.083 15.5988 42.0881 19.9131C45.0958 26.3846 41.0481 33.4171 30.7091 33.9522C20.3702 34.4873 7.88636 52.9193 1.04312 42.7363Z"/>
	</g>
	<defs>
		<clipPath id="clip_27">
			<rect x="-147.2525" y="-1184.2625" width="1436.3999" height="8495.708" clip-rule="evenodd"/>
		</clipPath>
		<linearGradient id="gradient_15" gradientUnits="userSpaceOnUse" x1="21.528629" y1="0" x2="21.528629" y2="45.798447">
			<stop offset="0" stop-color="rgb(167,167,238)" stop-opacity="0"/>
			<stop offset="1" stop-color="rgb(76,85,160)" stop-opacity="0.11764706"/>
		</linearGradient>
	</defs>
	<g clip-path="url(#clip_27)">
		<path fill="url(#gradient_15)" fill-opacity="0.58823532" stroke="none" transform="matrix(0.9975 0 0 0.9975 410.162 300.445)" d="M1.04312 42.7363C-5.80012 32.5534 23.2357 22.9546 24.058 12.9211C24.6062 6.23207 25.3776 2.42921 26.372 1.51251L39.0448 0C39.0686 8.96107 40.083 15.5988 42.0881 19.9131C45.0958 26.3846 41.0481 33.4171 30.7091 33.9522C20.3702 34.4873 7.88636 52.9193 1.04312 42.7363Z"/>
	</g>
	<defs>
		<clipPath id="clip_28">
			<rect x="-147.2525" y="-1184.2625" width="1436.3999" height="8495.708" clip-rule="evenodd"/>
		</clipPath>
		<linearGradient id="gradient_16" gradientUnits="userSpaceOnUse" x1="54.692951" y1="89.950935" x2="54.692951" y2="-0.00064549333">
			<stop offset="0" stop-color="rgb(255,255,255)"/>
			<stop offset="1" stop-color="rgb(191,221,253)"/>
		</linearGradient>
	</defs>
	<g clip-path="url(#clip_28)">
		<path fill="url(#gradient_16)" stroke="none" transform="matrix(0.9975 0 0 0.9975 433.355 221.885)" d="M80.6303 41.7849C69.8623 41.7849 46.444 41.7849 39.6072 41.7849C39.6072 41.7849 19.5755 86.8089 19.5755 86.8089C19.5755 86.8089 16.4398 90.4273 9.15848 90.4273C1.87713 90.4273 0 86.8089 0 86.8089C0 86.8089 4.35929 11.321 25.1938 6.74052C73.3044 -3.83662 109.321 2.18375 109.321 2.18375C109.321 2.18375 112.11 41.7849 80.6303 41.7849Z"/>
	</g>
	<defs>
		<clipPath id="clip_29">
			<rect x="-147.2525" y="-1184.2625" width="1436.3999" height="8495.708" clip-rule="evenodd"/>
		</clipPath>
		<linearGradient id="gradient_17" gradientUnits="userSpaceOnUse" x1="437.90073" y1="182.13493" x2="105.87173" y2="-3.9884989">
			<stop offset="0" stop-color="rgb(35,86,217)" stop-opacity="0.19215687"/>
			<stop offset="1" stop-color="rgb(58,112,250)" stop-opacity="0.19215687"/>
		</linearGradient>
	</defs>
	<g clip-path="url(#clip_29)">
		<path fill="url(#gradient_17)" fill-opacity="0.19215687" stroke="none" transform="matrix(0.9975 0 0 0.9975 0.723694 65.8408)" d="M534.424 59.2835C534.768 58.5749 535.625 59.4251 535.63 60.4785C535.635 61.532 534.785 62.3899 533.731 62.3946C527.35 62.4231 522.729 67.1248 519.13 76.6841C516.275 84.269 514.681 92.0033 511.674 110.42C508.553 129.529 506.886 137.565 503.837 145.562C499.654 156.533 493.766 162.413 485.277 162.39C480.642 162.403 476.753 159.716 473.561 154.716C470.788 150.372 468.477 144.212 466.478 136.191C463.33 123.561 461.436 109.9 458.35 81.4005C458.294 80.8817 458.236 80.3459 458.162 79.6624C458.14 79.4553 458.012 78.2673 457.975 77.9254C454.941 49.8695 453.287 37.5745 450.504 25.8343C447.023 11.147 442.604 3.81503 437.202 3.81503C431.293 3.81503 426.736 9.01079 423.002 19.5671C420.041 27.9374 418.283 36.4254 414.828 56.7032C411.321 77.2856 409.549 85.8488 406.496 94.4931C402.293 106.39 396.715 112.763 388.751 112.766C381.176 112.763 375.425 109.803 370.905 104.179C367.55 100.004 365.429 95.5828 361.826 86.367C361.759 86.1974 361.692 86.0251 361.601 85.7909C361.488 85.5033 361.488 85.5033 361.376 85.216C357.985 76.5362 356.183 72.6948 353.44 69.1335C350 64.6673 345.883 62.4234 340.31 62.3946C335.561 62.4191 331.923 66.7127 328.991 75.6069C326.584 82.9047 325.071 91.1297 322.576 108.415C322.481 109.073 322.101 111.714 322.005 112.375C321.782 113.923 321.602 115.163 321.426 116.359C318.689 134.985 316.428 145.881 312.827 155.003C308.062 167.074 301.343 173.584 291.85 173.584C286.715 173.584 282.492 170.728 279.144 165.396C276.221 160.743 273.908 154.149 272.033 145.557C269.097 132.108 267.664 118.156 265.4 86.9298C265.372 86.546 265.347 86.1953 265.294 85.4609C263.037 54.3132 261.718 41.1878 258.984 28.2805C255.524 11.9482 250.565 3.81503 243.78 3.81503C236.476 3.81503 230.906 9.12155 226.457 19.6722C222.812 28.3181 220.268 39.1455 217.261 56.7048C216.979 58.348 216.695 60.0362 216.327 62.2412C216.303 62.388 215.611 66.5414 215.411 67.7355C212.792 83.3821 211.113 91.4705 208.707 98.423C205.475 107.763 201.298 112.763 195.33 112.766C188.997 112.768 183.942 109.004 179.555 101.954C176.36 96.8191 174.175 91.6185 169.776 79.6709C169.663 79.3633 169.663 79.3633 169.549 79.0559C165.185 67.2026 163.005 62.0267 159.912 57.0926C156.032 50.9019 151.882 47.843 146.879 47.843C143.108 47.843 140.03 52.0843 137.525 60.9601C135.422 68.4108 134.036 77.2078 131.903 94.6634C131.772 95.7352 131.191 100.515 131.033 101.808C130.691 104.606 130.409 106.869 130.129 109.049C127.537 129.233 125.003 142.28 121.055 152.705C115.925 166.255 108.654 173.584 98.4277 173.584C88.1995 173.584 81.8745 165.34 78.1557 149.934C76.6372 143.644 75.5284 136.139 74.656 126.883C73.9973 119.895 73.6067 113.996 72.8399 100.644C72.8203 100.302 72.8203 100.302 72.8007 99.9604C72.0504 86.8989 71.6349 80.7004 70.9608 73.6837C70.0815 64.5299 68.9633 57.117 67.4485 50.9651C63.988 36.9116 58.5736 29.9608 50.3647 29.9333C41.7465 29.962 36.3304 33.6593 32.8386 41.0085C30.0605 46.8558 28.8229 53.255 27.201 67.0528C27.1682 67.3317 27.1573 67.424 27.0786 68.0951C26.2444 75.2074 25.8161 78.4163 25.1222 82.181C24.1975 87.1984 23.0488 91.2808 21.4945 94.7234C17.6948 103.139 11.4248 107.579 1.90005 107.542C0.846565 107.538 -0.00410901 106.68 1.4931e-05 105.627C0.00413887 104.573 0.861499 103.723 1.91498 103.727C9.86338 103.758 14.8116 100.254 18.0174 93.1535C20.5672 87.5063 21.6491 81.6365 23.2896 67.6506C23.3683 66.9792 23.3792 66.8867 23.412 66.6074C24.2144 59.7814 24.7149 56.1452 25.4696 52.243C26.46 47.1222 27.7066 42.9202 29.3928 39.3713C33.4943 30.7386 40.2131 26.152 50.3648 26.1183C60.8223 26.1532 67.3228 34.4983 71.1529 50.0529C72.719 56.413 73.8628 63.9962 74.7584 73.3189C75.4386 80.4005 75.8564 86.6313 76.6094 99.7416C76.6291 100.083 76.6291 100.083 76.6487 100.425C77.4127 113.73 77.8014 119.599 78.4542 126.525C79.3109 135.615 80.3951 142.953 81.8642 149.039C85.2178 162.932 90.4634 169.769 98.4277 169.769C106.723 169.769 112.856 163.586 117.488 151.354C121.298 141.291 123.789 128.463 126.345 108.563C126.624 106.392 126.905 104.136 127.246 101.345C127.404 100.054 127.985 95.2743 128.116 94.2006C130.274 76.5402 131.678 67.6324 133.854 59.9238C136.781 49.5536 140.791 44.0279 146.879 44.0279C153.419 44.0279 158.636 47.8725 163.145 55.0666C166.43 60.3089 168.667 65.6199 173.129 77.7376C173.243 78.0452 173.243 78.0452 173.356 78.3526C177.659 90.0389 179.788 95.1079 182.794 99.9389C186.554 105.98 190.545 108.953 195.329 108.951C199.162 108.949 202.347 105.137 205.102 97.1755C207.413 90.497 209.066 82.5337 211.648 67.1056C211.848 65.9135 212.539 61.7617 212.564 61.6134C212.933 59.4035 213.218 57.7104 213.5 56.0608C216.555 38.2225 219.148 27.1883 222.942 18.1899C227.922 6.38023 234.618 4.33719e-14 243.78 0C248.717 -2.71074e-14 252.761 2.81251 255.955 8.04925C258.733 12.6058 260.931 19.0626 262.716 27.4899C264.269 34.8203 265.505 43.5847 266.591 54.4023C267.415 62.6 267.97 69.6123 269.099 85.1852C269.152 85.9196 269.177 86.2703 269.205 86.654C271.454 117.679 272.878 131.542 275.76 144.743C279.403 161.431 284.638 169.769 291.85 169.769C299.459 169.769 305.026 164.375 309.278 153.603C312.737 144.842 314.956 134.144 317.651 115.804C317.827 114.612 318.006 113.375 318.229 111.83C318.325 111.17 318.705 108.529 318.8 107.87C321.329 90.348 322.865 82.0023 325.367 74.4122C328.757 64.1324 333.431 58.6151 340.31 58.5796C347.139 58.6148 352.335 61.447 356.463 66.8056C359.506 70.7572 361.403 74.7997 364.93 83.8279C365.042 84.1156 365.042 84.1156 365.154 84.4031C365.246 84.6368 365.313 84.8087 365.379 84.9778C368.84 93.8301 370.85 98.0203 373.879 101.789C377.698 106.541 382.375 108.948 388.751 108.951C394.635 108.948 399.176 103.762 402.898 93.2225C405.85 84.8656 407.602 76.4048 411.055 56.133C414.563 35.5443 416.343 26.9532 419.405 18.2949C423.62 6.38108 429.216 0 437.202 0C441.444 0 444.971 2.58593 447.849 7.36122C450.333 11.4829 452.408 17.3242 454.216 24.9543C457.051 36.9113 458.715 49.2829 461.767 77.5153C461.804 77.8572 461.933 79.0453 461.955 79.2523C462.029 79.9357 462.087 80.4713 462.143 80.9898C465.209 109.304 467.09 122.871 470.179 135.268C474.05 150.801 479.024 158.592 485.277 158.575C491.849 158.593 496.591 153.857 500.272 144.203C503.193 136.542 504.834 128.634 507.848 110.177C510.961 91.1116 512.58 83.2553 515.56 75.3399C519.654 64.465 525.401 58.6168 533.714 58.5796L534.424 59.2835Z"/>
	</g>
</svg>
