<svg xmlns="http://www.w3.org/2000/svg" width="32" height="32" viewBox="0 0 32 32">
  <metadata><?xpacket begin="﻿" id="W5M0MpCehiHzreSzNTczkc9d"?>
<x:xmpmeta xmlns:x="adobe:ns:meta/" x:xmptk="Adobe XMP Core 5.6-c138 79.159824, 2016/09/14-01:09:01        ">
   <rdf:RDF xmlns:rdf="http://www.w3.org/1999/02/22-rdf-syntax-ns#">
      <rdf:Description rdf:about=""/>
   </rdf:RDF>
</x:xmpmeta>
                                                                                                    
                                                                                                    
                                                                                                    
                                                                                                    
                                                                                                    
                                                                                                    
                                                                                                    
                                                                                                    
                                                                                                    
                                                                                                    
                                                                                                    
                                                                                                    
                                                                                                    
                                                                                                    
                                                                                                    
                                                                                                    
                                                                                                    
                                                                                                    
                                                                                                    
                                                                                                    
                           
<?xpacket end="w"?></metadata>
<defs>
    <style>
      .cls-1 {
        fill: #101010;
        fill-rule: evenodd;
      }
    </style>
  </defs>
  <path id="arrow-right" class="cls-1" d="M16,32A16,16,0,1,1,32,16,16,16,0,0,1,16,32ZM16,2.667A13.333,13.333,0,1,0,29.334,16,13.333,13.333,0,0,0,16,2.667Zm7.978,13.44a0.3,0.3,0,0,0-.007.036,1.075,1.075,0,0,1-.07.347,1.246,1.246,0,0,1-.073.129,1.19,1.19,0,0,1-.174.258,1.205,1.205,0,0,1-.143.11L20.1,22.045a1.625,1.625,0,0,1-2.024.464,1.173,1.173,0,0,1-.542-1.731l2.324-3.443H9.334a1.333,1.333,0,0,1,0-2.667H19.855l-2.323-3.443a1.173,1.173,0,0,1,.542-1.731,1.626,1.626,0,0,1,2.024.464l3.385,5.016c0.022,0.017.032,0.044,0.053,0.062a1.258,1.258,0,0,1,.288.34h0a1.1,1.1,0,0,1,.148.5c0,0.008.006,0.014,0.006,0.021s0.007,0.03.009,0.045S24,15.978,24,16a0.229,0.229,0,0,1-.012.061C23.986,16.077,23.981,16.092,23.978,16.108Z"/>
</svg>
