<svg xmlns="http://www.w3.org/2000/svg" width="61" height="57" viewBox="0 0 61 57">
  <metadata><?xpacket begin="﻿" id="W5M0MpCehiHzreSzNTczkc9d"?>
<x:xmpmeta xmlns:x="adobe:ns:meta/" x:xmptk="Adobe XMP Core 5.6-c138 79.159824, 2016/09/14-01:09:01        ">
   <rdf:RDF xmlns:rdf="http://www.w3.org/1999/02/22-rdf-syntax-ns#">
      <rdf:Description rdf:about=""/>
   </rdf:RDF>
</x:xmpmeta>
                                                                                                    
                                                                                                    
                                                                                                    
                                                                                                    
                                                                                                    
                                                                                                    
                                                                                                    
                                                                                                    
                                                                                                    
                                                                                                    
                                                                                                    
                                                                                                    
                                                                                                    
                                                                                                    
                                                                                                    
                                                                                                    
                                                                                                    
                                                                                                    
                                                                                                    
                                                                                                    
                           
<?xpacket end="w"?></metadata>
<defs>
    <style>
      .cls-1 {
        fill-opacity: 0.34;
        fill-rule: evenodd;
      }
    </style>
  </defs>
  <path id="box" class="cls-1" d="M55.918,14.25h0v38A4.925,4.925,0,0,1,50.833,57H10.167a4.925,4.925,0,0,1-5.084-4.75v-38A4.925,4.925,0,0,1,0,9.5V4.75A4.925,4.925,0,0,1,5.084,0H55.918A4.925,4.925,0,0,1,61,4.75V9.5A4.925,4.925,0,0,1,55.918,14.25Zm-45.751,38H50.833v-38H10.167v38Zm45.75-47.5H5.085V9.5H55.917V4.749ZM35.584,33.25H25.417a7.387,7.387,0,0,1-7.625-7.125A7.388,7.388,0,0,1,25.417,19H35.584a7.388,7.388,0,0,1,7.625,7.125A7.387,7.387,0,0,1,35.584,33.25Zm0-9.5H25.417a2.381,2.381,0,1,0,0,4.75H35.584A2.381,2.381,0,1,0,35.584,23.75Z"/>
</svg>
