<svg xmlns="http://www.w3.org/2000/svg" width="58" height="51" viewBox="0 0 58 51">
  <metadata><?xpacket begin="﻿" id="W5M0MpCehiHzreSzNTczkc9d"?>
<x:xmpmeta xmlns:x="adobe:ns:meta/" x:xmptk="Adobe XMP Core 5.6-c138 79.159824, 2016/09/14-01:09:01        ">
   <rdf:RDF xmlns:rdf="http://www.w3.org/1999/02/22-rdf-syntax-ns#">
      <rdf:Description rdf:about=""/>
   </rdf:RDF>
</x:xmpmeta>
                                                                                                    
                                                                                                    
                                                                                                    
                                                                                                    
                                                                                                    
                                                                                                    
                                                                                                    
                                                                                                    
                                                                                                    
                                                                                                    
                                                                                                    
                                                                                                    
                                                                                                    
                                                                                                    
                                                                                                    
                                                                                                    
                                                                                                    
                                                                                                    
                                                                                                    
                                                                                                    
                           
<?xpacket end="w"?></metadata>
<defs>
    <style>
      .cls-1 {
        fill-rule: evenodd;
      }
    </style>
  </defs>
  <path id="Shape_27_copy" data-name="Shape 27 copy" class="cls-1" d="M20.118,10.277C18.4,4.936,14.337-1.137,7.44,1.815-0.143,5.06-.288,14.613.131,21.257c0.254,4.029,1.928,16.557,8.957,14.522,3.368-.975,4.242-5.2,5.158-7.868l5.525-16.08-4.519-.576c0.647,7.553,1.516,15.014,5.285,21.83a2.415,2.415,0,0,0,3.613.439C33.4,25.708,33.1,13.795,32.126,3.052h-4.6c2.062,15.162,2.35,30.565,2.038,45.836-0.057,2.788,4.544,2.788,4.6,0,0.312-15.271.024-30.674-2.038-45.836-0.366-2.692-4.857-2.822-4.6,0,0.866,9.554,1.673,20.4-6.627,27.409L24.51,30.9c-3.381-6.115-4.076-12.876-4.656-19.645a2.336,2.336,0,0,0-4.519-.576L10.362,25.151C10,26.216,9.689,27.324,9.257,28.367,8.789,29.5,8.646,31.73,7.324,30.743c-1.614-1.205-2.2-5.679-2.416-7.4-0.485-3.832-.686-8.22.331-11.982,0.619-2.291,2.568-6.2,5.754-5.98,2.947,0.206,3.992,3.878,4.688,6.043,0.855,2.66,5.3,1.527,4.437-1.151h0Zm12.5,0.181c2.865-4.864,10.416-6.071,13.632-.7C47.6,12.013,47.482,15,47.343,17.507c-0.088,1.584-.559,7.4-2.865,7.779-2.929.487,2.228-3.842,2.917-4.225a63.7,63.7,0,0,0,5.934-3.169,10.23,10.23,0,0,0,4.651-7.377c0.384-2.754-4.221-2.727-4.6,0C52.366,17.789,35.6,17.683,38.428,27.328c0.767,2.62,3.6,3.609,6.205,2.841,3.165-.934,5.288-3.971,6.31-6.767,2.3-6.287,1.918-15.409-4.376-19.5A12.772,12.772,0,0,0,28.644,8.272c-1.437,2.439,2.535,4.625,3.973,2.186h0Z"/>
</svg>
