<svg xmlns="http://www.w3.org/2000/svg" width="88" height="80" viewBox="0 0 88 80">
  <metadata><?xpacket begin="﻿" id="W5M0MpCehiHzreSzNTczkc9d"?>
<x:xmpmeta xmlns:x="adobe:ns:meta/" x:xmptk="Adobe XMP Core 5.6-c138 79.159824, 2016/09/14-01:09:01        ">
   <rdf:RDF xmlns:rdf="http://www.w3.org/1999/02/22-rdf-syntax-ns#">
      <rdf:Description rdf:about=""/>
   </rdf:RDF>
</x:xmpmeta>
                                                                                                    
                                                                                                    
                                                                                                    
                                                                                                    
                                                                                                    
                                                                                                    
                                                                                                    
                                                                                                    
                                                                                                    
                                                                                                    
                                                                                                    
                                                                                                    
                                                                                                    
                                                                                                    
                                                                                                    
                                                                                                    
                                                                                                    
                                                                                                    
                                                                                                    
                                                                                                    
                           
<?xpacket end="w"?></metadata>
<defs>
    <style>
      .cls-1 {
        fill-rule: evenodd;
      }
    </style>
  </defs>
  <path id="wallet" class="cls-1" d="M80.667,80H7.333A7.3,7.3,0,0,1,0,72.728V7.272A7.3,7.3,0,0,1,7.333,0H66a7.3,7.3,0,0,1,7.333,7.272v7.273h7.335A7.3,7.3,0,0,1,88,21.818V72.728A7.3,7.3,0,0,1,80.667,80ZM66,7.272H7.333v7.273H66V7.272ZM80.667,21.818H7.333V72.728H80.667V21.818ZM62.333,36.364a10.909,10.909,0,1,1-11,10.909A10.954,10.954,0,0,1,62.333,36.364Zm0,14.545a3.637,3.637,0,1,0-3.666-3.636A3.651,3.651,0,0,0,62.333,50.909Z"/>
</svg>
