<?xml version="1.0" encoding="utf-8"?>
<!-- Generator: Adobe Illustrator 16.0.0, SVG Export Plug-In . SVG Version: 6.00 Build 0)  -->
<!DOCTYPE svg PUBLIC "-//W3C//DTD SVG 1.1//EN" "http://www.w3.org/Graphics/SVG/1.1/DTD/svg11.dtd">
<svg version="1.1" id="Layer_1" xmlns="http://www.w3.org/2000/svg" xmlns:xlink="http://www.w3.org/1999/xlink" x="0px" y="0px"
	 width="1600px" height="140px" viewBox="0 0 1600 140" enable-background="new 0 0 1600 140" xml:space="preserve">
<path opacity="0.2" fill="#FFFFFF" d="M-70.392,131.771c0,0,449.181-98.361,832.787-88.525
	C1168.953,30.131,1575.801,153.083,1615,202.263s-905.064,36.065-905.064,36.065L-57.277,158L-70.392,131.771z"/>
<path opacity="0.2" fill="#FFFFFF" d="M-23.992,0.005c0,0,269.997,100.626,668.358,85.872C870.596,71.123,990.264,145,990.264,145
	H-13L-23.992,0.005z"/>
<path fill="#FFFFFF" d="M0.319,56.609c0,0,204.93,56.364,560.668,56.364S1197,12.099,1615,12.099c0,165.574,0,165.901,0,165.901H-24
	L0.319,56.609z"/>
<path fill="#FF0000" d="M509.936,330.132"/>
</svg>
