<?xml version="1.0" encoding="utf-8"?>
<!-- Generator: Adobe Illustrator 22.0.1, SVG Export Plug-In . SVG Version: 6.00 Build 0)  -->
<svg version="1.1" id="Layer_1" xmlns="http://www.w3.org/2000/svg" xmlns:xlink="http://www.w3.org/1999/xlink" x="0px" y="0px"
	 viewBox="0 0 1400 980" style="enable-background:new 0 0 1400 980;" xml:space="preserve">
<style type="text/css">
	.st0{fill:#66545B;}
	.st1{fill:#583546;}
	.st2{fill:#78646C;}
	.st3{fill:#D5805E;}
	.st4{fill:#C1704D;}
	.st5{fill:#9A5C4B;}
	.st6{fill:#814838;}
	.st7{fill:#E8A289;}
	.st8{fill:#593647;}
	.st9{fill:#70455E;}
	.st10{fill:#FFDEAA;}
	.st11{fill:#F06955;}
	.st12{fill:#77646C;}
	.st13{fill:#918389;}
	.st14{fill:#EDBD78;}
	.st15{fill:#F6CF94;}
	.st16{fill:#DBA965;}
	.st17{fill:#F8ECD9;}
	.st18{fill:#917F66;}
	.st19{fill:#A69A74;}
</style>
<g>
	<g>
		<g>
			<g>
				<path class="st0" d="M192.1,365.1c-1,0-2.1-0.4-2.8-1.3l-8.6-10.1c-0.9-1-1.1-2.4-0.7-3.6l16.1-45l-12.7-6.3
					c-1.8-0.9-2.6-3.1-1.7-4.9s3.1-2.6,4.9-1.7l15.6,7.7c1.7,0.8,2.5,2.8,1.8,4.5l-16.5,46l7.2,8.4c1.3,1.5,1.1,3.8-0.4,5.2
					C193.8,364.8,193,365.1,192.1,365.1z"/>
				<path class="st1" d="M189.6,303.9c-0.8,0-1.7-0.2-2.5-0.5l-18.6-8.1c-3.2-1.4-4.7-5.2-3.3-8.4c1.4-3.2,5.2-4.7,8.4-3.3l18.6,8.1
					c3.2,1.4,4.7,5.2,3.3,8.4C194.4,302.5,192,303.9,189.6,303.9z"/>
			</g>
			<g>
				<path class="st0" d="M211.9,299.1c-0.7,0-1.4-0.2-2-0.6l-11.5-7.8c-0.9-0.6-1.4-1.5-1.6-2.5l-4.6-33.8l-13.7,2.4
					c-2,0.3-3.9-1-4.2-3c-0.3-2,1-3.9,3-4.2l17.5-3.1c1-0.2,2,0.1,2.8,0.7s1.3,1.5,1.5,2.5l4.9,35.9l10.1,6.8c1.7,1.1,2.1,3.4,1,5.1
					C214.2,298.5,213,299.1,211.9,299.1z"/>
				<path class="st1" d="M161.6,261.9c-3.1,0-5.8-2.3-6.3-5.5c-0.5-3.5,1.9-6.7,5.4-7.2l21.9-3.2c3.5-0.5,6.7,1.9,7.2,5.4
					s-1.9,6.7-5.4,7.2l-21.9,3.2C162.2,261.9,161.9,261.9,161.6,261.9z"/>
			</g>
		</g>
		<g>
			<g>
				<path class="st0" d="M60.1,365.1c-0.8,0-1.7-0.3-2.4-0.9c-1.5-1.3-1.7-3.6-0.4-5.2l7.2-8.4l-16.5-46c-0.6-1.8,0.2-3.7,1.8-4.5
					l15.6-7.7c1.8-0.9,4-0.2,4.9,1.7c0.9,1.8,0.2,4-1.7,4.9l-12.7,6.3l16.1,45c0.4,1.2,0.2,2.6-0.7,3.6L62.7,364
					C62.1,364.6,61.1,365.1,60.1,365.1z"/>
				<path class="st1" d="M62.6,303.9c-2.5,0-4.8-1.4-5.8-3.8c-1.4-3.2,0.1-7,3.3-8.4l18.6-8.1c3.2-1.4,7,0.1,8.4,3.3
					c1.4,3.2-0.1,7-3.3,8.4l-18.6,8.1C64.3,303.8,63.5,303.9,62.6,303.9z"/>
			</g>
			<g>
				<path class="st0" d="M40.3,299.1c-1.2,0-2.3-0.6-3-1.6c-1.1-1.7-0.7-4,1-5.1l10.1-6.8l4.9-35.9c0.1-1,0.7-1.9,1.5-2.5
					s1.8-0.8,2.8-0.7l17.5,3.1c2,0.3,3.3,2.2,3,4.2s-2.2,3.3-4.2,3l-13.7-2.4l-4.6,33.8c-0.1,1-0.7,2-1.6,2.5l-11.5,7.8
					C41.8,298.9,41,299.1,40.3,299.1z"/>
				<path class="st1" d="M90.6,261.9c-0.3,0-0.6,0-0.9-0.1l-21.9-3.2c-3.5-0.5-5.9-3.7-5.4-7.2s3.7-5.9,7.2-5.4l21.9,3.2
					c3.5,0.5,5.9,3.7,5.4,7.2C96.4,259.6,93.7,261.9,90.6,261.9z"/>
			</g>
		</g>
	</g>
	<g>
		<g>
			<path class="st0" d="M159.9,238.5c-1.1,0-2.2-0.5-2.9-1.4c-1.2-1.6-1-3.9,0.6-5.1l14-11l-2.3-18.6c-0.1-0.6,0-1.2,0.2-1.8
				l7.8-19.7c0.7-1.9,2.9-2.8,4.7-2.1c1.9,0.7,2.8,2.9,2.1,4.7l-7.5,18.9l2.4,19.8c0.2,1.3-0.4,2.5-1.4,3.3L162,237.8
				C161.5,238.3,160.7,238.5,159.9,238.5z"/>
			<path class="st1" d="M157.1,243.8c-1.9,0-3.8-0.8-5-2.4c-2.2-2.8-1.7-6.8,1.1-8.9l11.4-9c2.8-2.2,6.8-1.7,8.9,1.1
				c2.2,2.8,1.7,6.8-1.1,8.9l-11.4,9C159.8,243.3,158.5,243.8,157.1,243.8z"/>
		</g>
		<g>
			<path class="st0" d="M92.2,238.5c-0.8,0-1.6-0.3-2.3-0.8l-15.6-12.3c-1-0.8-1.5-2.1-1.4-3.3l2.4-19.8l-7.5-18.9
				c-0.7-1.9,0.2-4,2.1-4.7c1.9-0.7,4,0.2,4.7,2.1l7.8,19.7c0.2,0.6,0.3,1.2,0.2,1.8l-2.3,18.6l14,11c1.6,1.2,1.9,3.6,0.6,5.1
				C94.4,238,93.3,238.5,92.2,238.5z"/>
			<path class="st1" d="M95.1,243.8c-1.4,0-2.8-0.4-3.9-1.4l-11.4-9c-2.8-2.2-3.2-6.2-1.1-8.9c2.2-2.8,6.2-3.2,8.9-1.1l11.4,9
				c2.8,2.2,3.2,6.2,1.1,8.9C98.9,242.9,97,243.8,95.1,243.8z"/>
		</g>
	</g>
	<ellipse class="st0" cx="126.1" cy="217" rx="28.9" ry="24.8"/>
	<ellipse class="st0" cx="126.1" cy="257.8" rx="47.4" ry="44.9"/>
	<path class="st2" d="M126.1,223.4c24.7,0,45,17,47.2,38.6c0.1-1.4,0.2-2.7,0.2-4.1c0-24.8-21.2-44.9-47.4-44.9
		s-47.4,20.1-47.4,44.9c0,1.4,0.1,2.8,0.2,4.1C81.1,240.3,101.4,223.4,126.1,223.4z"/>
	<path class="st3" d="M126.1,244.1c-11.3,0-22-1.7-31.1-4.8c-9.4-3.1-19.6,2.2-22.5,11.7c-2.1,6.9-3.2,14.2-3.2,21.9
		c0,36.3,25.4,88.5,56.8,88.5s56.8-52.2,56.8-88.5c0-7.7-1.1-15.1-3.2-21.9c-2.9-9.5-13.1-14.8-22.5-11.7
		C148,242.4,137.4,244.1,126.1,244.1z"/>
	<path class="st4" d="M179.7,251c-2.9-9.5-13.1-14.8-22.5-11.7c-0.8,0.3-1.6,0.5-2.4,0.7c2.9,2.1,5.2,5.9,6.2,10.9
		c1.4,6.9,2.1,14.2,2.1,21.9c0,36.3-16.6,88.5-37.1,88.5c31.4,0,56.8-52.2,56.8-88.5C182.9,265.2,181.8,257.9,179.7,251z"/>
	<g>
		<path class="st1" d="M138.9,194.8c-0.7,1.1-1.2,2.3-1.2,3.7c0,4.3,4.4,7.8,9.9,7.8c1.5,0,2.8-0.3,4.1-0.7
			C148.8,200.9,144.3,197.1,138.9,194.8z"/>
		<path class="st1" d="M100.5,205.5c1.2,0.5,2.6,0.7,4.1,0.7c5.5,0,9.9-3.5,9.9-7.8c0-1.3-0.4-2.6-1.2-3.7
			C107.8,197.1,103.3,200.9,100.5,205.5z"/>
	</g>
	<g>
		<path class="st3" d="M131.1,200c-1.3,0-2.4-1.1-2.4-2.4c0-9.3,6.6-24.3,24.4-25.3c1.3-0.1,2.4,0.9,2.5,2.3
			c0.1,1.3-0.9,2.4-2.3,2.5c-6.8,0.4-12.1,3.1-15.7,8.2c-3.1,4.3-4.2,9.3-4.2,12.3C133.5,198.9,132.5,200,131.1,200z"/>
		<path class="st3" d="M121,200c-1.3,0-2.4-1.1-2.4-2.4c0-3-1.1-8-4.2-12.3c-3.6-5.1-8.9-7.8-15.7-8.2c-1.3-0.1-2.3-1.2-2.3-2.5
			c0.1-1.3,1.2-2.3,2.5-2.3c17.8,1,24.4,16,24.4,25.3C123.4,198.9,122.4,200,121,200z"/>
	</g>
	<path class="st5" d="M126.1,280.1c-14.5,0-29-2.5-43.3-7.5c-1.3-0.5-2-1.9-1.6-3.2c0.5-1.3,1.9-2,3.2-1.6c27.6,9.6,55.7,9.6,83.3,0
		c1.3-0.5,2.8,0.2,3.2,1.6c0.5,1.3-0.2,2.8-1.6,3.2C155,277.6,140.6,280.1,126.1,280.1z M169.4,300.4c1.3-0.5,2-1.9,1.6-3.2
		s-1.9-2-3.2-1.6c-27.6,9.6-55.7,9.6-83.3,0c-1.3-0.5-2.8,0.2-3.2,1.6c-0.5,1.3,0.2,2.8,1.6,3.2c14.4,5,28.9,7.5,43.3,7.5
		C140.6,307.9,155,305.4,169.4,300.4z M155.8,330.5c1.3-0.5,2-1.9,1.5-3.3c-0.5-1.3-1.9-2-3.3-1.5c-18.6,6.6-37.4,6.6-56,0
		c-1.3-0.5-2.8,0.2-3.3,1.5s0.2,2.8,1.5,3.3c9.9,3.5,19.8,5.3,29.7,5.3C136,335.8,146,334,155.8,330.5z"/>
	<g>
		<path class="st6" d="M163.2,272.9c0,0.6,0,1.1,0,1.7c2.1-0.6,4.2-1.3,6.3-2c1.3-0.5,2-1.9,1.6-3.2c-0.5-1.3-1.9-2-3.2-1.6
			c-1.5,0.5-3.1,1-4.6,1.5C163.2,270.5,163.2,271.7,163.2,272.9z"/>
		<path class="st6" d="M157.4,327.2c-0.5-1.3-1.9-2-3.2-1.6c-0.7,2.1-1.4,4.1-2.2,6.1c1.3-0.4,2.6-0.8,3.9-1.3
			C157.1,330,157.8,328.5,157.4,327.2z"/>
		<path class="st6" d="M171,297.2c-0.5-1.3-1.9-2-3.2-1.6c-2.2,0.8-4.5,1.5-6.7,2.1c-0.3,1.9-0.6,3.7-1,5.6c3.1-0.9,6.3-1.8,9.4-2.9
			C170.8,300,171.5,298.5,171,297.2z"/>
	</g>
	<circle class="st7" cx="86.5" cy="257.8" r="6.8"/>
	<circle class="st7" cx="100.9" cy="251" r="4.2"/>
</g>
<g>
	<g>
		<g>
			<path class="st8" d="M756.5,347.6c-1,0-1.9-0.8-2-1.8l-1.6-15.1l-25.8-30.3c-0.4-0.5-0.6-1.2-0.4-1.9l9.2-29.5l-16.7-17.1
				c-0.8-0.8-0.7-2,0-2.8c0.8-0.8,2-0.7,2.8,0l17.6,18c0.5,0.5,0.7,1.3,0.5,2l-9.2,29.6l25.5,29.9c0.3,0.3,0.4,0.7,0.5,1.1l1.7,15.7
				c0.1,1.1-0.7,2.1-1.8,2.2C756.7,347.6,756.6,347.6,756.5,347.6z"/>
			<path class="st8" d="M762.8,324.9c-0.4,0-0.7-0.1-1.1-0.3c-0.9-0.6-1.2-1.8-0.6-2.7l6.3-9.6l-22.3-16.1c-0.7-0.5-1-1.4-0.7-2.2
				l9.7-30l-31.8-15.3c-1-0.5-1.4-1.7-0.9-2.6s1.7-1.4,2.6-0.9l33.3,16.1c0.9,0.4,1.3,1.4,1,2.4l-9.8,30.3l22.7,16.3
				c0.9,0.6,1.1,1.8,0.5,2.7l-7.3,11.1C764.1,324.6,763.4,324.9,762.8,324.9z"/>
			<path class="st8" d="M723.2,224.6c-0.8,0-1.6-0.5-1.9-1.3c-0.4-1,0.2-2.2,1.2-2.5l17.4-6.2l-6-29.7c-0.2-1,0.3-1.9,1.3-2.2
				l28.5-10.2l2.6-3.4c0.7-0.9,1.9-1,2.8-0.4c0.9,0.7,1,1.9,0.4,2.8l-3,3.9c-0.2,0.3-0.5,0.5-0.9,0.6l-27.4,9.8l6,29.7
				c0.2,1-0.3,1.9-1.3,2.2l-19,6.8C723.6,224.6,723.4,224.6,723.2,224.6z"/>
		</g>
		<g>
			<path class="st8" d="M654.6,347.6c-0.1,0-0.1,0-0.2,0c-1.1-0.1-1.9-1.1-1.8-2.2l1.7-15.7c0-0.4,0.2-0.8,0.5-1.1l25.5-29.9
				l-9.2-29.6c-0.2-0.7,0-1.4,0.5-2l17.6-18c0.8-0.8,2-0.8,2.8,0s0.8,2,0,2.8L675.3,269l9.2,29.5c0.2,0.6,0.1,1.4-0.4,1.9
				l-25.8,30.3l-1.6,15.1C656.5,346.8,655.6,347.6,654.6,347.6z"/>
			<path class="st8" d="M648.4,324.9c-0.6,0-1.3-0.3-1.7-0.9l-7.3-11.1c-0.6-0.9-0.4-2.1,0.5-2.7l22.7-16.3l-9.8-30.3
				c-0.3-0.9,0.1-2,1-2.4l33.3-16.1c1-0.5,2.2-0.1,2.6,0.9c0.5,1,0.1,2.2-0.9,2.6L657,263.9l9.7,30c0.3,0.8,0,1.7-0.7,2.2
				l-22.3,16.2l6.3,9.6c0.6,0.9,0.3,2.1-0.6,2.7C649.1,324.8,648.7,324.9,648.4,324.9z"/>
			<path class="st8" d="M688,224.6c-0.2,0-0.4,0-0.7-0.1l-19-6.8c-0.9-0.3-1.5-1.3-1.3-2.2l6-29.7l-27.4-9.8
				c-0.4-0.1-0.7-0.4-0.9-0.6l-3-3.9c-0.7-0.9-0.5-2.1,0.4-2.8c0.9-0.7,2.1-0.5,2.8,0.4l2.6,3.4l28.5,10.2c0.9,0.3,1.5,1.3,1.3,2.2
				l-6,29.7l17.4,6.2c1,0.4,1.6,1.5,1.2,2.5C689.5,224.1,688.8,224.6,688,224.6z"/>
		</g>
	</g>
	<g>
		<path class="st9" d="M709.5,269.7h-7.8c0,8.5-5.5,33.3-5.5,52.8c0,19.4,0,28.7,0,33c0,5.1,3.2,8.2,5.2,11.2c1,1.4,2.6,2.3,4.3,2.3
			l0,0c1.7,0,3.3-0.9,4.3-2.3c2-3,5.2-6,5.2-11.2c0-4.2,0-13.5,0-33C715,303.1,709.5,278.3,709.5,269.7z"/>
		<g>
			<path class="st10" d="M698.9,363.4c0.8,1.2,1.7,2.3,2.4,3.3c1,1.4,2.6,2.3,4.3,2.3s3.3-0.9,4.3-2.3c0.7-1.1,1.6-2.2,2.4-3.3
				H698.9z"/>
			<path class="st10" d="M696.1,322.5c0,0.2,0,0.4,0,0.6H715c0-0.2,0-0.4,0-0.6c0-1.8,0-3.7-0.1-5.6h-18.6
				C696.2,318.8,696.1,320.7,696.1,322.5z"/>
			<path class="st10" d="M696.1,347.3c0,2.6,0,4.6,0,6.2H715c0-1.6,0-3.6,0-6.2H696.1z"/>
			<path class="st10" d="M697.6,301.6c-0.2,2.1-0.5,4.1-0.7,6.2h17.3c-0.2-2.1-0.4-4.1-0.7-6.2H697.6z"/>
			<path class="st10" d="M699.7,286.4c-0.3,2-0.6,4.1-0.9,6.2h13.6c-0.3-2.1-0.6-4.2-0.9-6.2H699.7z"/>
			<path class="st10" d="M696.1,332.1c0,2.2,0,4.3,0,6.2H715c0-1.9,0-4,0-6.2H696.1z"/>
		</g>
	</g>
	<g>
		<path class="st11" d="M710.1,191.5c-0.5,0-1-0.4-1-1c0-5.2,3.5-33.5,20.3-41.6c0.5-0.2,1.1,0,1.3,0.5s0,1.1-0.5,1.3
			c-8.3,4-12.9,13.5-15.4,20.8c-2.8,8.3-3.8,16.4-3.8,19.1C711.1,191.1,710.7,191.5,710.1,191.5z"/>
		<path class="st11" d="M701,191.5c-0.5,0-1-0.4-1-1c0-2.6-0.9-10.8-3.8-19.1c-2.5-7.3-7.2-16.8-15.4-20.8c-0.5-0.2-0.7-0.8-0.5-1.3
			s0.8-0.7,1.3-0.5c16.8,8.2,20.3,36.4,20.3,41.6C702,191.1,701.6,191.5,701,191.5z"/>
	</g>
	<path class="st8" d="M705.6,193.5c-1.1,0-2-0.9-2-2v-30.4c0-1.1,0.9-2,2-2s2,0.9,2,2v30.4C707.5,192.6,706.7,193.5,705.6,193.5z"/>
	<path class="st12" d="M705.6,187.9c-8,0-14.5,6.5-14.5,14.5s6.5,17.3,14.5,17.3s14.5-9.3,14.5-17.3S713.6,187.9,705.6,187.9z"/>
	<g>
		<path class="st8" d="M719.9,200.8c-0.6-5.8-4.8-10.6-10.3-12.3c-0.5,1.1-0.8,2.4-0.8,3.7c0,4.9,4,8.8,8.8,8.8
			C718.5,201.1,719.2,201,719.9,200.8z"/>
		<path class="st8" d="M691.2,200.8c0.7,0.2,1.5,0.3,2.3,0.3c4.9,0,8.8-4,8.8-8.8c0-1.3-0.3-2.6-0.8-3.7
			C696,190.1,691.8,194.9,691.2,200.8z"/>
	</g>
	<path class="st12" d="M688.5,225v37.2c0,9.4,7.6,19,17.1,19l0,0c9.4,0,17.1-9.6,17.1-19V225c0-6.9-5.6-12.5-12.5-12.5h-9.1
		C694.1,212.5,688.5,218.1,688.5,225z"/>
	<path class="st13" d="M710.1,212.5H701c-6.9,0-12.5,5.6-12.5,12.5v7.7c0-6.9,5.6-12.5,12.5-12.5h9.1c6.9,0,12.5,5.6,12.5,12.5V225
		C722.6,218.1,717,212.5,710.1,212.5z"/>
	<g>
		<g>
			<path class="st10" d="M719.3,220.8l100.8,34.7c5.3,1.8,8.1,7.6,6.3,12.9l0,0c-1.5,4.4-5.7,7.2-10.3,6.8l-36.8-2.7
				c-9.1-0.7-17.9-3.7-25.5-8.7l-41.9-27.9c-3.2-2.1-4.5-6.1-3.3-9.7l0,0C710.1,221.6,714.9,219.3,719.3,220.8z"/>
			<g>
				<path class="st14" d="M795.9,267.1c-12.9-13.5-39.4-23.2-50.4-24.8c-4.1-2.9-8.1-5.7-11.9-8.2c-0.1-0.1-0.1-0.1-0.2-0.2
					c-0.1,0-0.1-0.1-0.2-0.1c-7.2-4.7-13.3-8.2-16.4-9.6c-0.8-0.3-1.6,0-2,0.8c-0.3,0.8,0,1.6,0.8,2c3.1,1.3,9.1,4.8,16.1,9.4l0,0
					c1,0.9,4.9,8.6,5.8,12.6c0.1,0.5,0.4,0.9,0.9,1c0.3,0.1,0.6,0.2,0.9,0.1c0.8-0.2,1.3-1,1.1-1.8c-0.4-1.9-1.7-5.2-3.2-8.2
					c2.2,1.5,4.4,3.1,6.6,4.7c0.1,0.1,0.2,0.2,0.3,0.2c10.1,7.3,20.3,15.6,26.2,22.5c0.2,0.2,0.3,0.3,0.5,0.4
					c0.5,0.2,1.1,0.1,1.6-0.2c0.6-0.5,0.7-1.5,0.2-2.1c-5-5.8-13-12.6-21.4-19c12.4,3.3,32.1,11.7,42.5,22.6
					c0.1,0.1,0.3,0.3,0.5,0.3c0.5,0.2,1.2,0.1,1.6-0.3C796.5,268.6,796.5,267.7,795.9,267.1z"/>
				<path class="st14" d="M817.7,267.9c-2.7-2.2-5.9-4.4-9.3-6.6c4.2,0.3,9.3,0.8,11.1,1.5c0.8,0.3,1.6-0.1,1.9-0.8
					c0.3-0.7-0.1-1.6-0.8-1.9l0,0c-3.3-1.3-14.1-2-17.3-1.9c-18.6-11-41.8-20.4-49.3-22.1c-0.8-0.2-1.6,0.3-1.8,1.1
					c-0.2,0.8,0.3,1.6,1.1,1.8c9.4,2.1,44.6,16.9,62.5,31.3c0.1,0.1,0.2,0.2,0.3,0.2c0.6,0.3,1.3,0.1,1.8-0.4
					C818.4,269.4,818.3,268.5,817.7,267.9z"/>
			</g>
		</g>
		<g>
			<path class="st10" d="M691.8,220.8L591,255.5c-5.3,1.8-8.1,7.6-6.3,12.9l0,0c1.5,4.4,5.7,7.2,10.3,6.8l36.8-2.7
				c9.1-0.7,17.9-3.7,25.5-8.7l41.9-27.9c3.2-2.1,4.5-6.1,3.3-9.7l0,0C701,221.6,696.2,219.3,691.8,220.8z"/>
			<g>
				<path class="st14" d="M615.2,267.1c12.9-13.5,39.4-23.2,50.4-24.8c4.1-2.9,8.1-5.7,11.9-8.2c0.1-0.1,0.1-0.1,0.2-0.2
					c0.1,0,0.1-0.1,0.2-0.1c7.2-4.7,13.3-8.2,16.4-9.6c0.8-0.3,1.6,0,2,0.8c0.3,0.8,0,1.6-0.8,2c-3.1,1.3-9.1,4.8-16.1,9.4l0,0
					c-1,0.9-4.9,8.6-5.8,12.6c-0.1,0.5-0.4,0.9-0.9,1c-0.3,0.1-0.6,0.2-0.9,0.1c-0.8-0.2-1.3-1-1.1-1.8c0.4-1.9,1.7-5.2,3.2-8.2
					c-2.2,1.5-4.4,3.1-6.6,4.7c-0.1,0.1-0.2,0.2-0.3,0.2c-10.1,7.3-20.3,15.6-26.2,22.5c-0.2,0.2-0.3,0.3-0.5,0.4
					c-0.5,0.2-1.1,0.1-1.6-0.2c-0.6-0.5-0.7-1.5-0.2-2.1c5-5.8,13-12.6,21.4-19c-12.4,3.3-32.1,11.7-42.5,22.6
					c-0.1,0.1-0.3,0.3-0.5,0.3c-0.5,0.2-1.2,0.1-1.6-0.3C614.7,268.6,614.7,267.7,615.2,267.1z"/>
				<path class="st14" d="M593.5,267.9c2.7-2.2,5.9-4.4,9.3-6.6c-4.2,0.3-9.3,0.8-11.1,1.5c-0.8,0.3-1.6-0.1-1.9-0.8
					c-0.3-0.7,0.1-1.6,0.8-1.9l0,0c3.3-1.3,14.1-2,17.3-1.9c18.6-11,41.8-20.4,49.3-22.1c0.8-0.2,1.6,0.3,1.8,1.1
					c0.2,0.8-0.3,1.6-1.1,1.8c-9.4,2.1-44.6,16.9-62.5,31.3c-0.1,0.1-0.2,0.2-0.3,0.2c-0.6,0.3-1.3,0.1-1.8-0.4
					C592.7,269.4,592.8,268.5,593.5,267.9z"/>
			</g>
		</g>
	</g>
</g>
<g>
	<g>
		<path class="st1" d="M1297.3,355.6c-0.2,0-0.4,0-0.6-0.2c-6.1-3.1-13.5-7.8-14.4-13.2c-0.1-0.8,0.4-1.5,1.2-1.7
			c0.8-0.1,1.5,0.4,1.7,1.2c0.5,3.2,5.2,7.2,12.9,11.1c0.7,0.4,1,1.2,0.6,1.9C1298.3,355.3,1297.8,355.6,1297.3,355.6z"/>
		<path class="st1" d="M1247.6,355.6c-0.5,0-1-0.3-1.3-0.8c-0.4-0.7-0.1-1.6,0.6-1.9c7.6-3.9,12.3-7.9,12.9-11.1
			c0.1-0.8,0.9-1.3,1.7-1.2c0.8,0.1,1.3,0.9,1.2,1.7c-0.9,5.3-8.3,10.1-14.4,13.2C1248.1,355.5,1247.9,355.6,1247.6,355.6z"/>
	</g>
	<g>
		<path class="st0" d="M1290.6,243c-0.8,0-1.6-0.3-2.2-1c-1-1.2-0.9-3,0.3-4l14.3-12.2l5.7-25c0.4-1.5,1.9-2.5,3.4-2.2
			c1.5,0.4,2.5,1.9,2.2,3.4l-5.9,25.9c-0.1,0.6-0.5,1.1-0.9,1.5l-15.1,12.8C1292,242.7,1291.3,243,1290.6,243z"/>
		<path class="st0" d="M1254.3,243c-0.7,0-1.3-0.2-1.9-0.7l-15-12.8c-0.5-0.4-0.8-0.9-0.9-1.5l-5.9-25.9c-0.4-1.5,0.6-3.1,2.2-3.4
			c1.5-0.4,3.1,0.6,3.4,2.2l5.7,25l14.3,12.2c1.2,1,1.4,2.8,0.3,4C1255.9,242.6,1255.1,243,1254.3,243z"/>
	</g>
	<g>
		<g>
			<path class="st0" d="M1346.5,280.7c-0.4,0-0.7-0.1-1.1-0.2l-14-5.6c-0.6-0.3-1.2-0.7-1.5-1.3l-13.1-25.2l-9.4,2.3
				c-1.5,0.4-3.1-0.6-3.5-2.1s0.6-3.1,2.1-3.5l11.6-2.9c1.3-0.3,2.6,0.3,3.2,1.5l13.6,26.3l13,5.2c1.5,0.6,2.2,2.3,1.6,3.7
				C1348.7,280,1347.6,280.7,1346.5,280.7z"/>
			<path class="st0" d="M1321.3,253.3c-1.4,0-2.5-1.1-2.5-2.5s1.1-2.6,2.5-2.6l8.6-0.1l0,0c1.4,0,2.5,1.1,2.5,2.5s-1.1,2.6-2.5,2.6
				L1321.3,253.3C1321.4,253.3,1321.3,253.3,1321.3,253.3z"/>
			<path class="st0" d="M1327.9,264.1c-1.4,0-2.5-1.1-2.5-2.5s1.1-2.6,2.5-2.6l8.6-0.1l0,0c1.4,0,2.5,1.1,2.5,2.5s-1.1,2.6-2.5,2.6
				L1327.9,264.1L1327.9,264.1z"/>
			<path class="st0" d="M1318.5,264c-0.4,0-0.7-0.1-1.1-0.2c-1.3-0.6-1.8-2.1-1.2-3.4l4-8.5c0.6-1.3,2.1-1.8,3.4-1.2
				c1.3,0.6,1.8,2.1,1.2,3.4l-4,8.5C1320.3,263.5,1319.4,264,1318.5,264z"/>
			<path class="st0" d="M1323.9,275.6c-0.4,0-0.7-0.1-1.1-0.2c-1.3-0.6-1.8-2.1-1.2-3.4l4-8.5c0.6-1.3,2.1-1.8,3.4-1.2
				c1.3,0.6,1.8,2.1,1.2,3.4l-4,8.5C1325.8,275,1324.8,275.6,1323.9,275.6z"/>
			<path class="st1" d="M1295,257.1c-2.4,0-4.6-1.6-5.2-4c-0.8-2.9,1-5.9,3.9-6.6l14.3-3.8c2.9-0.8,5.9,1,6.6,3.9
				c0.8,2.9-1,5.9-3.9,6.6l-14.3,3.8C1295.9,257,1295.5,257.1,1295,257.1z"/>
		</g>
		<g>
			<path class="st0" d="M1198.4,280.7c-1.1,0-2.2-0.7-2.7-1.8c-0.6-1.5,0.1-3.1,1.6-3.7l13-5.2l13.6-26.3c0.6-1.2,1.9-1.8,3.2-1.5
				l11.6,2.9c1.5,0.4,2.5,1.9,2.1,3.5c-0.4,1.5-1.9,2.5-3.5,2.1l-9.4-2.3l-13.1,25.2c-0.3,0.6-0.8,1.1-1.5,1.3l-14,5.6
				C1199.1,280.6,1198.8,280.7,1198.4,280.7z"/>
			<path class="st0" d="M1223.6,253.3L1223.6,253.3l-8.6-0.1c-1.4,0-2.5-1.2-2.5-2.6s1.2-2.5,2.6-2.5l8.6,0.1c1.4,0,2.5,1.2,2.5,2.6
				C1226.1,252.2,1225,253.3,1223.6,253.3z"/>
			<path class="st0" d="M1217.1,264.1C1217,264.1,1217,264.1,1217.1,264.1l-8.6-0.1c-1.4,0-2.5-1.2-2.5-2.6s1.2-2.5,2.6-2.5l8.6,0.1
				c1.4,0,2.5,1.2,2.5,2.6C1219.6,262.9,1218.4,264.1,1217.1,264.1z"/>
			<path class="st0" d="M1226.4,264c-1,0-1.9-0.5-2.3-1.5l-4-8.5c-0.6-1.3-0.1-2.8,1.2-3.4c1.3-0.6,2.8-0.1,3.4,1.2l4,8.5
				c0.6,1.3,0.1,2.8-1.2,3.4C1227.2,263.9,1226.8,264,1226.4,264z"/>
			<path class="st0" d="M1221,275.6c-1,0-1.9-0.5-2.3-1.5l-4-8.5c-0.6-1.3-0.1-2.8,1.2-3.4c1.3-0.6,2.8-0.1,3.4,1.2l4,8.5
				c0.6,1.3,0.1,2.8-1.2,3.4C1221.8,275.5,1221.4,275.6,1221,275.6z"/>
			<path class="st1" d="M1249.9,257.1c-0.5,0-0.9-0.1-1.4-0.2l-14.3-3.8c-2.9-0.8-4.6-3.7-3.9-6.6c0.8-2.9,3.7-4.6,6.6-3.9l14.3,3.8
				c2.9,0.8,4.6,3.7,3.9,6.6C1254.5,255.5,1252.3,257.1,1249.9,257.1z"/>
		</g>
	</g>
	<g>
		<g>
			<path class="st0" d="M1227.3,384.5c-0.4,0-0.7-0.1-1.1-0.2c-1.5-0.6-2.2-2.3-1.6-3.7l6.7-16.5l-6.9-61.5
				c-0.1-0.9,0.2-1.8,0.9-2.4c0.7-0.6,1.6-0.9,2.5-0.7l11.7,2.3c1.6,0.3,2.6,1.8,2.3,3.4c-0.3,1.6-1.8,2.6-3.4,2.3l-7.9-1.5
				l6.6,58.3c0.1,0.5,0,1-0.2,1.4l-7,17.2C1229.5,383.8,1228.4,384.5,1227.3,384.5z"/>
			<path class="st1" d="M1256,313.8c-0.4,0-0.8,0-1.2-0.1l-20.1-4.5c-2.9-0.7-4.7-3.6-4.1-6.5c0.7-2.9,3.6-4.7,6.5-4.1l20.1,4.5
				c2.9,0.7,4.7,3.6,4.1,6.5C1260.7,312.1,1258.5,313.8,1256,313.8z"/>
			<path class="st0" d="M1221.6,318.6c-0.9,0-1.8-0.5-2.3-1.4c-0.6-1.3-0.1-2.8,1.1-3.4l6.9-3.4c1.3-0.6,2.8-0.1,3.4,1.1
				c0.6,1.3,0.1,2.8-1.1,3.4l-6.9,3.4C1222.4,318.5,1222,318.6,1221.6,318.6z"/>
			<path class="st0" d="M1223.4,331c-0.9,0-1.8-0.5-2.3-1.4c-0.6-1.3-0.1-2.8,1.1-3.4l6.9-3.4c1.3-0.6,2.8-0.1,3.4,1.1
				c0.6,1.3,0.1,2.8-1.1,3.4l-6.9,3.4C1224.1,330.9,1223.8,331,1223.4,331z"/>
			<path class="st0" d="M1224.5,343.4c-0.9,0-1.8-0.5-2.3-1.4c-0.6-1.3-0.1-2.8,1.1-3.4l6.9-3.4c1.3-0.6,2.8-0.1,3.4,1.1
				c0.6,1.3,0.1,2.8-1.1,3.4l-6.9,3.4C1225.3,343.4,1224.9,343.4,1224.5,343.4z"/>
			<path class="st0" d="M1240.1,348.5c-0.4,0-0.8-0.1-1.1-0.3l-6.9-3.4c-1.3-0.6-1.8-2.2-1.1-3.4c0.6-1.3,2.2-1.8,3.4-1.1l6.9,3.4
				c1.3,0.6,1.8,2.2,1.1,3.4C1241.9,348,1241,348.5,1240.1,348.5z"/>
			<path class="st0" d="M1239.3,338.1c-0.4,0-0.8-0.1-1.1-0.3l-6.9-3.4c-1.3-0.6-1.8-2.2-1.1-3.4c0.6-1.3,2.2-1.8,3.4-1.1l6.9,3.4
				c1.3,0.6,1.8,2.2,1.1,3.4C1241.2,337.6,1240.3,338.1,1239.3,338.1z"/>
			<path class="st0" d="M1238.3,325.4c-0.4,0-0.8-0.1-1.1-0.3l-6.9-3.4c-1.3-0.6-1.8-2.2-1.1-3.4c0.6-1.3,2.2-1.8,3.4-1.1l6.9,3.4
				c1.3,0.6,1.8,2.2,1.1,3.4C1240.1,324.8,1239.2,325.4,1238.3,325.4z"/>
		</g>
		<g>
			<path class="st0" d="M1323.4,384.5c-1.1,0-2.2-0.7-2.7-1.8l-7-17.2c-0.2-0.4-0.2-0.9-0.2-1.4l6.6-58.3l-7.9,1.5
				c-1.6,0.3-3.1-0.7-3.4-2.3c-0.3-1.6,0.7-3.1,2.3-3.4l11.7-2.3c0.9-0.2,1.8,0.1,2.5,0.7c0.7,0.6,1,1.5,0.9,2.4l-6.9,61.5l6.7,16.5
				c0.6,1.5-0.1,3.1-1.6,3.7C1324.1,384.4,1323.7,384.5,1323.4,384.5z"/>
			<path class="st1" d="M1294.7,313.8c-2.5,0-4.7-1.7-5.3-4.2c-0.7-2.9,1.2-5.8,4.1-6.5l20.1-4.5c2.9-0.7,5.8,1.2,6.5,4.1
				c0.7,2.9-1.2,5.8-4.1,6.5l-20.1,4.5C1295.5,313.8,1295.1,313.8,1294.7,313.8z"/>
			<path class="st0" d="M1329.1,318.6c-0.4,0-0.8-0.1-1.1-0.3l-6.9-3.4c-1.3-0.6-1.8-2.2-1.1-3.4c0.6-1.3,2.2-1.8,3.4-1.1l6.9,3.4
				c1.3,0.6,1.8,2.2,1.1,3.4C1331,318.1,1330.1,318.6,1329.1,318.6z"/>
			<path class="st0" d="M1327.3,331c-0.4,0-0.8-0.1-1.1-0.3l-6.9-3.4c-1.3-0.6-1.8-2.2-1.1-3.4c0.6-1.3,2.2-1.8,3.4-1.1l6.9,3.4
				c1.3,0.6,1.8,2.2,1.1,3.4C1329.2,330.5,1328.3,331,1327.3,331z"/>
			<path class="st0" d="M1326.2,343.4c-0.4,0-0.8-0.1-1.1-0.3l-6.9-3.4c-1.3-0.6-1.8-2.2-1.1-3.4c0.6-1.3,2.2-1.8,3.4-1.1l6.9,3.4
				c1.3,0.6,1.8,2.2,1.1,3.4C1328,342.9,1327.1,343.4,1326.2,343.4z"/>
			<path class="st0" d="M1310.6,348.5c-0.9,0-1.8-0.5-2.3-1.4c-0.6-1.3-0.1-2.8,1.1-3.4l6.9-3.4c1.3-0.6,2.8-0.1,3.4,1.1
				c0.6,1.3,0.1,2.8-1.1,3.4l-6.9,3.4C1311.4,348.4,1311,348.5,1310.6,348.5z"/>
			<path class="st0" d="M1311.3,338.1c-0.9,0-1.8-0.5-2.3-1.4c-0.6-1.3-0.1-2.8,1.1-3.4l6.9-3.4c1.3-0.6,2.8-0.1,3.4,1.1
				c0.6,1.3,0.1,2.8-1.1,3.4l-6.9,3.4C1312.1,338,1311.7,338.1,1311.3,338.1z"/>
			<path class="st0" d="M1312.4,325.4c-0.9,0-1.8-0.5-2.3-1.4c-0.6-1.3-0.1-2.8,1.1-3.4l6.9-3.4c1.3-0.6,2.8-0.1,3.4,1.1
				c0.6,1.3,0.1,2.8-1.1,3.4l-6.9,3.4C1313.2,325.3,1312.8,325.4,1312.4,325.4z"/>
		</g>
	</g>
	<g>
		<path class="st3" d="M1280.5,216.8c-0.8,0-1.4-0.6-1.4-1.4c0-12.2,7.1-54.1,28.8-73.8c0.6-0.5,1.5-0.5,2,0.1s0.5,1.5-0.1,2
			c-11.3,10.3-18.1,26.7-21.8,38.7c-4.5,14.5-6.1,27.7-6.1,33.1C1282,216.1,1281.3,216.8,1280.5,216.8z"/>
		<path class="st3" d="M1264.4,216.8c-0.8,0-1.4-0.6-1.4-1.4c0-5.3-1.6-18.6-6.1-33.1c-3.7-12-10.5-28.4-21.8-38.7
			c-0.6-0.5-0.6-1.4-0.1-2s1.4-0.6,2-0.1c21.7,19.8,28.8,61.6,28.8,73.8C1265.8,216.1,1265.2,216.8,1264.4,216.8z"/>
	</g>
	<ellipse class="st1" cx="1272.5" cy="221.4" rx="12.9" ry="10.1"/>
	<path class="st0" d="M1272.5,229.3c-18.6,0-33.7,16.6-33.7,48.6s15.1,86.6,33.7,86.6c18.6,0,33.7-54.6,33.7-86.6
		S1291,229.3,1272.5,229.3z"/>
	<path class="st13" d="M1295,240.1c-10.7,28.9-38.9,42.9-53,68c5.4,27.9,17,56.3,30.4,56.3c18.6,0,33.7-54.6,33.7-86.6
		C1306.1,260.9,1301.8,248.2,1295,240.1z"/>
	<path class="st2" d="M1252.5,237.3c-8.3,7.9-13.7,21.5-13.7,40.6c0,32,15.1,86.6,33.7,86.6c11,0,20.7-19,26.8-41.1
		C1295.1,292.7,1264.4,269.2,1252.5,237.3z"/>
	<g>
		<path class="st3" d="M1257.8,224.3l-7.8,8.9c-4.1,4.7-1.9,12.1,4.1,13.7c12.3,3.3,24.5,3.3,36.8,0c6-1.6,8.3-9,4.1-13.7l-7.8-8.9
			C1279.4,215.4,1265.5,215.4,1257.8,224.3z"/>
		<path class="st4" d="M1295,233.2l-7.8-8.9c-4.5-5.2-11.1-7.3-17.4-6.5c3.6,0.6,7.1,2.8,9.7,6.5l6.3,8.9c3.3,4.7,1.5,12.1-3.3,13.7
			c-4.2,1.4-8.4,2.2-12.7,2.4c7,0.3,14-0.5,21-2.4C1296.9,245.3,1299.1,237.9,1295,233.2z"/>
		<path class="st7" d="M1290.8,242.9c-12.3,3.1-24.5,3.1-36.8,0c-3.3-0.8-5.4-3.2-6-5.9c-0.9,4.2,1.5,8.7,6,10
			c12.3,3.3,24.5,3.3,36.8,0c4.6-1.2,7-5.8,6-10C1296.2,239.7,1294.1,242.1,1290.8,242.9z"/>
		<path class="st3" d="M1291.5,246.7c0.1,0,0.2-0.1,0.3-0.1c0,0,0.1,0,0.1-0.1c0.1-0.1,0.3-0.1,0.4-0.2c0,0,0,0,0.1,0
			c0.1-0.1,0.3-0.2,0.4-0.2l0.1-0.1c0.1-0.1,0.2-0.1,0.3-0.2l0.1-0.1c0.1-0.1,0.2-0.1,0.3-0.2c0,0,0.1,0,0.1-0.1
			c0.1-0.1,0.2-0.2,0.4-0.3l0.1-0.1c0.1-0.1,0.2-0.1,0.2-0.2l0.1-0.1c0.1-0.1,0.1-0.1,0.2-0.2l0.1-0.1c0.1-0.1,0.2-0.2,0.3-0.3
			c0-0.1,0.1-0.1,0.1-0.2c0.1-0.1,0.1-0.1,0.2-0.2c0-0.1,0.1-0.1,0.1-0.2s0.1-0.1,0.1-0.2s0.1-0.1,0.1-0.2s0.1-0.1,0.1-0.2
			c0.1-0.1,0.1-0.3,0.2-0.4c0-0.1,0.1-0.1,0.1-0.2s0.1-0.2,0.1-0.3c0,0,0-0.1,0.1-0.1c0-0.1,0.1-0.2,0.1-0.3l0,0
			c0.1-0.2,0.1-0.4,0.2-0.7c0,0,0,0,0-0.1s0.1-0.2,0.1-0.3v-0.1c0.1-0.5,0.2-1,0.2-1.5l0,0c0-0.5,0-1-0.1-1.5l0,0
			c0-0.1,0-0.3-0.1-0.4c-0.6,2.7-2.8,5.1-6,5.9c-1.6,0.4-3.2,0.7-4.8,1c-0.9,1.4-2.1,2.5-3.6,3c-4.2,1.4-8.4,2.2-12.7,2.4l0,0
			c1.8,0.1,3.5,0.1,5.3,0l0,0c0.4,0,0.8,0,1.2-0.1c0.1,0,0.1,0,0.2,0c0.4,0,0.7,0,1.1-0.1c0.1,0,0.1,0,0.2,0c0.4,0,0.7-0.1,1.1-0.1
			c0.1,0,0.1,0,0.2,0c0.4,0,0.8-0.1,1.2-0.1c0,0,0,0,0.1,0c0.9-0.1,1.7-0.2,2.6-0.3c0.1,0,0.1,0,0.2,0c0.4-0.1,0.7-0.1,1.1-0.2
			c0.1,0,0.2,0,0.4-0.1c0.3-0.1,0.6-0.1,0.9-0.2c0.1,0,0.3-0.1,0.4-0.1c0.3-0.1,0.5-0.1,0.8-0.2c0.2,0,0.3-0.1,0.5-0.1
			c0.3-0.1,0.5-0.1,0.8-0.2c0.2,0,0.3-0.1,0.5-0.1c0.3-0.1,0.6-0.1,0.9-0.2c0.1,0,0.3-0.1,0.4-0.1c0.4-0.1,0.8-0.2,1.2-0.3
			c0.2,0,0.3-0.1,0.5-0.2C1291.4,246.7,1291.4,246.7,1291.5,246.7z"/>
	</g>
	<circle class="st7" cx="1258" cy="231.1" r="2.7"/>
	<circle class="st7" cx="1264.1" cy="228.3" r="1.5"/>
</g>
<g>
	<g>
		<g>
			<path class="st0" d="M1313.7,925.3c-1.5,0-2.9-1.1-3.1-2.6l-2.3-12.5c-0.1-0.5-0.1-0.9,0.1-1.4l6.7-25.3l-8.7-10.6
				c-1.1-1.4-0.9-3.4,0.5-4.5c1.4-1.1,3.4-0.9,4.5,0.5l9.7,11.8c0.6,0.8,0.9,1.8,0.6,2.8l-6.9,26.2l2.1,11.8
				c0.3,1.7-0.8,3.4-2.6,3.7C1314.1,925.3,1313.9,925.3,1313.7,925.3z"/>
			<path class="st0" d="M1343.1,864.8c-0.5,0-0.9-0.1-1.4-0.3l-20.5-9.9c-1.2-0.6-1.9-1.8-1.8-3.1l1.3-16.3l-12.1-6.1
				c-1.6-0.8-2.2-2.7-1.4-4.3c0.8-1.6,2.7-2.2,4.3-1.4l14,7c1.2,0.6,1.8,1.8,1.7,3.1l-1.3,16.3l18.6,9c1.6,0.8,2.3,2.7,1.5,4.3
				C1345.4,864.2,1344.3,864.8,1343.1,864.8z"/>
			<path class="st0" d="M1313.2,792.7c-1.2,0-2.4-0.7-2.9-1.9c-0.7-1.6,0.1-3.5,1.7-4.2l9.5-4.1l4.6-14.5l-6.8-14
				c-0.4-0.8-0.4-1.7-0.1-2.5l3.1-8.4c0.6-1.7,2.4-2.5,4.1-1.9c1.7,0.6,2.5,2.4,1.9,4.1l-2.6,7.1l6.7,13.9c0.4,0.7,0.4,1.6,0.2,2.4
				l-5.4,17.1c-0.3,0.9-0.9,1.6-1.8,2l-10.8,4.6C1314,792.6,1313.6,792.7,1313.2,792.7z"/>
			<path class="st1" d="M1298.3,801.6c-2.4,0-4.6-1.4-5.6-3.7c-1.3-3.1,0.2-6.6,3.3-7.9l17-7c3.1-1.3,6.6,0.2,7.9,3.3
				c1.3,3.1-0.2,6.6-3.3,7.9l-17,7C1299.8,801.5,1299.1,801.6,1298.3,801.6z"/>
			<path class="st1" d="M1313.2,833.9c-0.9,0-1.9-0.2-2.7-0.7l-18-9.2c-3-1.5-4.1-5.1-2.6-8.1s5.1-4.1,8.1-2.6l18,9.2
				c3,1.5,4.1,5.1,2.6,8.1C1317.5,832.7,1315.4,833.9,1313.2,833.9z"/>
			<path class="st1" d="M1313.2,882.3c-1.8,0-3.5-0.8-4.7-2.3l-14.9-18.9c-2.1-2.6-1.6-6.4,1-8.5c2.6-2.1,6.4-1.6,8.5,1l14.9,18.9
				c2.1,2.6,1.6,6.4-1,8.5C1315.8,881.9,1314.5,882.3,1313.2,882.3z"/>
		</g>
		<g>
			<path class="st0" d="M1244.6,925.3c-0.2,0-0.4,0-0.6-0.1c-1.7-0.3-2.9-2-2.6-3.7l2.1-11.8l-6.9-26.2c-0.3-1,0-2,0.6-2.8l9.7-11.8
				c1.1-1.4,3.1-1.6,4.5-0.5c1.4,1.1,1.6,3.1,0.5,4.5l-8.7,10.5l6.7,25.3c0.1,0.5,0.1,0.9,0.1,1.4l-2.3,12.5
				C1247.4,924.2,1246.1,925.3,1244.6,925.3z"/>
			<path class="st0" d="M1215.1,864.8c-1.2,0-2.3-0.7-2.9-1.8c-0.8-1.6-0.1-3.5,1.5-4.3l18.6-9l-1.3-16.3c-0.1-1.3,0.6-2.5,1.7-3.1
				l14-7c1.6-0.8,3.5-0.2,4.3,1.4c0.8,1.6,0.2,3.5-1.4,4.3l-12.1,6.1l1.3,16.3c0.1,1.3-0.6,2.5-1.8,3.1l-20.5,9.9
				C1216.1,864.7,1215.6,864.8,1215.1,864.8z"/>
			<path class="st0" d="M1245.1,792.7c-0.4,0-0.8-0.1-1.3-0.3l-10.8-4.6c-0.9-0.4-1.5-1.1-1.8-2l-5.4-17.1c-0.2-0.8-0.2-1.6,0.2-2.4
				l6.7-13.9l-2.6-7.1c-0.6-1.7,0.2-3.5,1.9-4.1c1.7-0.6,3.5,0.2,4.1,1.9l3.1,8.4c0.3,0.8,0.3,1.7-0.1,2.5l-6.8,14l4.6,14.5l9.5,4.1
				c1.6,0.7,2.4,2.6,1.7,4.2C1247.5,792,1246.3,792.7,1245.1,792.7z"/>
			<path class="st1" d="M1260,801.6c-0.8,0-1.5-0.1-2.3-0.5l-17-7c-3.1-1.3-4.5-4.8-3.3-7.9c1.3-3.1,4.8-4.5,7.9-3.3l17,7
				c3.1,1.3,4.5,4.8,3.3,7.9C1264.6,800.2,1262.3,801.6,1260,801.6z"/>
			<path class="st1" d="M1245.1,833.9c-2.2,0-4.3-1.2-5.4-3.3c-1.5-3-0.3-6.6,2.6-8.1l18-9.2c3-1.5,6.6-0.3,8.1,2.6
				c1.5,3,0.3,6.6-2.6,8.1l-18,9.2C1246.9,833.7,1246,833.9,1245.1,833.9z"/>
			<path class="st1" d="M1245.1,882.3c-1.3,0-2.6-0.4-3.7-1.3c-2.6-2.1-3.1-5.8-1-8.5l14.9-18.9c2.1-2.6,5.8-3.1,8.5-1
				c2.6,2.1,3.1,5.8,1,8.5l-14.9,18.9C1248.6,881.5,1246.9,882.3,1245.1,882.3z"/>
		</g>
	</g>
	<g>
		<path class="st10" d="M1301.7,800.6h-45c-4.3,3.4-17.7,60.1,7.1,103.2c8,13.8,22.8,13.8,30.7,0
			C1319.3,860.7,1305.9,804,1301.7,800.6z"/>
		<path class="st15" d="M1301.7,800.6h-18.1c10.9,29.6,25.1,116.6-17.6,106.4c8.3,10.5,21.3,9.5,28.6-3.2
			C1319.3,860.7,1305.9,804,1301.7,800.6z"/>
		<path class="st14" d="M1280.6,824.8c-7,0-14.6-1.4-22.5-4.1c-1.3-0.4-2-1.9-1.5-3.2c0.4-1.3,1.9-2,3.2-1.5
			c14.7,5.1,27.7,5.1,38.6,0.1c1.2-0.6,2.7,0,3.3,1.2c0.6,1.2,0,2.7-1.2,3.3C1294.3,823.4,1287.7,824.8,1280.6,824.8z M1300.4,844.6
			c1.2-0.6,1.8-2,1.2-3.3c-0.6-1.2-2-1.8-3.3-1.2c-10.9,5-23.9,5-38.6-0.1c-1.3-0.4-2.7,0.2-3.2,1.5c-0.4,1.3,0.2,2.7,1.5,3.2
			c7.9,2.8,15.5,4.1,22.5,4.1C1287.7,848.8,1294.3,847.4,1300.4,844.6z M1300.4,868.6c1.2-0.6,1.8-2,1.2-3.3c-0.6-1.2-2-1.8-3.3-1.2
			c-10.9,5-23.9,5-38.6-0.1c-1.3-0.4-2.7,0.2-3.2,1.5c-0.4,1.3,0.2,2.7,1.5,3.2c7.9,2.8,15.5,4.1,22.5,4.1
			C1287.7,872.9,1294.3,871.5,1300.4,868.6z M1292.6,894.1c1.3-0.5,1.9-1.9,1.5-3.2c-0.5-1.3-1.9-1.9-3.2-1.5
			c-6.7,2.5-14.6,2.5-23.6-0.1c-1.3-0.4-2.7,0.4-3.1,1.7s0.4,2.7,1.7,3.1c5,1.4,9.7,2.1,14.1,2.1
			C1284.5,896.2,1288.7,895.5,1292.6,894.1z"/>
		<g>
			<path class="st16" d="M1292.6,894.1c1.3-0.5,1.9-1.9,1.5-3.2c-0.3-0.8-1-1.4-1.8-1.6c-0.5,2-1.2,3.8-1.9,5.5
				C1291.1,894.6,1291.8,894.3,1292.6,894.1z"/>
			<path class="st16" d="M1289.9,823.9c3.6-0.7,7.1-1.8,10.5-3.4c1.2-0.6,1.8-2,1.2-3.3c-0.6-1.2-2-1.8-3.3-1.2
				c-3,1.4-6.2,2.4-9.5,3C1289.2,820.6,1289.6,822.2,1289.9,823.9z"/>
			<path class="st16" d="M1301.6,841.3c-0.6-1.2-2-1.8-3.3-1.2c-1.7,0.8-3.5,1.5-5.3,2c0.2,1.7,0.4,3.3,0.6,5
				c2.3-0.6,4.6-1.5,6.7-2.5C1301.7,844,1302.2,842.5,1301.6,841.3z"/>
			<path class="st16" d="M1300.4,868.6c1.2-0.6,1.8-2,1.2-3.3c-0.6-1.2-2-1.8-3.3-1.2c-1.1,0.5-2.3,1-3.5,1.4c0,1.8,0,3.5-0.1,5.2
				C1296.7,870.2,1298.6,869.5,1300.4,868.6z"/>
		</g>
	</g>
	<path class="st3" d="M1251.1,789.1v6.8c0,5.6,4,10.4,9.4,11.2c12.4,1.7,24.8,1.7,37.2,0c5.4-0.8,9.4-5.5,9.4-11.2v-6.8
		c0-5.7-4.2-10.5-9.6-11.2c-12.3-1.4-24.5-1.4-36.8,0C1255.3,778.5,1251.1,783.4,1251.1,789.1z"/>
	<path class="st7" d="M1263.6,807.1c-5.4-0.8-9.4-5.5-9.4-11.2v-6.8c0-5.7,4.2-10.5,9.6-11.2c5.6-0.7,11.2-1,16.9-1.1
		c-6.6-0.1-13.3,0.3-19.9,1.1c-5.5,0.6-9.6,5.5-9.6,11.2v6.8c0,5.6,4,10.4,9.4,11.2c6.7,0.9,13.4,1.4,20.1,1.3
		C1275,808.3,1269.3,807.9,1263.6,807.1z"/>
	<path class="st4" d="M1297.5,777.9c-7.9-0.9-15.7-1.2-23.6-1c4.4,0.1,8.8,0.5,13.1,1c5.5,0.6,9.6,5.5,9.6,11.2v6.8
		c0,5.6-4,10.4-9.4,11.2c-4.5,0.6-8.9,1-13.4,1.2c7.9,0.3,15.9-0.1,23.8-1.2c5.4-0.8,9.4-5.5,9.4-11.2v-6.8
		C1307.2,783.4,1303,778.5,1297.5,777.9z"/>
	<g>
		<path class="st1" d="M1296.8,735.2c3.8-15.6,2.1-30-6.2-37.8c-2.9-2.5-1.6,3-1.3,5.2c0.3,2.2-2.7,2.9-2.8,4.2
			c-0.1,1.5,5,4.4,1.6,6c-2,0.9,4.1,5-1.1,7.6c-2.8,1.4,5.2,6.6-8.1,7.2C1282,734.6,1296.8,735.2,1296.8,735.2z"/>
		<path class="st1" d="M1261.5,735.2c-3.8-15.6-2.1-30,6.2-37.8c2.9-2.5,1.6,3,1.3,5.2c-0.3,2.2,2.7,2.9,2.8,4.2
			c0.1,1.5-5,4.4-1.6,6c2,0.9-4.1,5,1.1,7.6c2.8,1.4-5.2,6.6,8.1,7.2C1276.2,734.6,1261.5,735.2,1261.5,735.2z"/>
	</g>
	<path class="st4" d="M1260.8,777.9c-2.6,0.3-4.9,1.5-6.6,3.4c3.1,4.5,8.3,7.4,14.1,7.4h21.8c5.8,0,11-2.9,14.1-7.4
		c-1.7-1.8-4-3.1-6.6-3.4C1285.3,776.5,1273,776.5,1260.8,777.9z"/>
	<path class="st3" d="M1301.6,744v-3.1c0-8.9-7.2-16.1-16.1-16.1h-12.8c-8.9,0-16.1,7.2-16.1,16.1v3.1c0,4.4-0.1,8.7-2.3,12.6l0,0
		c-2.3,4.1-3.5,8.7-3.3,13.3l0,0c0.3,9.3,7.9,16.6,17.1,16.6h21.8c9.3,0,16.8-7.4,17.1-16.6l0,0c0.1-4.7-1-9.3-3.3-13.3l0,0
		C1301.7,752.8,1301.6,748.4,1301.6,744z"/>
	<path class="st4" d="M1303.8,756.6L1303.8,756.6c-2.2-3.8-2.3-8.2-2.3-12.6v-3.1c0-8.9-7.2-16.1-16.1-16.1h-2.1
		c6,0,10.8,7.2,10.8,16.1v3.1c0,4.4,0.1,8.7,1.5,12.6l0,0c1.6,4.1,2.3,8.7,2.2,13.3l0,0c-0.2,9.3-5.3,16.6-11.5,16.6h3.6
		c9.3,0,16.8-7.4,17.1-16.6l0,0C1307.3,765.3,1306.1,760.7,1303.8,756.6z"/>
	<g>
		<circle class="st1" cx="1264.1" cy="735.1" r="2.5"/>
		<circle class="st1" cx="1294.2" cy="735.1" r="2.5"/>
	</g>
	<g>
		<path class="st14" d="M1295.2,742.6c-0.3,0-0.5-0.1-0.8-0.2c-1-0.4-1.4-1.6-1-2.6c0.4-0.8,0.9-2,1.6-3.4
			c3.3-6.8,10.3-20.9,11.1-31.9c0.1-1.1,1-1.9,2.1-1.8s1.9,1,1.8,2.1c-0.9,11.7-7.8,25.8-11.5,33.3c-0.7,1.4-1.2,2.5-1.6,3.3
			C1296.6,742.2,1295.9,742.6,1295.2,742.6z"/>
		<path class="st14" d="M1263.1,742.6c0.3,0,0.5-0.1,0.8-0.2c1-0.4,1.4-1.6,1-2.6c-0.4-0.8-0.9-2-1.6-3.4
			c-3.3-6.8-10.3-20.9-11.1-31.9c-0.1-1.1-1-1.9-2.1-1.8s-1.9,1-1.8,2.1c0.9,11.7,7.8,25.8,11.5,33.3c0.7,1.4,1.2,2.5,1.6,3.3
			C1261.6,742.2,1262.4,742.6,1263.1,742.6z"/>
	</g>
	<circle class="st7" cx="1257" cy="770.6" r="2.8"/>
	<circle class="st7" cx="1261.1" cy="800.3" r="2.8"/>
	<circle class="st7" cx="1265.5" cy="795.6" r="1.6"/>
	<circle class="st7" cx="1261.5" cy="775.9" r="1.5"/>
	<circle class="st17" cx="1256" cy="829.8" r="3.5"/>
	<circle class="st17" cx="1263.9" cy="827.1" r="2.1"/>
</g>
<g>
	<g>
		<g>
			<path class="st0" d="M189.8,941.7c-1.2,0-2.4-0.6-3.1-1.7l-11-16.7c-0.4-0.6-0.6-1.2-0.6-1.9l-1.3-36.7l-12.7-15
				c-1.3-1.6-1.1-3.9,0.4-5.3c1.6-1.3,3.9-1.1,5.3,0.4l13.5,15.9c0.5,0.6,0.9,1.4,0.9,2.3l1.4,37l10.4,15.8c1.1,1.7,0.7,4-1.1,5.2
				C191.2,941.5,190.5,941.7,189.8,941.7z"/>
			<path class="st0" d="M181.4,809.8c-0.4,0-0.8-0.1-1.1-0.2l-19.3-6.1c-2-0.6-3.1-2.7-2.4-4.7c0.6-2,2.7-3.1,4.7-2.4l15.3,4.8
				l3.6-18.6c0.3-1.3,1.2-2.4,2.5-2.9l22.4-7.2c2-0.6,4.1,0.4,4.7,2.4s-0.4,4.1-2.4,4.7l-20.3,6.5l-4,20.5c-0.2,1-0.8,2-1.8,2.5
				C182.8,809.6,182.1,809.8,181.4,809.8z"/>
			<path class="st1" d="M168.8,808.3c-0.5,0-1-0.1-1.5-0.2l-17.8-4.5c-3.2-0.8-5.2-4.1-4.4-7.3c0.8-3.2,4.1-5.2,7.3-4.4l17.8,4.5
				c3.2,0.8,5.2,4.1,4.4,7.3C173.9,806.4,171.5,808.3,168.8,808.3z"/>
			<path class="st0" d="M156.1,767.6c-0.3,0-0.6,0-0.9-0.1c-2-0.5-3.3-2.5-2.8-4.5l4.3-18.2c0.1-0.5,0.4-1,0.7-1.5l15.3-19.1
				c1.3-1.6,3.6-1.9,5.3-0.6c1.6,1.3,1.9,3.6,0.6,5.3l-14.7,18.4l-4.1,17.4C159.3,766.5,157.8,767.6,156.1,767.6z"/>
			<path class="st1" d="M151,790.1c-0.5,0-1-0.1-1.5-0.2c-3.2-0.8-5.2-4.2-4.3-7.4l5.7-21.7c0.8-3.2,4.2-5.2,7.4-4.3
				c3.2,0.8,5.2,4.2,4.3,7.4l-5.7,21.7C156.1,788.3,153.7,790.1,151,790.1z"/>
			<path class="st1" d="M168.8,879.2c-1.7,0-3.5-0.7-4.7-2.2l-17.8-21.5c-2.1-2.6-1.8-6.4,0.8-8.5c2.6-2.1,6.4-1.8,8.5,0.8
				l17.8,21.5c2.1,2.6,1.8,6.4-0.8,8.5C171.5,878.7,170.1,879.2,168.8,879.2z"/>
		</g>
		<g>
			<path class="st0" d="M56.8,941.7c-0.7,0-1.4-0.2-2.1-0.6c-1.7-1.1-2.2-3.5-1.1-5.2L64,920.1l1.4-37c0-0.8,0.3-1.6,0.9-2.3
				l13.5-15.9c1.3-1.6,3.7-1.8,5.3-0.4c1.6,1.3,1.8,3.7,0.4,5.3l-12.7,15l-1.3,36.7c0,0.7-0.2,1.3-0.6,1.9l-11,16.7
				C59.2,941.1,58,941.7,56.8,941.7z"/>
			<path class="st0" d="M65.2,809.8c-0.7,0-1.3-0.2-1.9-0.5c-0.9-0.5-1.6-1.5-1.8-2.5l-4-20.5l-20.3-6.5c-2-0.6-3-2.7-2.4-4.7
				s2.7-3,4.7-2.4l22.4,7.2c1.3,0.4,2.3,1.5,2.5,2.9l3.6,18.4l15.3-4.8c2-0.6,4.1,0.5,4.7,2.4c0.6,2-0.5,4.1-2.4,4.7l-19.3,6.1
				C65.9,809.7,65.5,809.8,65.2,809.8z"/>
			<path class="st1" d="M77.8,808.3c-2.7,0-5.2-1.8-5.9-4.6c-0.8-3.2,1.2-6.5,4.4-7.3l17.8-4.5c3.2-0.8,6.5,1.2,7.3,4.4
				s-1.2,6.5-4.4,7.3l-17.8,4.5C78.8,808.2,78.3,808.3,77.8,808.3z"/>
			<path class="st0" d="M90.5,767.6c-1.7,0-3.2-1.2-3.6-2.9l-4.1-17.4L68,729c-1.3-1.6-1-4,0.6-5.3s4-1,5.3,0.6l15.3,19.1
				c0.3,0.4,0.6,0.9,0.7,1.5l4.3,18.2c0.5,2-0.8,4-2.8,4.5C91.1,767.6,90.8,767.6,90.5,767.6z"/>
			<path class="st1" d="M95.6,790.1c-2.7,0-5.1-1.8-5.8-4.5l-5.7-21.7c-0.8-3.2,1.1-6.5,4.3-7.4c3.2-0.8,6.5,1.1,7.4,4.3l5.7,21.7
				c0.8,3.2-1.1,6.5-4.3,7.4C96.6,790,96.1,790.1,95.6,790.1z"/>
			<path class="st1" d="M77.8,879.2c-1.4,0-2.7-0.5-3.9-1.4c-2.6-2.1-2.9-5.9-0.8-8.5l17.8-21.5c2.1-2.6,5.9-2.9,8.5-0.8
				c2.6,2.1,2.9,5.9,0.8,8.5L82.4,877C81.3,878.5,79.6,879.2,77.8,879.2z"/>
		</g>
	</g>
	<g>
		<ellipse class="st2" cx="123.3" cy="765.4" rx="27.7" ry="23.4"/>
		<path class="st18" d="M123.3,792.6c-21.6,0-39.1,6.7-39.1,45.6c0,38.8,20.7,62.4,39.1,62.4c18.4,0,39.1-23.5,39.1-62.4
			C162.4,799.3,144.9,792.6,123.3,792.6z"/>
		<path class="st19" d="M123.3,755.4c-18.1,0-32.8,7.6-32.8,27.4s14.7,42.8,32.8,42.8s32.8-23,32.8-42.8S141.4,755.4,123.3,755.4z"
			/>
		<g>
			<path class="st2" d="M126,747.1c-1.4,0-2.6-1.2-2.6-2.6c0-2.8,1.7-8.1,6.4-10.2c1.3-0.6,2.8,0,3.4,1.3s0,2.8-1.3,3.4
				c-2.2,1-3.4,4.1-3.4,5.5C128.6,745.9,127.5,747.1,126,747.1z"/>
			<path class="st2" d="M120.6,747.1c-1.4,0-2.6-1.2-2.6-2.6c0-1.4-1.1-4.5-3.4-5.5c-1.3-0.6-1.9-2.1-1.3-3.4
				c0.6-1.3,2.1-1.9,3.4-1.3c4.7,2.1,6.4,7.4,6.4,10.2C123.1,745.9,122,747.1,120.6,747.1z"/>
		</g>
		<g>
			<path class="st3" d="M148.6,756c-3.2-6.1-9.3-10.8-16.8-12.9c-0.1,0.4-0.1,0.9-0.1,1.4c0,6.5,6.2,11.8,13.8,11.8
				C146.6,756.3,147.6,756.2,148.6,756z"/>
			<path class="st3" d="M97.9,756c1,0.2,2,0.3,3.1,0.3c7.6,0,13.8-5.3,13.8-11.8c0-0.5,0-0.9-0.1-1.4
				C107.2,745.2,101.1,749.9,97.9,756z"/>
		</g>
		<g>
			<path class="st18" d="M146.8,782.6c-0.3,0-0.5,0-0.8-0.1c-15.1-4.7-30.4-4.7-45.5,0c-1.4,0.4-2.8-0.3-3.2-1.7s0.3-2.8,1.7-3.2
				c16.1-5,32.4-5,48.5,0c1.4,0.4,2.1,1.9,1.7,3.2C148.9,781.9,147.9,782.6,146.8,782.6z"/>
			<path class="st18" d="M146.8,805.2c-0.2,0-0.5,0-0.7-0.1c-15.1-4.4-30.4-4.4-45.6,0c-1.4,0.4-2.8-0.4-3.2-1.8
				c-0.4-1.4,0.4-2.8,1.8-3.2c16.1-4.6,32.4-4.6,48.4,0c1.4,0.4,2.2,1.8,1.8,3.2C149,804.4,147.9,805.2,146.8,805.2z"/>
		</g>
		<g>
			<path class="st0" d="M156.1,838.4c-0.3,0-0.5,0-0.8-0.1c-21.2-6.9-42.8-6.9-64,0c-1.4,0.4-2.8-0.3-3.3-1.7
				c-0.4-1.4,0.3-2.8,1.7-3.3c22.3-7.2,44.9-7.2,67.2,0c1.4,0.4,2.1,1.9,1.7,3.3C158.2,837.7,157.2,838.4,156.1,838.4z"/>
			<path class="st0" d="M151,858.3c-0.2,0-0.4,0-0.6-0.1c-17.9-4.6-36.1-4.6-54.1,0c-1.4,0.4-2.8-0.5-3.2-1.9s0.5-2.8,1.9-3.2
				c18.8-4.8,37.9-4.8,56.7,0c1.4,0.4,2.2,1.8,1.9,3.2C153.2,857.5,152.1,858.3,151,858.3z"/>
			<path class="st0" d="M144.8,878.4c-0.2,0-0.4,0-0.6-0.1c-13.9-3.2-27.9-3.2-41.8,0c-1.4,0.3-2.8-0.5-3.1-1.9s0.5-2.8,1.9-3.1
				c14.7-3.4,29.5-3.4,44.2,0c1.4,0.3,2.3,1.7,1.9,3.1C147,877.6,146,878.4,144.8,878.4z"/>
		</g>
	</g>
	<g>
		<g>
			<path class="st10" d="M139.5,782.1c33.2,9,74.2,73.2,72.7,106c-1.5,32.7-58.3-4.5-69.7-32c-11.4-27.5-11.2-55.6-11.4-59.5
				C130.5,786.2,135.4,781,139.5,782.1z"/>
			<path class="st14" d="M192.8,892.3c-0.8,0-1.5-0.6-1.7-1.4c-10.3-55.8-29.7-93.4-50.9-98.3c-0.9-0.2-1.5-1.1-1.3-2.1
				c0.2-0.9,1.1-1.5,2.1-1.3c11.4,2.6,22.3,13.6,31.7,31.7c9.1,17.6,16.6,41.6,21.8,69.3c0.2,0.9-0.4,1.8-1.4,2
				C193,892.3,192.9,892.3,192.8,892.3z"/>
			<path class="st14" d="M204.8,888.4c-0.9,0-1.6-0.7-1.7-1.5c-3.2-30.1-15.7-39.3-22.4-44.3c-1.1-0.8-2-1.5-2.8-2.2
				c-0.7-0.6-0.8-1.7-0.2-2.4c0.6-0.7,1.7-0.8,2.4-0.2c0.7,0.6,1.6,1.3,2.6,2c7.1,5.3,20.4,15,23.8,46.7c0.1,0.9-0.6,1.8-1.5,1.9
				C204.9,888.4,204.8,888.4,204.8,888.4z"/>
			<path class="st14" d="M145.9,848.3L145.9,848.3c-1-0.1-1.8-0.9-1.7-1.8c1.6-30.8-4.1-41.2-6.8-46.2c-0.5-0.8-0.8-1.5-1.1-2.2
				c-0.4-0.9,0-1.9,0.9-2.3c0.9-0.4,1.9,0,2.3,0.9c0.2,0.5,0.6,1.2,1,2c2.9,5.3,8.9,16.3,7.3,48
				C147.6,847.6,146.9,848.3,145.9,848.3z"/>
			<path class="st14" d="M158.9,846.6c-0.8,0-1.6-0.6-1.7-1.5c-2.2-14.6-6.3-23.2-13.5-28.1c-0.8-0.5-1-1.6-0.5-2.4
				c0.5-0.8,1.6-1,2.4-0.5c8,5.4,12.6,14.8,14.9,30.4C160.6,845.4,160,846.3,158.9,846.6C159.1,846.6,159,846.6,158.9,846.6z"/>
			<path class="st14" d="M169.1,877.7c-0.9,0-1.7-0.8-1.7-1.7c-0.8-44.5-9.5-61-14.6-66.9c-0.6-0.7-0.6-1.8,0.2-2.4
				c0.7-0.6,1.8-0.6,2.4,0.2c5.4,6.2,14.7,23.5,15.5,69.1C170.8,876.9,170.1,877.7,169.1,877.7L169.1,877.7z"/>
		</g>
		<g>
			<path class="st10" d="M107.1,782.1c-33.2,9-74.2,73.2-72.7,106c1.5,32.7,58.3-4.5,69.7-32s11.2-55.6,11.4-59.5
				C116.1,786.2,111.1,781,107.1,782.1z"/>
			<path class="st14" d="M53.8,892.3c-0.1,0-0.2,0-0.3,0c-0.9-0.2-1.6-1.1-1.4-2c5.1-27.8,12.6-51.8,21.8-69.3
				c9.4-18.1,20.4-29.1,31.7-31.7c0.9-0.2,1.9,0.4,2.1,1.3c0.2,0.9-0.4,1.9-1.3,2.1c-21.1,4.9-40.6,42.6-50.9,98.3
				C55.3,891.7,54.6,892.3,53.8,892.3z"/>
			<path class="st14" d="M41.8,888.4c-0.1,0-0.1,0-0.2,0c-0.9-0.1-1.6-1-1.5-1.9c3.4-31.6,16.7-41.4,23.8-46.7c1-0.8,1.9-1.4,2.6-2
				c0.7-0.6,1.8-0.5,2.4,0.2c0.6,0.7,0.5,1.8-0.2,2.4c-0.8,0.7-1.7,1.4-2.8,2.2c-6.7,4.9-19.2,14.1-22.4,44.3
				C43.4,887.8,42.7,888.4,41.8,888.4z"/>
			<path class="st14" d="M100.6,848.3c-0.9,0-1.7-0.7-1.7-1.6c-1.6-31.7,4.4-42.7,7.3-48c0.4-0.8,0.8-1.4,1-2
				c0.4-0.9,1.4-1.3,2.3-0.9c0.9,0.4,1.3,1.4,0.9,2.3c-0.3,0.7-0.7,1.4-1.1,2.2c-2.7,5-8.4,15.4-6.8,46.2
				C102.4,847.4,101.7,848.2,100.6,848.3C100.7,848.3,100.7,848.3,100.6,848.3z"/>
			<path class="st14" d="M87.7,846.6c-0.1,0-0.2,0-0.3,0c-0.9-0.1-1.6-1-1.5-2c2.3-15.6,7-25,14.9-30.4c0.8-0.5,1.9-0.3,2.4,0.5
				s0.3,1.9-0.5,2.4c-7.1,4.9-11.3,13.5-13.5,28.1C89.3,846,88.5,846.6,87.7,846.6z"/>
			<path class="st14" d="M77.5,877.7L77.5,877.7c-1,0-1.7-0.8-1.7-1.8c0.8-45.6,10-62.9,15.5-69.1c0.6-0.7,1.7-0.8,2.4-0.2
				s0.8,1.7,0.2,2.4c-5.1,5.9-13.9,22.4-14.6,66.9C79.2,877,78.4,877.7,77.5,877.7z"/>
		</g>
	</g>
</g>
<g>
	<g>
		<g>
			<path class="st0" d="M771.7,903.7c-1.3,0-2.5-0.7-3.2-1.8l-11.9-20.7c-0.3-0.6-0.5-1.3-0.5-1.9l1.3-44.2l-14.6-1.3
				c-2-0.2-3.5-2-3.3-4s2-3.5,4-3.3l18.1,1.6c1.9,0.2,3.4,1.8,3.3,3.8l-1.4,46.6l11.4,19.8c1,1.8,0.4,4-1.3,5
				C773,903.5,772.3,903.7,771.7,903.7z"/>
			<path class="st1" d="M749.8,836.5L749.8,836.5h-21.5c-3.5,0-6.4-2.9-6.4-6.4s2.9-6.4,6.4-6.4l0,0h21.5c3.5,0,6.4,2.9,6.4,6.4
				C756.1,833.6,753.3,836.5,749.8,836.5z"/>
		</g>
		<g>
			<path class="st0" d="M800.9,839.5c-0.2,0-0.3,0-0.5,0l-23.9-3c-1.1-0.1-2.1-0.8-2.7-1.8l-18.9-32.5l-10.2,3.3
				c-1.9,0.6-4-0.4-4.6-2.3c-0.6-1.9,0.4-4,2.3-4.6l13-4.3c1.6-0.5,3.4,0.1,4.3,1.6l19.5,33.5l22.1,2.8c2,0.3,3.4,2.1,3.2,4.1
				C804.3,838.2,802.7,839.5,800.9,839.5z"/>
			<path class="st1" d="M728.6,814.5c-2.5,0-4.9-1.5-5.9-4c-1.3-3.3,0.2-7,3.5-8.3l18.2-7.5c3.3-1.3,7,0.2,8.3,3.5s-0.2,7-3.5,8.3
				L731,814C730.2,814.4,729.4,814.5,728.6,814.5z"/>
		</g>
		<g>
			<path class="st0" d="M740.9,778.8c-1.4,0-2.8-0.8-3.4-2.3c-0.8-1.9,0.1-4,2-4.8l15.9-6.6l4.9-35c0.1-0.7,0.4-1.4,0.9-2l10.8-11.8
				c1.4-1.5,3.7-1.6,5.2-0.2c1.5,1.4,1.6,3.7,0.2,5.2l-10.1,10.9l-5.1,35.9c-0.2,1.3-1,2.4-2.2,2.9l-17.8,7.4
				C741.9,778.7,741.4,778.8,740.9,778.8z"/>
			<path class="st1" d="M729.5,788.5c-2.3,0-4.5-1.3-5.7-3.5c-1.6-3.1-0.4-7,2.8-8.6l17.2-8.9c3.1-1.6,7-0.4,8.6,2.8
				c1.6,3.1,0.4,7-2.8,8.6l-17.2,8.9C731.5,788.2,730.5,788.5,729.5,788.5z"/>
		</g>
		<g>
			<path class="st0" d="M648.4,903.7c-0.6,0-1.2-0.2-1.8-0.5c-1.8-1-2.4-3.2-1.3-5l11.4-19.8l-1.4-46.6c-0.1-1.9,1.4-3.6,3.3-3.8
				l18.1-1.6c2-0.2,3.8,1.3,4,3.3s-1.3,3.8-3.3,4l-14.6,1.3l1.3,44.2c0,0.7-0.1,1.3-0.5,1.9l-11.9,20.7
				C650.9,903,649.7,903.7,648.4,903.7z"/>
			<path class="st1" d="M670.4,836.5c-3.5,0-6.4-2.9-6.4-6.4s2.9-6.4,6.4-6.4h21.5c3.5,0,6.4,2.9,6.4,6.4s-2.9,6.4-6.4,6.4H670.4z"
				/>
		</g>
		<g>
			<path class="st0" d="M619.3,839.5c-1.8,0-3.4-1.4-3.6-3.2c-0.3-2,1.2-3.8,3.2-4.1l22.1-2.8l19.5-33.5c0.9-1.5,2.7-2.2,4.3-1.6
				l13,4.3c1.9,0.6,3,2.7,2.3,4.6c-0.6,1.9-2.7,3-4.6,2.3l-10.2-3.3l-18.9,32.5c-0.6,1-1.6,1.7-2.7,1.8l-23.9,3
				C619.6,839.5,619.4,839.5,619.3,839.5z"/>
			<path class="st1" d="M691.6,814.5c-0.8,0-1.6-0.2-2.4-0.5l-18.2-7.5c-3.3-1.3-4.8-5.1-3.5-8.3c1.3-3.3,5.1-4.8,8.3-3.5l18.2,7.5
				c3.3,1.3,4.8,5.1,3.5,8.3C696.4,813.1,694.1,814.5,691.6,814.5z"/>
		</g>
		<g>
			<path class="st0" d="M679.2,778.8c-0.5,0-0.9-0.1-1.4-0.3l-17.8-7.4c-1.2-0.5-2-1.6-2.2-2.9l-5.1-35.9l-10-10.9
				c-1.4-1.5-1.3-3.8,0.2-5.2s3.8-1.3,5.2,0.2l10.8,11.8c0.5,0.5,0.8,1.2,0.9,2l4.9,35l15.9,6.6c1.9,0.8,2.8,2.9,2,4.8
				C682,777.9,680.7,778.8,679.2,778.8z"/>
			<path class="st1" d="M690.6,788.5c-1,0-2-0.2-2.9-0.7l-17.2-8.9c-3.1-1.6-4.4-5.4-2.8-8.6c1.6-3.1,5.4-4.4,8.6-2.8l17.2,8.9
				c3.1,1.6,4.4,5.4,2.8,8.6C695.2,787.2,692.9,788.5,690.6,788.5z"/>
		</g>
	</g>
	<path class="st3" d="M723.5,769.9c-4.4-3.3-6.2-8.8-6.2-15.6h-14.5c0,6.8-1.8,12.3-6.2,15.6s-15.4,12.8-9.7,35.5
		s6.3,41.4,15.9,47.1c3.1,1.9,11.4,1.9,14.5,0c9.5-5.7,10.1-24.4,15.9-47.1C738.9,782.6,727.9,773.2,723.5,769.9z"/>
	<path class="st4" d="M723.5,769.9c-4.4-3.3-6.2-8.8-6.2-15.6H715c0,6.8,1.2,12.3,4.2,15.6s10.5,12.8,6.6,35.5s-4.3,41.4-10.8,47.1
		c-1.1,0.9-3,1.4-4.9,1.4c2.8,0,5.7-0.5,7.2-1.4c9.5-5.7,10.1-24.4,15.9-47.1S727.9,773.2,723.5,769.9z"/>
	<path class="st0" d="M747.7,736.4c-7.9-19.3-26.7-25.8-35.4-25.8h-4.4c-8.7,0-27.6,6.5-35.4,25.8c-7.9,19.3,4.5,36.9,18,29.6
		c5.3-2.8,6.3-6.6,19.6-7.3c13.3,0.7,14.3,4.4,19.6,7.3C743.2,773.3,755.5,755.7,747.7,736.4z"/>
	<g>
		<path class="st1" d="M718.9,718.7c-0.5,0-1-0.2-1.4-0.5c-0.8-0.8-0.9-2.1-0.1-2.9l8.9-9.8c0.5-0.5,1.1-0.7,1.8-0.7
			c8.9,1.2,18.6,2.4,22,2.6c1.2-3.8,4.6-15.7,6.7-23.4c0.3-1.1,1.5-1.7,2.6-1.4s1.7,1.5,1.4,2.6c-6.9,24.5-7.3,25.1-7.5,25.4
			c-0.8,1.2-2.1,1.1-5.8,0.8c-2-0.2-4.8-0.5-8.2-0.9c-4.4-0.5-8.7-1.1-10.7-1.4l-8.2,9C720,718.4,719.5,718.7,718.9,718.7z"/>
		<path class="st1" d="M701.3,718.7c-0.6,0-1.1-0.2-1.5-0.7l-8.2-9c-2,0.3-6.3,0.8-10.7,1.4c-3.4,0.4-6.2,0.7-8.2,0.9
			c-3.7,0.3-5,0.5-5.8-0.8c-0.2-0.3-0.6-0.9-7.5-25.4c-0.3-1.1,0.3-2.2,1.4-2.6c1.1-0.3,2.2,0.3,2.6,1.4c2.2,7.7,5.5,19.6,6.7,23.4
			c3.4-0.2,13.1-1.4,22-2.6c0.7-0.1,1.3,0.2,1.8,0.7l8.9,9.8c0.8,0.8,0.7,2.2-0.1,2.9C702.2,718.5,701.7,718.7,701.3,718.7z"/>
	</g>
	<path class="st5" d="M720.6,793.9c-3,0-6.5-0.9-10.5-3.7c-8.2,5.7-14.2,3.5-18.3,2c-0.3-0.1-0.6-0.2-0.9-0.3
		c-1.1-0.4-1.6-1.6-1.2-2.6c0.4-1.1,1.6-1.6,2.6-1.2c0.3,0.1,0.6,0.2,0.9,0.3c4,1.5,8.6,3.2,15.6-2.3c0.8-0.6,1.8-0.6,2.6,0
		c7,5.5,11.5,3.8,15.6,2.3c0.3-0.1,0.6-0.2,0.9-0.3c1.1-0.4,2.3,0.2,2.6,1.2c0.4,1.1-0.2,2.3-1.2,2.6c-0.3,0.1-0.6,0.2-0.9,0.3
		C726.3,792.9,723.7,793.9,720.6,793.9z M726.5,817.2c1-0.6,1.4-1.8,0.8-2.8c-0.6-1-1.8-1.4-2.8-0.8c-9.7,5.4-19.1,5.4-28.7,0
		c-1-0.6-2.3-0.2-2.8,0.8c-0.6,1-0.2,2.3,0.8,2.8c5.4,3.1,10.9,4.6,16.4,4.6C715.6,821.8,721,820.3,726.5,817.2z"/>
	<g>
		<path class="st6" d="M727.8,787.9c-0.3,0.1-0.6,0.2-0.9,0.3c-0.1,0-0.2,0.1-0.3,0.1c0.1,1.4,0.2,2.8,0.2,4.3
			c0.5-0.2,1.1-0.4,1.5-0.6c0.3-0.1,0.6-0.2,0.9-0.3c1.1-0.4,1.6-1.6,1.2-2.6C730.1,788.1,728.9,787.5,727.8,787.9z"/>
		<path class="st6" d="M727.3,814.4c-0.6-1-1.8-1.4-2.8-0.8l0,0c-0.3,1.7-0.5,3.4-0.7,5c0.9-0.4,1.8-0.9,2.7-1.4
			C727.5,816.6,727.8,815.4,727.3,814.4z"/>
	</g>
	<circle class="st7" cx="695.6" cy="780.3" r="3.5"/>
	<circle class="st7" cx="700.9" cy="775" r="1.8"/>
	<path class="st0" d="M710.1,836c-18.4,0-33.3,14.9-33.3,33.3s14.9,55.2,33.3,55.2c18.4,0,33.3-36.9,33.3-55.2S728.4,836,710.1,836z
		"/>
	<g>
		<path class="st1" d="M678.5,858.6c-1.1,3.3-1.7,6.9-1.7,10.6c0,0.9,0,1.8,0.1,2.8c22.1-5,44.3-5,66.3,0c0.1-1,0.1-1.9,0.1-2.8
			c0-3.7-0.6-7.3-1.7-10.6c-10.5-2.1-21.1-3.2-31.5-3.2C699.6,855.5,689.1,856.5,678.5,858.6z"/>
		<path class="st1" d="M733.8,903.4c2-3.9,3.7-8,5.2-12.1c-9.6-1.8-19.3-2.6-28.9-2.6c-9.6,0-19.2,0.9-28.9,2.6
			c1.4,4.1,3.2,8.2,5.2,12.1C702.2,900.9,718,900.9,733.8,903.4z"/>
	</g>
</g>
</svg>
