<?xml version="1.0" encoding="UTF-8"?>
<svg width="1104px" height="943px" viewBox="0 0 1104 943" version="1.1" xmlns="http://www.w3.org/2000/svg" xmlns:xlink="http://www.w3.org/1999/xlink">
    <!-- Generator: Sketch 51 (57462) - http://www.bohemiancoding.com/sketch -->
    <title>Artboard</title>
    <desc>Created with Sketch.</desc>
    <defs>
        <path d="M13.1250004,7.45667063 C6.3402025,26.589957 2.33316153,43.299584 1.10387753,57.5855518 C0.317959284,66.7190009 136.354053,77.6533887 132.516187,55.3822592 C128.458844,31.837511 124.136783,16.9623148 119.550003,10.7566707 C110.200003,-1.89332957 74.7250018,-2.9933296 13.1250004,7.45667063 Z" id="path-1"></path>
        <path d="M13.1250004,7.45667063 C8.41094705,12.4694268 5.43927835,22.1187888 4.20999436,36.4047566 C3.42407611,45.5382057 130.29786,52.6758861 126.459994,30.4047566 C122.402652,6.86000837 124.136783,16.9623148 119.550003,10.7566707 C110.200003,-1.89332957 74.7250018,-2.9933296 13.1250004,7.45667063 Z" id="path-3"></path>
        <path d="M8.25000741,47.8161701 C14.7898999,52.2064593 21.5540709,56.4537602 27.9694252,59.8932825 C39.1350648,65.8796185 49.244074,69.4190428 55.2750012,67.006672 C66.5692349,62.4889785 96.149187,38.8032405 115.012905,24.3071875 C123.707618,17.6256301 115.200709,2.17141718 120.975709,2.17141718 C125.357618,2.17141718 127.004056,13.1668165 128.400709,11.2464174 C135.00071,2.17141718 146.55071,-8.28311467 146.55071,10.4214174 C146.55071,21.9714176 131.427113,42.2224002 131.427113,42.2224002 C131.427113,42.2224002 75.0750016,111.522402 49.8908516,114.487145 C48.3200261,114.672067 37.5323647,112.363887 25.784348,109.877828 C19.5849334,108.565937 13.1180925,107.204513 7.59708378,106.133769 C2.04944312,105.057859 -4.96877047,38.9422846 8.25000741,47.8161701 Z" id="path-5"></path>
        <path d="M-61.6228916,13.3473996 C-46.9409644,13.9202471 -34.3750007,17.7816709 -23.9250005,24.931671 C-15.248485,30.8682343 3.03337934,45.1462847 20.4268936,55.5931314 C22.9710228,57.1211797 20.5276224,113.645427 17.4872509,113.015463 C8.16131029,111.083132 -1.32860883,104.347995 -4.95000011,104.131673 C-6.75861397,104.023636 -2.40253529,109.673925 -5.9685498,117.923925 C-9.5345643,126.173925 -14.5608924,137.965829 -15.6750003,142.510141 C-21.8478878,167.68861 -2.66854973,190.305692 -5.9685498,196.871421 C-7.46615872,199.851086 -46.7514041,215.846422 -69.5992948,215.846422 C-104.803428,215.846422 -129.258199,201.846715 -130.922893,196.871421 C-133.970783,187.76215 -109.725002,148.681674 -130.922893,89.2474012 C-145.05482,49.6245529 -121.95482,24.3245523 -61.6228916,13.3473996 Z" id="path-7"></path>
        <path d="M39.6000009,0.856670487 C39.0500008,10.4663393 38.7750008,17.0663394 38.7750008,20.6566709 C38.7750008,23.5572234 43.734332,37.4868958 43.7250009,37.9500008 C43.6634873,41.0029459 37.5382853,44.0499335 37.1745619,46.6671686 C35.1108219,61.5171689 26.9345313,70.2319755 12.8358215,68.117169 C-9.16417901,64.817169 -0.242785882,42.3970028 39.6000009,0.856670487 Z" id="path-9"></path>
        <linearGradient x1="33.1480699%" y1="100%" x2="50%" y2="25.6293319%" id="linearGradient-11">
            <stop stop-color="#79ADD0" stop-opacity="0" offset="0%"></stop>
            <stop stop-color="#4475A3" offset="100%"></stop>
        </linearGradient>
        <path d="M92.6761141,0.418049302 L99.4419422,63.0021365 L16.2984652,63.0021365 C9.24962265,45.2167577 4.05910563,30.4464087 0.726914123,18.6910895 L92.6761141,0.418049302 Z" id="path-12"></path>
        <path d="M43.3235041,1.30673966 C32.851717,3.60302696 25.158018,8.42192211 20.2424073,15.7634251 C12.8689912,26.7756797 14.1679309,30.4839762 9.67227609,34.7979822 C5.1766213,39.1119882 1.81724155e-16,39.9075234 0,42.7462449 C0,45.5849664 5.68833077,49.4264207 5.68833077,50.7055782 C5.68833077,51.4432111 5.21041055,57.1710765 4.2545701,67.8891743 L4.25457645,67.8891749 C3.9735269,71.0406597 5.9869591,73.942021 9.03756108,74.7814689 C32.7143257,81.296711 50.1852887,82.3520528 61.4504499,77.9474942 C79.5773957,70.8600507 100.873148,51.8035308 85.9150091,23.5258004 C75.9429163,4.67398007 61.745748,-2.73237351 43.3235041,1.30673966 Z" id="path-14"></path>
        <path d="M86.4237038,34.9740424 C97.0639727,15.8794305 118.083314,20.538918 132.187719,17.7372531 C146.292124,14.9355882 164.572131,35.0481612 167.341055,49.2419546 C169.187004,58.7044835 164.851698,114.166624 154.335135,215.628375 C152.537599,221.847077 150.726674,224.821713 148.902362,224.552284 C121.806182,220.550502 113.337537,232.341816 90.4140286,225.928334 C60.7928225,217.640988 36.919597,195.045762 35.4401629,194.663983 C33.305713,190.567591 31.9082409,187.853526 32.7057703,183.329833 C33.5032998,178.80614 38.0255638,172.966064 39.0511446,168.167368 C40.3396584,162.138409 53.2128494,140.254437 61.4980765,115.867209 C72.5226574,83.4168057 80.0629199,46.3888572 86.4237038,34.9740424 Z" id="path-16"></path>
    </defs>
    <g id="Artboard" stroke="none" stroke-width="1" fill="none" fill-rule="evenodd">
        <g id="Group-29-Copy" opacity="0.904241071" transform="translate(253.741734, 408.531447) rotate(10.000000) translate(-253.741734, -408.531447) translate(65.741734, 203.531447)" fill-rule="nonzero">
            <path d="M145.382837,376.605014 C130.202065,406.060243 94.0174358,417.631977 64.5622061,402.451205 C35.1069764,387.270433 23.5352422,351.085804 38.7160145,321.630574 L81.2106088,239.178376 C94.9552762,212.509619 126.286201,200.092727 154.568345,210.10566 L206.301968,228.42129 L261.427715,115.946985 C276.011382,86.1915981 311.955288,73.8924899 341.710674,88.4761576 C371.466061,103.059825 383.765169,139.003731 369.181502,168.759118 L290.53479,329.22378 C277.127867,356.578227 245.350256,369.544426 216.633571,359.37765 L163.886135,340.703092 L145.382837,376.605014 Z" id="Path-63" fill="#8EE58F" opacity="0.200613839"></path>
            <path d="M113.933089,294.83943 C98.7523169,324.294659 62.5676879,335.866394 33.1124582,320.685621 C3.65722849,305.504849 -7.91450565,269.32022 7.26626658,239.864991 L49.7608609,157.412792 C63.5055283,130.744035 94.8364533,118.327143 123.118597,128.340076 L174.85222,146.655706 L229.977967,34.181401 C244.561634,4.42601433 280.50554,-7.87309391 310.260927,6.71057386 C340.016313,21.2942416 352.315422,57.2381471 337.731754,86.9935338 L259.085042,247.458196 C245.678119,274.812643 213.900508,287.778843 185.183823,277.612066 L132.436387,258.937508 L113.933089,294.83943 Z" id="Path-63-Copy" fill="#629EF3" opacity="0.200613839"></path>
        </g>
        <g id="Group-29-Copy-2" opacity="0.904241071" transform="translate(827.741734, 416.531447) rotate(10.000000) translate(-827.741734, -416.531447) translate(639.741734, 211.531447)" fill-rule="nonzero">
            <path d="M145.382837,376.605014 C130.202065,406.060243 94.0174358,417.631977 64.5622061,402.451205 C35.1069764,387.270433 23.5352422,351.085804 38.7160145,321.630574 L81.2106088,239.178376 C94.9552762,212.509619 126.286201,200.092727 154.568345,210.10566 L206.301968,228.42129 L261.427715,115.946985 C276.011382,86.1915981 311.955288,73.8924899 341.710674,88.4761576 C371.466061,103.059825 383.765169,139.003731 369.181502,168.759118 L290.53479,329.22378 C277.127867,356.578227 245.350256,369.544426 216.633571,359.37765 L163.886135,340.703092 L145.382837,376.605014 Z" id="Path-63" fill="#8EE58F" opacity="0.200613839"></path>
            <path d="M113.933089,294.83943 C98.7523169,324.294659 62.5676879,335.866394 33.1124582,320.685621 C3.65722849,305.504849 -7.91450565,269.32022 7.26626658,239.864991 L49.7608609,157.412792 C63.5055283,130.744035 94.8364533,118.327143 123.118597,128.340076 L174.85222,146.655706 L229.977967,34.181401 C244.561634,4.42601433 280.50554,-7.87309391 310.260927,6.71057386 C340.016313,21.2942416 352.315422,57.2381471 337.731754,86.9935338 L259.085042,247.458196 C245.678119,274.812643 213.900508,287.778843 185.183823,277.612066 L132.436387,258.937508 L113.933089,294.83943 Z" id="Path-63-Copy" fill="#629EF3" opacity="0.200613839"></path>
        </g>
        <g id="Group-28" transform="translate(95.000000, 116.000000)">
            <g id="Group-12" transform="translate(0.000000, 112.243055)">
                <g id="Group-11" transform="translate(163.000000, 40.500000)">
                    <g id="Group-7" transform="translate(0.399722, 187.547766)">
                        <path d="M36.7045384,1.38487143 L218.631168,1.38487143 C222.276248,1.38487143 225.231168,4.33979197 225.231168,7.98487118 L225.231168,103.709808 C225.231168,107.354887 222.276248,110.309807 218.631168,110.309807 L36.7045384,110.309807 C33.0594592,110.309807 30.1045386,107.354887 30.1045386,103.709808 L30.1045386,7.98487118 C30.1045386,4.33979197 33.0594592,1.38487143 36.7045384,1.38487143 Z" id="Rectangle-8-Copy-5" fill="#E0EBFB"></path>
                        <path d="M6.70453837,1.38487143 L187.131168,1.38487143 C190.776248,1.38487143 193.731168,4.33979197 193.731168,7.98487118 L193.731168,103.709808 C193.731168,107.354887 190.776248,110.309807 187.131168,110.309807 L6.70453837,110.309807 C3.05945916,110.309807 0.104538618,107.354887 0.104538618,103.709808 L0.104538618,7.98487118 C0.104538618,4.33979197 3.05945916,1.38487143 6.70453837,1.38487143 Z" id="Rectangle-8-Copy-4" fill="#E8F1FF"></path>
                        <rect id="Rectangle-8-Copy-3" fill="#D5E3F9" x="12.8441793" y="12.9450043" width="168.147348" height="51.5352337" rx="6.59999975"></rect>
                        <path d="M81.0813771,23.9457493 L111.901334,23.9457493" id="Path-24-Copy-2" stroke="#A2C1F2" stroke-width="3.95999985" stroke-linecap="round"></path>
                    </g>
                    <g id="Group-9-Copy-4" transform="translate(103.149722, 0.652548)">
                        <circle id="Oval-3" fill="#59BDFF" cx="24.394359" cy="24.2228782" r="23.9508246"></circle>
                        <polyline id="Path-16" stroke="#FFFFFF" stroke-width="6" stroke-linecap="round" stroke-linejoin="round" points="14.0445842 21.6366819 21.9923823 30.1210023 34.7441338 18.324754"></polyline>
                    </g>
                    <g id="Group-10" transform="translate(17.000000, 108.000000)">
                        <path d="M56.1604319,0.0477664039 L174.235705,0.0477664039 C178.37784,0.0477664039 181.735705,3.40563078 181.735705,7.5477664 C181.735705,8.17643372 181.656661,8.8026067 181.500435,9.41155313 L165.374484,72.2678203 C164.523529,75.5847009 161.534053,77.9040336 158.109754,77.9040336 L40.034481,77.9040336 C35.8923454,77.9040336 32.534481,74.5461692 32.534481,70.4040336 C32.534481,69.7753662 32.6135243,69.1491933 32.7697512,68.5402468 L48.8957021,5.68397968 C49.7466571,2.36709904 52.7361332,0.0477664039 56.1604319,0.0477664039 Z" id="Rectangle-22" fill="#BBDEFF"></path>
                        <polygon id="Rectangle-22-Copy" fill="#FFFFFF" points="54.6440909 7.02737254 175.310984 7.02737254 158.611043 72.1209558 37.9441503 72.1209558"></polygon>
                        <rect id="Rectangle" fill="#A5D2FB" x="0.073370651" y="72.1209558" width="164.070578" height="8.92681062" rx="4.46340531"></rect>
                        <path d="M109.536776,72.1209558 L159.680543,72.1209558 C162.145614,72.1209558 164.143948,74.1192904 164.143948,76.5843611 L164.143948,76.5843611 C164.143948,79.0494318 162.145614,81.0477664 159.680543,81.0477664 L109.536776,81.0477664 C107.071705,81.0477664 105.073371,79.0494318 105.073371,76.5843611 L105.073371,76.5843611 C105.073371,74.1192904 107.071705,72.1209558 109.536776,72.1209558 Z" id="Rectangle-Copy" fill="#A5D2FB" style="mix-blend-mode: multiply;" opacity="0.458482143"></path>
                        <g id="Group-9" transform="translate(63.000000, 18.000000)" stroke-linecap="round" stroke-linejoin="round" stroke-width="6">
                            <path d="M29.25,1.5 L63.75,1.5" id="Path-3" stroke="#8EE58F"></path>
                            <g id="Group-8" transform="translate(0.000000, 16.500000)">
                                <path d="M18.8694824,1.28304591 L65.393629,1.28304591 C70.3018945,1.28304591 74.2808298,5.26198123 74.2808298,10.1702467 C74.2808298,10.9474 74.1788929,11.7211963 73.9776273,12.4718356 L73.9776273,12.4718356 C72.2080234,19.0717442 66.2266585,23.6606254 59.393629,23.6606254 L12.437135,23.6606254 C7.59533155,23.6606254 3.67027431,19.7355681 3.67027431,14.8937647 C3.67027431,14.0744789 3.78511813,13.2592373 4.01145365,12.4718356 L4.01145365,12.4718356 C5.91578514,5.84683125 11.9762131,1.28304591 18.8694824,1.28304591 Z" id="Rectangle-22-Copy-2" stroke="#8EE58F"></path>
                                <path d="M19.0114536,12.8468356 L58.7614536,12.8468356" id="Path-56" stroke="#BFF8BF"></path>
                            </g>
                        </g>
                    </g>
                </g>
                <g id="Group-6" transform="translate(0.000000, 0.750000)">
                    <path d="M37.5,232.5 L19.5,325.5 C37.5,330.5 50.25,331.75 57.75,329.25 C65.25,326.75 67.25,294.5 63.75,232.5 L37.5,232.5 Z" id="Path-55" fill="#FEBFAA"></path>
                    <path d="M37.5,232.5 L33.867646,251.267163 C48.286513,267.95554 57.2472976,275.199819 60.75,273 C64.2527024,270.800181 65.2527024,257.300181 63.75,232.5 L37.5,232.5 Z" id="Path-55-Copy" fill="#FEBFAA" opacity="0.295145089" style="mix-blend-mode: multiply;"></path>
                    <g id="Group-30" transform="translate(41.540006, 274.845243)">
                        <mask id="mask-2" fill="white">
                            <use xlink:href="#path-1"></use>
                        </mask>
                        <use id="Path-10" fill="#629EF3" xlink:href="#path-1"></use>
                        <mask id="mask-4" fill="white">
                            <use xlink:href="#path-3"></use>
                        </mask>
                        <use id="Path-10-Copy" fill="#4B779F" style="mix-blend-mode: multiply;" opacity="0.263895089" xlink:href="#path-3"></use>
                    </g>
                    <path d="M41.25,195.75 C31.75,213.75 28.75,225 32.25,229.5 C35.75,234 45.75,238 62.25,241.5 L62.25,202.5 L41.25,195.75 Z" id="Path-54" fill="#80DB81"></path>
                    <g id="Group-22" transform="translate(177.590009, 96.495239)">
                        <mask id="mask-6" fill="white">
                            <use xlink:href="#path-5"></use>
                        </mask>
                        <use id="Path-7-Copy" fill="#FEBFAA" xlink:href="#path-5"></use>
                        <mask id="mask-8" fill="white">
                            <use xlink:href="#path-7"></use>
                        </mask>
                        <use id="Path-7" fill="#8EE58F" xlink:href="#path-7"></use>
                        <path d="M7.42500016,109.875002 C-7.42500016,99.9750022 -16.7750004,92.275002 -20.6250004,86.7750019 C-26.4000006,78.5250017 -19.8000004,112.350002 -2.47500005,130.500003 C0.764010398,125.782255 2.68901044,122.482255 3.30000007,120.600003 C4.72941941,116.196445 3.30000007,110.700002 3.30000007,109.875002 C3.30000007,108.775002 4.6750001,108.775002 7.42500016,109.875002 Z" id="Path-12" fill="#339A50" style="mix-blend-mode: multiply;" opacity="0.166294643" mask="url(#mask-8)" transform="translate(-7.621358, 108.000489) rotate(-10.000000) translate(7.621358, -108.000489) "></path>
                    </g>
                    <g id="Group-23" transform="translate(1.040005, 0.945237)">
                        <g id="Group-24" transform="translate(120.450003, 29.700001)">
                            <mask id="mask-10" fill="white">
                                <use xlink:href="#path-9"></use>
                            </mask>
                            <use id="Path-6" fill="#FEBFAA" xlink:href="#path-9"></use>
                            <path d="M40.0271135,50.1101393 C36.1771134,53.4101393 32.3271133,53.4101393 28.4771133,50.1101393" id="Path-23" stroke="#FB7272" stroke-width="3" stroke-linecap="round" mask="url(#mask-10)"></path>
                        </g>
                        <path d="M137.378224,16.5000004 C152.867876,31.0511656 160.150136,40.4011658 159.225003,44.550001 C152.014839,76.8845956 132.457117,74.6073188 124.575003,73.4250016 C102.575002,70.1250015 106.842743,51.1500011 137.378224,16.5000004 Z" id="Path-6-Copy" fill="#FFD7D5" style="mix-blend-mode: multiply;" opacity="0.607198661"></path>
                        <path d="M74.7583767,64.5857636 C74.7583767,10.8666789 132.924178,-12.2971056 151.633959,22.5433327 C167.229822,51.5851867 137.509823,43.3742803 128.477461,59.3871425 C123.485714,68.2366728 138.637406,105.72127 143.206888,120.904159 C154.564337,158.641235 133.15793,242.743022 41.8337764,215.345776 C7.17630238,204.948533 -2.35450298,157.294507 28.8372236,134.767148 C60.0289502,112.23979 74.7583767,91.7926192 74.7583767,64.5857636 Z" id="Path-5-Copy" fill="#58C276" style="mix-blend-mode: multiply;" opacity="0.250446429"></path>
                        <path d="M61.9388946,49.402875 C68.4750015,-4.91832964 140.547203,-12.558557 159.225003,22.306671 C171.600004,45.4066715 151.135515,48.9858761 142.103153,64.9987383 C137.111406,73.8482687 138.637406,90.9180755 138.637406,105.72127 C138.637406,147.310239 125.075942,235.34152 34.2521134,205.885143 C3.72711272,195.985142 -14.4228877,154.735142 16.0177415,119.58426 C46.4583707,84.4333783 58.7044794,76.2839112 61.9388946,49.402875 Z" id="Path-5" fill="#484D6F"></path>
                    </g>
                </g>
            </g>
            <g id="Group-25" transform="translate(738.000000, 298.500000) scale(-1, 1) translate(-738.000000, -298.500000) translate(547.000000, 112.000000)">
                <rect id="Rectangle-24-Copy-2" fill="#8FC8FF" opacity="0.315234375" x="310.715095" y="102.505581" width="71.1016906" height="46.9662544"></rect>
                <rect id="Rectangle-24-Copy-3" fill="#8FC8FF" opacity="0.315234375" x="175.265428" y="12.0337456" width="71.1016906" height="46.9662544"></rect>
                <g id="Group-21" transform="translate(194.000000, 26.000000)">
                    <g id="Group-16" transform="translate(0.255679, 0.000000)">
                        <rect id="Rectangle-24" fill="#F0F8FF" x="0.0722888513" y="0.895904889" width="163.5" height="108"></rect>
                        <g id="Group-15">
                            <path d="M7.57228885,0.895904889 L156.072289,0.895904889 C160.214424,0.895904889 163.572289,4.25376927 163.572289,8.39590489 L163.572289,19.5 L0.0722888513,19.5 L0.0722888513,8.39590489 C0.0722888513,4.25376927 3.43015323,0.895904889 7.57228885,0.895904889 Z" id="Rectangle-24-Copy" fill="#C2DFFB"></path>
                            <circle id="Oval-5" fill="#DEEFFF" cx="9.5" cy="10.0460553" r="2.54605532"></circle>
                            <circle id="Oval-5-Copy" fill="#DEEFFF" cx="30.5" cy="10.0460553" r="2.54605532"></circle>
                            <circle id="Oval-5-Copy-2" fill="#DEEFFF" cx="20" cy="10.0460553" r="2.54605532"></circle>
                        </g>
                    </g>
                    <g id="Group-17" transform="translate(38.500000, 40.000000)" stroke-linecap="round" stroke-linejoin="round" stroke-width="6">
                        <path d="M16.2556795,0.672454336 L70.2556795,0.672454336" id="Path-60" stroke="#8EE58F"></path>
                        <path d="M16.2556795,32.1724543 L70.2556795,32.1724543" id="Path-60-Copy" stroke="#BFF8BF"></path>
                        <rect id="Rectangle-3" stroke="#8EE58F" x="0" y="18.9718356" width="87" height="27" rx="13.5"></rect>
                    </g>
                </g>
                <g id="Group-14" transform="translate(0.077968, 0.500000)">
                    <path d="M172.5,159 L188.25,165 L180.75,97.5 C163.844185,80 156.844185,68.25 159.75,62.25 C164.108723,53.25 171.141277,63 185.016277,72 C198.891277,81 237.75,189 225.75,204 C217.75,214 192,214 148.5,204 L172.5,159 Z" id="Path-58" fill="#FDC8BC"></path>
                    <polygon id="Path-58-Copy" fill="#FDC8BC" style="mix-blend-mode: multiply;" opacity="0.339676339" points="172.5 159 180.505028 162.049534 178.211661 209.68454 148.5 204"></polygon>
                    <path d="M135.164446,120.669996 C162.664446,145.669996 176.414446,160.419996 176.414446,164.919996 C176.414446,169.419996 166.804487,182.180718 147.584569,203.202163 L135.164446,120.669996 Z" id="Path-57" fill="#71DC72" transform="translate(155.789446, 161.936080) rotate(-10.000000) translate(-155.789446, -161.936080) "></path>
                    <polygon id="Path-40" fill="#528DE0" points="146.018055 315.395681 132.922513 367.50454 50.6142724 367.50454 56.7448366 304.497863"></polygon>
                    <polygon id="Path-40-Copy-2" fill="url(#linearGradient-11)" style="mix-blend-mode: multiply;" opacity="0.446651786" points="129.240346 315.81373 116.508025 368.6094 68.4007394 367.903189 50.9780588 309.117863"></polygon>
                    <rect id="Rectangle" fill="#FDC8BC" x="98.1980565" y="101.577871" width="34.3199987" height="21.2534944"></rect>
                    <g id="Group-20" transform="translate(76.058058, 304.497863)">
                        <mask id="mask-13" fill="white">
                            <use xlink:href="#path-12"></use>
                        </mask>
                        <use id="Path-40-Copy" fill="#629EF3" xlink:href="#path-12"></use>
                        <path d="M79.7557418,14.7864399 L123.31574,328.946428" id="Path-30" stroke="#FFFFFF" stroke-width="3.95999985" mask="url(#mask-13)"></path>
                    </g>
                    <polygon id="Rectangle-Copy" fill="#F7C8B4" style="mix-blend-mode: multiply;" opacity="0.406808036" points="98.1980565 101.577871 132.518055 101.577871 132.518055 114.777871 98.1980565 104.877871"></polygon>
                    <g id="Group-13" transform="translate(117.000000, 44.500000)">
                        <rect id="Rectangle-23" fill="#E6F3FF" transform="translate(37.500000, 32.750000) rotate(34.000000) translate(-37.500000, -32.750000) " x="3" y="17" width="69" height="31.5"></rect>
                        <path d="M12.501336,17.1986667 L63.3213613,17.3413579 L63.3213613,43.8902426 L12.4676429,43.7474569 C9.16052452,43.7381712 6.48448947,41.0546119 6.48448947,37.7474805 L6.48448947,23.1986431 C6.48448947,19.8849346 9.17078097,17.1986431 12.4844895,17.1986431 C12.490105,17.1986431 12.4957205,17.1986509 12.501336,17.1986667 Z" id="Rectangle-23-Copy" fill="#FFFFFF" transform="translate(34.902925, 30.544443) rotate(34.000000) translate(-34.902925, -30.544443) "></path>
                        <circle id="Oval-4" fill="#BCDDFB" cx="61.4296123" cy="50.5371337" r="2.48382858"></circle>
                    </g>
                    <g id="Group-3-Copy-2" transform="translate(108.690672, 61.059823) scale(-1, 1) rotate(11.000000) translate(-108.690672, -61.059823) translate(60.190672, 8.559823)">
                        <g id="Path-5" transform="translate(0.000000, 23.006398)">
                            <mask id="mask-15" fill="white">
                                <use xlink:href="#path-14"></use>
                            </mask>
                            <use id="Mask" fill="#FDC8BC" fill-rule="nonzero" xlink:href="#path-14"></use>
                            <path d="M2.22626583,58.7310732 C6.66399082,60.8539475 10.6233875,60.784836 14.104456,58.5237387" id="Path-3" stroke="#613812" stroke-width="1.31999995" mask="url(#mask-15)"></path>
                        </g>
                        <g id="Path-8" transform="translate(15.289382, 0.000000)" fill="#484D6F" fill-rule="nonzero">
                            <path d="M22.6288539,67.8706348 C28.6172128,70.0776541 38.3900132,68.3645659 38.3900132,74.7989488 C38.3900132,81.2333317 22.4594227,91.6672781 31.9843529,97.8082315 C41.5092831,103.949185 37.3026733,101.134857 45.587616,102.77598 C48.1033646,102.77598 63.4719522,94.2770209 75.7946495,75.7723784 C88.1173468,57.2677359 71.9011485,50.1204158 71.9011485,40.2845274 C71.9011485,30.4486389 45.9127138,-3.12627959 21.4546877,0.602698379 C2.56099868,3.48331311 -3.32552773,30.2708839 2.03115127,40.2845274 C2.03115127,43.6039273 16.640495,65.6636155 22.6288539,67.8706348 Z" id="Mask"></path>
                        </g>
                    </g>
                    <g id="Group" transform="translate(120.390109, 233.214549) rotate(-10.000000) translate(-120.390109, -233.214549) translate(20.390109, 110.714549)">
                        <mask id="mask-17" fill="white">
                            <use xlink:href="#path-16"></use>
                        </mask>
                        <use id="Mask-Copy-3" fill="#8EE58F" transform="translate(100.116651, 122.676706) scale(-1, 1) rotate(-20.000000) translate(-100.116651, -122.676706) " xlink:href="#path-16"></use>
                        <path d="M92.8621623,26.8427292 C114.627825,20.0186234 94.4412246,114.252525 94.4412246,134.502525 C94.4412246,148.002525 100.310866,179.500299 112.05015,228.995848 L60.990408,245.661391 C8.490408,228.661391 -16.259592,217.911391 -13.259592,213.411391 C-8.759592,206.661391 71.0964995,33.6668351 92.8621623,26.8427292 Z" id="Path-59" fill="#76CA77" style="mix-blend-mode: multiply;" opacity="0.405747768" mask="url(#mask-17)"></path>
                    </g>
                    <path d="M151.01103,275.264448 L189.745988,275.264448 C188.723614,308.279532 184.630688,325.399993 177.467211,326.625832 C147.749559,331.711218 131.828656,329.817191 120.515496,325.345464 C109.202336,320.873737 60.9015919,215.545518 56.5468915,211.175272 C46.6821085,201.275272 39.1067903,187.629602 42.686892,186.095273 C46.6190055,184.410081 52.4792189,191.206008 56.5468915,192.035272 C58.2508528,192.382654 57.2068915,186.755273 59.1868914,187.415273 C60.7503427,187.936423 61.8194399,191.576253 63.1468913,193.355272 C65.8413699,196.966349 68.6014079,199.914972 71.7268909,202.595272 C82.7792901,212.073406 109.207336,236.296464 151.01103,275.264448 Z" id="Path-9-Copy-3" fill="#FDC8BC" transform="translate(115.765249, 257.746909) scale(1, -1) rotate(94.000000) translate(-115.765249, -257.746909) "></path>
                    <path d="M55.1930564,185.912743 L93.9280151,185.912743 C92.9056403,218.927827 88.8127146,236.048288 81.6492381,237.274126 C70.1440538,239.242933 56.9392385,240.129747 42.0347923,239.934568 L55.1930564,185.912743 Z" id="Path-9-Copy-4" fill="#FDC8BC" style="mix-blend-mode: multiply;" opacity="0.339676339" transform="translate(67.981404, 212.936858) scale(1, -1) rotate(94.000000) translate(-67.981404, -212.936858) "></path>
                    <path d="M98.0814902,113.692486 L131.919662,118.560913 C136.004314,119.148588 139.204082,122.373562 139.759687,126.4627 L140.806686,134.168389 C141.101142,136.335524 139.583036,138.331038 137.415902,138.625494 C137.057611,138.674176 136.69434,138.673557 136.336217,138.623655 L91.772771,132.41397 C89.8158027,132.141277 88.3592961,130.467741 88.3592961,128.491865 L88.3592961,122.116018 C88.3592961,117.415927 92.169473,113.60575 96.8695643,113.60575 C97.2750902,113.60575 97.6800974,113.634736 98.0814902,113.692486 Z" id="Rectangle-2" fill="#ECFFEC" transform="translate(114.601254, 126.133650) rotate(10.000000) translate(-114.601254, -126.133650) "></path>
                    <path d="M46.1703341,216.75 C33.1724635,166.16511 36.1724635,138.41511 55.1703341,133.5 C83.66714,126.127336 104.670334,203.25 104.670334,216.75 C104.670334,225.75 85.1703341,225.75 46.1703341,216.75 Z" id="Path-18" fill="#8EE58F" transform="translate(71.460167, 178.252229) scale(-1, 1) translate(-71.460167, -178.252229) "></path>
                </g>
            </g>
            <g id="Group-27" transform="translate(454.882897, 98.977746) rotate(-68.000000) translate(-454.882897, -98.977746) translate(393.382897, -13.022254)" stroke="#8AC1FA" stroke-linecap="round" stroke-width="5">
                <path d="M5.74461379,8.83075691 C61.7518393,18.920996 97.4308747,42.1365037 112.78172,78.4772801 C135.807988,132.988445 116.541111,186.089838 80.1292299,219.121672" id="Path-61" stroke-dasharray="7,14"></path>
                <polyline id="Path-62" stroke-linejoin="round" points="15.0375626 0 0.105527795 7.1860235 11.3836998 18.4641955"></polyline>
                <polyline id="Path-62-Copy" stroke-linejoin="round" transform="translate(89.502443, 212.231236) rotate(-60.000000) translate(-89.502443, -212.231236) " points="96.9684602 202.999138 82.0364253 210.185161 93.3145973 221.463333"></polyline>
            </g>
        </g>
    </g>
</svg>