<svg xmlns="http://www.w3.org/2000/svg" width="600" height="600" viewBox="0 0 600 600">
  <metadata><?xpacket begin="﻿" id="W5M0MpCehiHzreSzNTczkc9d"?>
<x:xmpmeta xmlns:x="adobe:ns:meta/" x:xmptk="Adobe XMP Core 5.6-c138 79.159824, 2016/09/14-01:09:01        ">
   <rdf:RDF xmlns:rdf="http://www.w3.org/1999/02/22-rdf-syntax-ns#">
      <rdf:Description rdf:about=""/>
   </rdf:RDF>
</x:xmpmeta>
                                                                                                    
                                                                                                    
                                                                                                    
                                                                                                    
                                                                                                    
                                                                                                    
                                                                                                    
                                                                                                    
                                                                                                    
                                                                                                    
                                                                                                    
                                                                                                    
                                                                                                    
                                                                                                    
                                                                                                    
                                                                                                    
                                                                                                    
                                                                                                    
                                                                                                    
                                                                                                    
                           
<?xpacket end="w"?></metadata>
<defs>
    <style>
      .cls-1 {
        fill: #3d3d41;
        fill-rule: evenodd;
      }
    </style>
  </defs>
  <path id="One_person" data-name="One person" class="cls-1" d="M577.584,524.844a67.212,67.212,0,0,0-52.479-47.179l-63.153-11.554V461.1a96.928,96.928,0,0,0,46.3-65.129,38.723,38.723,0,0,0,30.691-37.907V262.477a60.649,60.649,0,0,0-43.115-58.227l-4.813-4.841a117.4,117.4,0,0,0-83.8-34.893c-65.337,0-118.5,53.446-118.5,119.155v74.392a38.722,38.722,0,0,0,30.691,37.907,96.932,96.932,0,0,0,46.3,65.129v5.012L302.56,477.656a67.242,67.242,0,0,0-52.481,47.188L227.665,600H600ZM510.072,374.725V341.4A19.239,19.239,0,0,1,510.072,374.725Zm-192.481,0a19.24,19.24,0,0,1,0-33.328v33.328Zm0-65.051v11.053a38.1,38.1,0,0,0-9.623,4.008V283.671c0-55.024,44.521-99.8,99.252-99.8A98.348,98.348,0,0,1,477.408,213.1l8.488,8.545,2.589,0.639a41.315,41.315,0,0,1,31.211,40.19v62.258a37.574,37.574,0,0,0-9.624-4.008V309.674H479.554a83.55,83.55,0,0,1-66.646-33.494L405.257,265.9l-19.122,19.239a82.587,82.587,0,0,1-58.919,24.53h-9.625Zm19.249,67.743V328.586a101.64,101.64,0,0,0,62.9-29.758l3.743-3.764a102.834,102.834,0,0,0,76.068,33.964h11.27v48.389c0,42.688-34.54,77.42-76.992,77.42S336.84,420.105,336.84,377.417Zm48.938,92.554a95.36,95.36,0,0,0,56.108,0l-28.054,21.158Zm13.406,34.3-19.642,19.74L366.8,485.579l6.131-1.109Zm55.55-19.8,6.12,1.123L448.112,524.02,428.47,504.28Zm-201.2,96.171,14.994-50.234a47.978,47.978,0,0,1,37.487-33.7l41.671-7.615,23.454,70.761,42.692-42.95,42.7,42.941,23.454-70.761,41.671,7.615a48.017,48.017,0,0,1,37.486,33.7l14.984,50.243h-320.6Zm-3.31-424.169V95.135l-26.119-6.994q-1.155-3.037-2.523-6.069l13.562-23.555L192.028,15.161,168.6,28.8c-2-.92-4.013-1.762-6.015-2.535L155.6,0H94.623L87.645,26.274q-3.016,1.16-6.015,2.535L58.205,15.161,15.09,58.516,28.651,82.071c-0.925,2.025-1.761,4.045-2.531,6.069L0,95.135v61.337l26.12,7c0.77,2.024,1.607,4.049,2.531,6.069L15.09,193.091l43.116,43.355L81.63,222.812c2,0.92,4.013,1.758,6.015,2.535l6.977,26.266H155.6l6.978-26.275q3.018-1.167,6.015-2.535l23.425,13.634,43.115-43.355-13.56-23.555c0.915-2.025,1.762-4.045,2.521-6.07Zm-39.151,33.435-22.212,22.345-19.585-11.408-4.677,2.407a86.587,86.587,0,0,1-12.973,5.457l-4.994,1.62-5.814,21.926H109.405l-5.812-21.926-5-1.62a88.148,88.148,0,0,1-12.973-5.457l-4.677-2.407L61.363,212.252,39.15,189.907l11.338-19.685-2.4-4.7a86.737,86.737,0,0,1-5.419-13.045l-1.607-5.03L19.247,141.6V110.011l21.818-5.844,1.607-5.034a87.529,87.529,0,0,1,5.419-13.045l2.4-4.7L39.15,61.7,61.363,39.356,80.947,50.767l4.677-2.411A87.253,87.253,0,0,1,98.6,42.9l5-1.615,5.812-21.931h31.413l5.814,21.931,4.994,1.615A88.161,88.161,0,0,1,164.6,48.356l4.677,2.411,19.585-11.412L211.073,61.7,199.737,81.386l2.4,4.7a86.7,86.7,0,0,1,5.418,13.045l1.608,5.034,21.817,5.844V141.6l-21.817,5.848-1.608,5.03a87.491,87.491,0,0,1-5.418,13.045l-2.4,4.7ZM179.18,166.228a67.43,67.43,0,0,0,13.3-40.424c0-37.346-30.219-67.743-67.368-67.743S57.744,88.458,57.744,125.8s30.219,67.743,67.368,67.743a66.46,66.46,0,0,0,41.066-14.035l-11.742-15.328a47.485,47.485,0,0,1-29.324,10.009,48.27,48.27,0,1,1,38.631-19.529Zm388.637-34.751v-34.7C567.817,43.41,524.643,0,471.576,0H413.832V19.353h57.744c42.451,0,76.992,34.732,76.992,77.42v34.7h19.249ZM48.12,503.221v-34.7H28.872v34.7c0,53.364,43.173,96.779,96.24,96.779V580.641C82.66,580.641,48.12,545.909,48.12,503.221ZM0,290.32H250.224v19.354H0V290.32Zm0,77.42H250.224v19.354H0V367.74Zm0-38.712H115.488v19.358H0V329.028Zm190.075,0h-55.34v19.358H250.224V329.028H190.075ZM375.336,0h19.248V19.353H375.336V0Zm-38.5,0h19.248V19.353H336.84V0ZM144.36,580.641h19.248V600H144.36V580.641Zm38.5,0H202.1V600H182.856V580.641Z"/>
</svg>
