<svg xmlns="http://www.w3.org/2000/svg" width="600" height="600" viewBox="0 0 600 600">
  <metadata><?xpacket begin="﻿" id="W5M0MpCehiHzreSzNTczkc9d"?>
<x:xmpmeta xmlns:x="adobe:ns:meta/" x:xmptk="Adobe XMP Core 5.6-c138 79.159824, 2016/09/14-01:09:01        ">
   <rdf:RDF xmlns:rdf="http://www.w3.org/1999/02/22-rdf-syntax-ns#">
      <rdf:Description rdf:about=""/>
   </rdf:RDF>
</x:xmpmeta>
                                                                                                    
                                                                                                    
                                                                                                    
                                                                                                    
                                                                                                    
                                                                                                    
                                                                                                    
                                                                                                    
                                                                                                    
                                                                                                    
                                                                                                    
                                                                                                    
                                                                                                    
                                                                                                    
                                                                                                    
                                                                                                    
                                                                                                    
                                                                                                    
                                                                                                    
                                                                                                    
                           
<?xpacket end="w"?></metadata>
<defs>
    <style>
      .cls-1 {
        fill: #3d3d41;
        fill-rule: evenodd;
      }
    </style>
  </defs>
  <path id="three_person" data-name="three person" class="cls-1" d="M133.628,470.453A69.431,69.431,0,0,0,160,419.993c0-66.123-38.07-80-70-80s-70,13.878-70,80a69.416,69.416,0,0,0,26.37,50.487A52.832,52.832,0,0,0,0,522.992v77H20v-77a33,33,0,0,1,33-33.006H75.2L60.708,526.273a10,10,0,0,0,2.22,10.791l20,20a10,10,0,0,0,14.14,0l20-20a10,10,0,0,0,2.219-10.791l-14.519-36.287H127a33,33,0,0,1,33,33.006v77h20v-77A52.828,52.828,0,0,0,133.628,470.453ZM40.519,409.409C43.229,375.9,59,359.99,90,359.99c28.379,0,44,13.422,48.469,41.427l-33.319-20.008a10,10,0,0,0-13.72,3.438,9.841,9.841,0,0,0-.91,1.969C85.458,402,58.148,407.744,40.519,409.409ZM90,535.821l-8.271-8.273L90,506.91l8.27,20.675Zm0-65.828a63.009,63.009,0,0,1-48.61-40.521c17.12-1.408,48-6.6,62.4-25.543l35.75,21.452C135.517,449.866,105.348,469.993,90,469.993Zm-50,90H60v40H40v-40Zm80,0h20v40H120v-40Zm223.626-89.535A69.429,69.429,0,0,0,370,419.993c0-66.123-38.07-80-70-80s-70,13.878-70,80a69.42,69.42,0,0,0,26.37,50.487A52.831,52.831,0,0,0,210,522.992v77h20v-77a33,33,0,0,1,33-33.006h22.2l-14.51,36.287a10,10,0,0,0,2.22,10.791l20,20a10,10,0,0,0,14.141,0l20-20a10,10,0,0,0,2.221-10.791l-14.5-36.287H337a33,33,0,0,1,33,33.006v77h20v-77A52.829,52.829,0,0,0,343.624,470.453Zm-93.108-61.044C253.226,375.9,269,359.99,300,359.99c28.38,0,44,13.422,48.47,41.427l-33.319-20.008a10,10,0,0,0-13.72,3.438,9.743,9.743,0,0,0-.91,1.969C295.455,402,268.146,407.744,250.516,409.409ZM300,535.821l-8.269-8.273L300,506.91l8.271,20.675Zm0-65.828a63.008,63.008,0,0,1-48.609-40.521c17.119-1.408,48-6.6,62.4-25.543l35.75,21.452C345.515,449.866,315.345,469.993,300,469.993Zm-50,90h20v40H250v-40Zm80,0h20v40H330v-40ZM576.382,478.9a52.863,52.863,0,0,0-22.76-8.416,69.42,69.42,0,0,0,26.37-50.487c0-66.123-38.069-80-70-80s-70,13.878-70,80a69.42,69.42,0,0,0,26.37,50.487,52.831,52.831,0,0,0-46.37,52.512v77h20v-77a33,33,0,0,1,33-33.006h22.2l-14.509,36.287a10,10,0,0,0,2.22,10.791l20,20a10,10,0,0,0,14.14,0l20-20a10,10,0,0,0,2.22-10.791l-14.5-36.287h22.23a33,33,0,0,1,33,33.006v77h20v-77A52.94,52.94,0,0,0,576.382,478.9ZM460.513,409.409c2.71-33.508,18.48-49.419,49.48-49.419,28.38,0,44,13.422,48.469,41.427l-33.319-20.008a10,10,0,0,0-13.72,3.438,9.8,9.8,0,0,0-.91,1.969C505.453,402,478.143,407.744,460.513,409.409Zm49.48,126.44-8.27-8.264,8.27-20.675,8.269,20.675Zm0-65.856a63.011,63.011,0,0,1-48.61-40.521c17.12-1.408,48-6.6,62.4-25.543l35.749,21.452C555.513,449.866,525.343,469.993,509.993,469.993Zm-50,90h20v40h-20v-40Zm80,0h20v40h-20v-40Zm30-460h-160a30,30,0,0,0-30,30v9.994H300v-80a30,30,0,0,0-30-30H30a30,30,0,0,0-30,30v120a30,30,0,0,0,30,30H52l30.339,36.4a10,10,0,0,0,14.085,1.274,9.781,9.781,0,0,0,1.275-1.274l30.3-36.4h42v40a30,30,0,0,0,30,30h62l30.339,36.393a10,10,0,0,0,14.086,1.279,9.455,9.455,0,0,0,1.275-1.279L338,279.993h62a30,30,0,0,0,30-30v-10h52l30.339,36.4a10,10,0,0,0,15.359,0l30.3-36.4h12a30,30,0,0,0,30-30v-80A30,30,0,0,0,569.992,99.992Zm-446.664,90a10,10,0,0,0-7.68,3.6L90,224.37l-25.65-30.779a10.005,10.005,0,0,0-7.68-3.6H30a10,10,0,0,1-10-10v-120a10,10,0,0,1,10-10H270a10,10,0,0,1,10,10v120a10,10,0,0,1-10,10H123.328ZM409.994,250a10.006,10.006,0,0,1-10,10h-66.67a9.971,9.971,0,0,0-7.68,3.6L300,294.372l-25.65-30.779a9.967,9.967,0,0,0-7.679-3.6H200a10.007,10.007,0,0,1-10-10v-40h80a30,30,0,0,0,30-30v-20H400a10,10,0,0,1,10,10V250Zm170-40a10,10,0,0,1-10,10H553.323a10.018,10.018,0,0,0-7.681,3.6l-25.649,30.784-25.65-30.784a10.016,10.016,0,0,0-7.68-3.6H429.994v-50a30,30,0,0,0-30-30v-9.994a10,10,0,0,1,10-10h160a10,10,0,0,1,10,10v80ZM40,69.991H60v20H40v-20Zm40,0h20v20H80v-20Zm40,0h20v20H120v-20Zm200,110h20v20H320v-20Zm40,0h20v20H360v-20Zm100-40h20v20h-20v-20Zm40,0h20v20h-20v-20Zm40,0h20v20h-20v-20ZM350-.012v20a60.07,60.07,0,0,1,60,60h20A80.1,80.1,0,0,0,350-.012ZM140,260H120a80.087,80.087,0,0,0,80,80v-20A60.07,60.07,0,0,1,140,260Z"/>
</svg>
