<svg xmlns="http://www.w3.org/2000/svg" width="600" height="600" viewBox="0 0 600 600">
  <metadata><?xpacket begin="﻿" id="W5M0MpCehiHzreSzNTczkc9d"?>
<x:xmpmeta xmlns:x="adobe:ns:meta/" x:xmptk="Adobe XMP Core 5.6-c138 79.159824, 2016/09/14-01:09:01        ">
   <rdf:RDF xmlns:rdf="http://www.w3.org/1999/02/22-rdf-syntax-ns#">
      <rdf:Description rdf:about=""/>
   </rdf:RDF>
</x:xmpmeta>
                                                                                                    
                                                                                                    
                                                                                                    
                                                                                                    
                                                                                                    
                                                                                                    
                                                                                                    
                                                                                                    
                                                                                                    
                                                                                                    
                                                                                                    
                                                                                                    
                                                                                                    
                                                                                                    
                                                                                                    
                                                                                                    
                                                                                                    
                                                                                                    
                                                                                                    
                                                                                                    
                           
<?xpacket end="w"?></metadata>
<defs>
    <style>
      .cls-1 {
        fill: #3d3d41;
        fill-rule: evenodd;
      }
    </style>
  </defs>
  <path id="Two_persons" data-name="Two persons" class="cls-1" d="M112.207,483.5v0c0.012,0,.022,0,0.031,0s0.023,0,.036,0h42.48c0.012,0,.023,0,0.035,0s0.02,0,.029,0H256.053a9.545,9.545,0,0,0,9.467-9.562V428.624c0-40.99-28.192-61.526-43.407-66.8l-31.588-13.174L169.27,334.611v-5.2a62.9,62.9,0,0,0,31.6-43.649A30.641,30.641,0,0,0,218.122,235.1V205.236a81.828,81.828,0,0,0-81.709-81.759h-6.022a81.828,81.828,0,0,0-81.709,81.759v30.011a30.641,30.641,0,0,0,17.373,50.515,62.909,62.909,0,0,0,31.606,43.65v4.647L76.339,348.135c-0.279.088-.556,0.184-0.831,0.3L43.4,361.82C28.192,367.1,0,387.63,0,428.624v45.389A9.479,9.479,0,0,0,9.467,483.5H71.642a9.474,9.474,0,0,0,0-18.948H62.485v-38a9.468,9.468,0,1,0-18.935,0v38H18.935V428.624c0-37.709,29.638-48.536,30.843-48.959q0.318-.1.625-0.235L73.261,369.9l26.566,94.9a9.472,9.472,0,0,0,2.107,18.7h10.273Zm89.727-237.583a11.705,11.705,0,0,1,0,19.372V245.918ZM65,265.3a11.708,11.708,0,0,1,0-19.377V265.3ZM109.752,430l-5.087-18.171a9.583,9.583,0,0,0,2.274-1.21l2.9-2.135,2.443,5.834Zm13.609,34.553,6.758-41.924h6.692l6.758,41.924H123.361Zm9.754-98.569-16.516-16.1v-13.8a62.548,62.548,0,0,0,11.1,1.008h11.548a62.519,62.519,0,0,0,11.094-1.008V348.1Zm7.672,31.111-2.471,6.585h-9.96l-2.828-6.755,7.516-5.536Zm16.428,33.126-2.595-16.087,2.013-5.365,2.517,1.85a9.4,9.4,0,0,0,3.136,1.486Zm36.393-59.764,21.509,8.968c0.167,0.074.4,0.157,0.569,0.216,1.261,0.442,30.9,11.274,30.9,48.979v35.928H221.969V426.554a9.468,9.468,0,1,0-18.936,0v37.994H167.268ZM174.7,360.9L161.22,388.614l-3.232-2.379-0.02-.013-10.559-7.777,19.212-19.952a9.55,9.55,0,0,0,1.448-1.974ZM74.5,219.524H74.464a9.625,9.625,0,0,0-.966.046c-0.084.009-.167,0.027-0.251,0.037-0.23.032-.461,0.059-0.688,0.106-0.109.023-.212,0.055-0.32,0.082-0.2.051-.394,0.092-0.585,0.152-0.133.042-.262,0.1-0.391,0.143-0.16.055-.323,0.11-0.477,0.175s-0.292.138-.439,0.211c-0.129.06-.261,0.115-0.388,0.184-0.148.083-.29,0.175-0.431,0.263-0.116.069-.236,0.133-0.347,0.211-0.137.092-.266,0.2-0.4,0.3-0.11.079-.225,0.157-0.33,0.244-0.12.1-.234,0.212-0.348,0.313s-0.221.194-.325,0.295c-0.056.06-.109,0.119-0.164,0.179V205.232a62.869,62.869,0,0,1,62.775-62.815h6.022a62.866,62.866,0,0,1,62.775,62.815v17.1c-0.075-.078-0.159-0.147-0.234-0.221-0.122-.115-0.243-0.23-0.371-0.336-0.1-.087-0.21-0.17-0.316-0.253-0.133-.106-0.267-0.207-0.406-0.3-0.117-.083-0.239-0.156-0.36-0.234s-0.267-.171-0.407-0.249-0.291-.152-0.438-0.225c-0.126-.06-0.246-0.125-0.376-0.18-0.178-.078-0.358-0.147-0.541-0.216-0.108-.037-0.212-0.078-0.322-0.115-0.206-.069-0.414-0.124-0.624-0.175-0.079-.023-0.152-0.046-0.229-0.064-19.638-4.473-25.814-29.951-25.866-30.177a9.465,9.465,0,0,0-16.9-3.456C127.888,219.193,75.21,219.524,74.5,219.524Zm9.432,54.836V237.985c16.014-1.417,48.743-6.939,72.271-28.5,4.869,9.475,13.227,20.744,26.792,26.385V274.36a43.819,43.819,0,0,1-43.756,43.783H127.692A43.823,43.823,0,0,1,83.934,274.36ZM91.39,360.9l6.649-4.385a9.417,9.417,0,0,0,2.486,4.16l18.2,17.743-13.859,10.206ZM107.882,94.824A280.669,280.669,0,0,1,475.629,80.84l13.119-13.768A299.621,299.621,0,0,0,94.936,80.992,9.473,9.473,0,1,0,107.882,94.824ZM484.115,512.081A280.728,280.728,0,0,1,131.391,524.91L118.76,539.124a299.674,299.674,0,0,0,377.787-12.751A9.471,9.471,0,1,0,484.115,512.081ZM556.592,361.82L525,348.646l-21.255-14.035v-5.2a62.9,62.9,0,0,0,31.605-43.649A30.642,30.642,0,0,0,552.6,235.1V205.236a81.828,81.828,0,0,0-81.709-81.759h-6.025a81.827,81.827,0,0,0-81.708,81.759v30.011a30.643,30.643,0,0,0,17.373,50.515,62.92,62.92,0,0,0,31.606,43.65v4.647l-21.324,14.076c-0.28.088-.557,0.184-0.831,0.3l-32.1,13.386c-15.215,5.278-43.407,25.814-43.407,66.8v45.394a9.478,9.478,0,0,0,9.468,9.483h62.175a9.474,9.474,0,0,0,0-18.948h-9.157v-38a9.468,9.468,0,1,0-18.935,0v38H353.411V428.624c0-37.7,29.638-48.536,30.843-48.959,0.212-.07.42-0.148,0.626-0.235l22.857-9.53L434.3,464.8a9.472,9.472,0,0,0,2.108,18.7H590.529A9.546,9.546,0,0,0,600,473.94V428.624C600,387.63,571.807,367.1,556.592,361.82Zm-20.182-115.9a11.7,11.7,0,0,1,0,19.372V245.918ZM399.476,265.3a11.707,11.707,0,0,1,0-19.377V265.3Zm9.5-45.771h-0.038a9.59,9.59,0,0,0-.964.046c-0.085.009-.169,0.027-0.252,0.037-0.23.032-.461,0.059-0.687,0.106-0.11.023-.214,0.055-0.321,0.082-0.2.051-.393,0.092-0.585,0.152-0.133.042-.26,0.1-0.391,0.143-0.162.055-.323,0.11-0.478,0.175s-0.292.138-.438,0.211c-0.13.06-.262,0.115-0.389,0.184-0.148.083-.29,0.175-0.434,0.263-0.114.069-.234,0.133-0.347,0.211-0.137.092-.266,0.2-0.4,0.3-0.11.079-.224,0.157-0.329,0.244-0.121.1-.234,0.212-0.347,0.313s-0.223.194-.326,0.295c-0.058.06-.109,0.119-0.164,0.179V205.232a62.869,62.869,0,0,1,62.775-62.815h6.025a62.867,62.867,0,0,1,62.775,62.815v17.1c-0.077-.078-0.159-0.147-0.235-0.221-0.122-.115-0.242-0.23-0.37-0.336-0.1-.087-0.211-0.17-0.316-0.253-0.133-.106-0.267-0.207-0.407-0.3-0.116-.083-0.238-0.156-0.359-0.234s-0.268-.171-0.407-0.249-0.291-.152-0.44-0.225c-0.124-.06-0.246-0.125-0.374-0.18-0.177-.078-0.358-0.147-0.541-0.216-0.108-.037-0.212-0.078-0.322-0.115-0.2-.069-0.414-0.124-0.625-0.175-0.078-.023-0.15-0.046-0.229-0.064-19.638-4.473-25.813-29.951-25.866-30.177a9.465,9.465,0,0,0-16.9-3.456C462.367,219.193,409.689,219.524,408.98,219.524Zm9.431,54.836V237.985c16.014-1.417,48.749-6.944,72.272-28.5,4.868,9.475,13.227,20.744,26.792,26.385V274.36a43.819,43.819,0,0,1-43.757,43.783H462.171A43.823,43.823,0,0,1,418.411,274.36Zm41.595,122.565,7.516-5.536,7.745,5.706L472.8,403.68h-9.96Zm7.584-30.941-16.516-16.1V339.25h0v-3.166a62.522,62.522,0,0,0,11.1,1.008h11.547a62.519,62.519,0,0,0,11.094-1.008V348.1ZM444.227,430l-5.087-18.171a9.609,9.609,0,0,0,2.275-1.21l2.9-2.135,2.442,5.834Zm-4.881-41.381L425.868,360.9l6.649-4.39A9.413,9.413,0,0,0,435,360.67l18.2,17.743Zm18.492,75.934,6.758-41.924h6.693l6.761,41.924H457.838Zm43.26-106.06a9.513,9.513,0,0,0,1.448-1.974l6.628,4.381L495.7,388.614l-3.232-2.379-0.021-.013-10.558-7.777Zm-9.406,71.728L489.1,414.134l2.013-5.365,2.517,1.85a9.4,9.4,0,0,0,3.135,1.486Zm89.372,34.332H556.448v-38a9.468,9.468,0,1,0-18.936,0v38H501.747l26.339-94.091L549.6,379.43c0.167,0.069.4,0.156,0.57,0.216,1.26,0.442,30.9,11.269,30.9,48.978v35.929Z"/>
</svg>
